<?xml version="1.0" standalone="no"?>
<!DOCTYPE svg PUBLIC "-//W3C//DTD SVG 1.1//EN" "http://www.w3.org/Graphics/SVG/1.1/DTD/svg11.dtd" >
<svg xmlns="http://www.w3.org/2000/svg" xmlns:xlink="http://www.w3.org/1999/xlink" version="1.1">
<metadata>
Created by FontForge 20170731 at Tue Aug 22 10:54:56 2023
 By Aleksey,,,
(c) Copyright David Jonathan Ross, 2017. All rights reserved.
</metadata>
<defs>
<font id="Roslindale-DeckNarrowRegular" horiz-adv-x="1091" >
  <font-face 
    font-family="Roslindale Deck Narrow Regular"
    font-weight="400"
    font-stretch="semi-condensed"
    units-per-em="2048"
    panose-1="0 0 0 0 0 0 0 0 0 0"
    ascent="1608"
    descent="-440"
    x-height="1042"
    cap-height="1536"
    bbox="-301 -748 1989 2415"
    underline-thickness="102"
    underline-position="-307"
    unicode-range="U+0020-FB01"
  />
<missing-glyph horiz-adv-x="1024" 
d="M102 -440v2048h820v-2048h-820zM205 -338h614v1843h-614v-1843z" />
    <glyph glyph-name=".notdef" horiz-adv-x="1024" 
d="M102 -440v2048h820v-2048h-820zM205 -338h614v1843h-614v-1843z" />
    <glyph glyph-name=".null" horiz-adv-x="0" 
 />
    <glyph glyph-name="nonmarkingreturn" horiz-adv-x="682" 
 />
    <glyph glyph-name="space" unicode=" " horiz-adv-x="391" 
 />
    <glyph glyph-name="space" unicode="&#xa0;" horiz-adv-x="391" 
 />
    <glyph glyph-name="exclam" unicode="!" horiz-adv-x="673" 
d="M205 1413q0 75 35.5 128.5t97.5 53.5q61 0 95 -53t34 -129q0 -81 -17 -196t-37 -219.5t-37 -261.5t-18 -312h-45q0 156 -17 313t-37 261t-37 219t-17 196zM207 117q0 59 37 99t94 40t97 -40.5t40 -98.5q0 -56 -40 -96.5t-97 -40.5q-56 0 -93.5 40.5t-37.5 96.5z" />
    <glyph glyph-name="quotedbl" unicode="&#x22;" horiz-adv-x="690" 
d="M109 1501q0 46 25 78.5t69 32.5q45 0 69.5 -32.5t24.5 -78.5q0 -55 -33 -174t-47 -231h-29q-14 109 -46.5 228.5t-32.5 176.5zM403 1501q0 46 26 78.5t71 32.5q44 0 69 -32.5t25 -78.5q0 -55 -34 -174t-48 -231h-29q-15 110 -47.5 229.5t-32.5 175.5z" />
    <glyph glyph-name="numbersign" unicode="#" horiz-adv-x="1304" 
d="M70 416v184h317l88 336h-299v184h348l113 416h80l-111 -416h271l112 416h80l-111 -416h279v-184h-328l-90 -336h309v-184h-358l-113 -416h-79l110 416h-270l-111 -416h-82l111 416h-266zM467 600h270l90 336h-270z" />
    <glyph glyph-name="dollar" unicode="$" horiz-adv-x="1179" 
d="M68 250q0 51 32.5 86t87.5 35q20 0 36.5 -5t30 -17t23 -22.5t20 -32.5t16 -35.5t16 -42t16.5 -42.5q37 -109 184 -123v662q-60 23 -100 40.5t-91.5 45t-84.5 58t-63.5 71t-45 93.5t-14.5 116q0 163 109 277.5t290 137.5v168h72v-164h10q95 0 171.5 -22.5t121.5 -58.5
t68.5 -76.5t23.5 -81.5q0 -49 -32 -84t-86 -35q-55 0 -87.5 40t-54.5 110q-38 112 -135 133v-570q173 -67 227 -94q172 -87 226 -215q28 -68 28 -153q-2 -188 -133 -316.5t-348 -150.5v-166h-72v164q-113 0 -205 25t-146 65.5t-82.5 87t-28.5 92.5zM276 1221
q0 -103 65.5 -166.5t188.5 -114.5v547q-109 -3 -181.5 -76.5t-72.5 -189.5zM938 362q0 54 -19 99t-46.5 75.5t-76.5 60t-89.5 47t-104.5 42.5v-639q147 0 241.5 92t94.5 223z" />
    <glyph glyph-name="percent" unicode="%" horiz-adv-x="1304" 
d="M348 895q-116 0 -199 100.5t-83 235.5q0 137 81 236.5t201 99.5q117 0 198 -99t81 -237t-81.5 -237t-197.5 -99zM227 0l777 1536h81l-774 -1536h-84zM348 954q65 0 98 72t33 205q0 132 -33 204t-98 72q-133 0 -133 -276q0 -132 34 -204.5t99 -72.5zM956 -31
q-119 0 -199.5 99t-80.5 237q0 137 82 236.5t198 99.5q115 0 198 -100.5t83 -235.5q0 -137 -81.5 -236.5t-199.5 -99.5zM956 29q134 0 134 276q0 133 -34.5 206t-99.5 73q-131 0 -131 -279q0 -276 131 -276z" />
    <glyph glyph-name="ampersand" unicode="&#x26;" horiz-adv-x="1472" 
d="M991 213l-100 129q-70 -182 -188 -277.5t-265 -95.5q-157 0 -269 120t-112 302q0 92 33 178.5t88.5 153.5t126 117.5t148.5 79.5q-91 140 -91 272q0 158 101.5 264.5t263.5 106.5q108 0 190 -53.5t82 -129.5q0 -46 -28 -78t-72 -32q-37 0 -64 21.5t-44 52t-34.5 60.5
t-46 51.5t-67.5 21.5q-60 0 -103.5 -50.5t-43.5 -126.5q0 -69 38 -141t115 -172l269 -348q28 162 119.5 263.5t209.5 101.5q67 0 113.5 -42t46.5 -104q0 -44 -28.5 -74t-69.5 -30q-33 0 -59 17t-39.5 37t-34 37t-43.5 17q-51 0 -100 -78t-70 -202l286 -369
q117 -151 185 -197v-16h-439v16q34 22 42.5 55.5t-4.5 68.5t-42 73zM492 864q-7 7 -15 19q-122 -66 -183 -177t-61 -251q0 -137 74 -228.5t197 -91.5q104 0 191 59t165 189z" />
    <glyph glyph-name="quotesingle" unicode="'" horiz-adv-x="405" 
d="M109 1501q0 46 25 78.5t69 32.5q45 0 69.5 -32.5t24.5 -78.5q0 -55 -33 -174t-47 -231h-29q-14 109 -46.5 228.5t-32.5 176.5z" />
    <glyph glyph-name="parenleft" unicode="(" horiz-adv-x="620" 
d="M567 -270q-63 33 -128 90.5t-130 147t-115.5 196t-82 248t-31.5 293.5q0 146 31.5 285t82 246.5t115.5 199t130 151t128 92.5l8 -16q-145 -163 -218.5 -416t-73.5 -542q0 -297 72.5 -545t219.5 -414z" />
    <glyph glyph-name="parenright" unicode=")" horiz-adv-x="620" 
d="M53 -270l-8 16q147 166 220 414.5t73 544.5q0 289 -73.5 542t-219.5 416l8 16q80 -42 162 -127.5t156.5 -207.5t122 -290.5t47.5 -348.5q0 -152 -31.5 -293.5t-82 -248t-116 -196t-130.5 -147t-128 -90.5z" />
    <glyph glyph-name="asterisk" unicode="*" horiz-adv-x="917" 
d="M395 907q0 28 23.5 116.5t32.5 145.5q-41 -33 -105.5 -97.5t-91.5 -78.5q-24 -16 -51.5 -12t-44.5 31q-15 29 -5.5 53t37.5 43q25 14 112.5 36t141.5 42q-53 20 -141 45t-113 39q-28 16 -38 41.5t6 54.5q16 26 44 30t52 -12q26 -16 90.5 -83t108.5 -103q-10 58 -35 150
t-25 122t18.5 53t47.5 23q31 0 48 -22.5t17 -53.5q0 -30 -23 -120.5t-32 -147.5q49 38 111 102t84 78q25 15 54.5 10.5t45.5 -30.5q14 -29 3.5 -54.5t-38.5 -41.5q-26 -14 -113.5 -37t-136.5 -41q53 -21 138.5 -44.5t109.5 -37.5q28 -16 38.5 -41.5t-3.5 -54.5
q-17 -27 -45 -31t-55 12q-24 14 -87 79.5t-104 100.5q9 -56 32 -145t23 -119q0 -31 -18 -54.5t-49 -23.5q-30 0 -47 23t-17 55z" />
    <glyph glyph-name="plus" unicode="+" horiz-adv-x="944" 
d="M82 700v66h360v369h68v-369h352v-66h-352v-368h-68v368h-360z" />
    <glyph glyph-name="comma" unicode="," horiz-adv-x="483" 
d="M381 109q0 -91 -65.5 -188t-184.5 -167l-14 17q109 116 149 239q-69 3 -114.5 42t-45.5 98q0 54 38.5 91.5t95.5 37.5q58 0 99.5 -49.5t41.5 -120.5z" />
    <glyph glyph-name="hyphen" unicode="-" horiz-adv-x="593" 
d="M74 547v86l446 82v-86z" />
    <glyph glyph-name="hyphen" unicode="&#x2011;" horiz-adv-x="593" 
d="M74 547v86l446 82v-86z" />
    <glyph glyph-name="hyphen" unicode="&#x2010;" horiz-adv-x="593" 
d="M74 547v86l446 82v-86z" />
    <glyph glyph-name="hyphen" unicode="&#xad;" horiz-adv-x="593" 
d="M74 547v86l446 82v-86z" />
    <glyph glyph-name="period" unicode="." horiz-adv-x="483" 
d="M242 -18q-57 0 -96.5 43.5t-39.5 103.5q0 63 39.5 106.5t96.5 43.5t97 -43.5t40 -106.5q0 -60 -40 -103.5t-97 -43.5z" />
    <glyph glyph-name="slash" unicode="/" horiz-adv-x="755" 
d="M653 1536l-469 -1751h-82l469 1751h82z" />
    <glyph glyph-name="zero" unicode="0" horiz-adv-x="1228" 
d="M90 768q0 217 69 400.5t190 291t267 107.5q145 0 265.5 -107t189 -290.5t68.5 -401.5t-69.5 -401.5t-190 -290.5t-263.5 -107q-106 0 -203.5 63.5t-168 170.5t-112.5 255t-42 310zM324 768q0 -220 32.5 -382.5t99 -255.5t160.5 -93t160 93t97.5 255.5t31.5 382.5
q0 223 -30 384t-96 254t-163 93t-163.5 -93.5t-97.5 -255t-31 -382.5z" />
    <glyph glyph-name="one" unicode="1" horiz-adv-x="589" 
d="M74 23q127 35 127 198v1004q0 65 -34 114t-93 66v22q89 14 176 51t145 89h8v-1346q0 -85 34.5 -134.5t90.5 -63.5v-23h-454v23z" />
    <glyph glyph-name="two" unicode="2" horiz-adv-x="1005" 
d="M926 1139q0 -76 -22 -155t-56.5 -148.5t-88 -144.5t-105 -135t-120 -129t-121 -117.5t-119.5 -109.5q-27 -24 -40 -36h250q281 0 438 205l12 -4l-110 -437h-10q-60 72 -191 72h-618v8l139 164q210 235 296 346q257 334 257 563q0 132 -80 216.5t-211 84.5
q-240 0 -369 -305l-24 6q16 119 61 212.5t109.5 152t142.5 89t164 30.5q176 0 296 -118t120 -310z" />
    <glyph glyph-name="three" unicode="3" horiz-adv-x="1032" 
d="M455 43q137 0 224 85.5t87 233.5q0 53 -13 103.5t-44 101t-78 90.5t-119 71.5t-162 45.5v21q162 100 234.5 181.5t72.5 178.5q0 112 -69.5 173t-173.5 61q-98 0 -177 -54t-126 -170l-27 6q31 191 151 293.5t275 102.5q135 0 232.5 -85.5t97.5 -224.5q0 -101 -68 -194.5
t-184 -169.5q170 -37 272.5 -165t102.5 -277q0 -131 -72 -242.5t-191 -175.5t-254 -64q-103 0 -188 23.5t-135.5 61t-77.5 80t-27 83.5q0 50 32 87.5t85 37.5q93 0 137 -145q23 -73 64.5 -113.5t118.5 -40.5z" />
    <glyph glyph-name="four" unicode="4" horiz-adv-x="1130" 
d="M879 233q0 -169 137 -210v-23h-471v23q133 40 133 210v195h-635v29l784 1093h52v-977h168v-145h-168v-195zM225 573h453v631z" />
    <glyph glyph-name="five" unicode="5" horiz-adv-x="1028" 
d="M25 217q0 54 34 94.5t86 40.5q61 0 94 -41t50 -114q17 -75 54.5 -114.5t115.5 -39.5q126 0 209.5 95t83.5 261q0 163 -77 266.5t-208.5 138t-302.5 3.5l-25 6l56 723h700l-21 -166h-616l-27 -362q134 19 246 1.5t201 -66.5t150.5 -119t94.5 -155.5t33 -176.5
q0 -140 -70 -260.5t-189.5 -191.5t-258.5 -71q-103 0 -185 23t-130 60t-73 79.5t-25 85.5z" />
    <glyph glyph-name="six" unicode="6" horiz-adv-x="1159" 
d="M586 -31q-101 0 -190.5 42.5t-158 121.5t-108 202t-39.5 275q-3 168 55.5 327.5t166 289t268 223.5t352.5 131l8 -29q-193 -75 -347 -234t-235 -386q110 102 252 102q129 0 236.5 -72.5t168 -194.5t60.5 -265t-63 -265t-176 -195t-250 -73zM309 502q0 -220 71.5 -342.5
t203.5 -122.5t201 122t69 343q0 222 -67 341.5t-203 119.5t-205.5 -120.5t-69.5 -340.5z" />
    <glyph glyph-name="seven" unicode="7" horiz-adv-x="937" 
d="M961 1528l-107 -189q-140 -240 -231.5 -617t-94.5 -722h-217q24 232 96.5 498t178 503.5t215.5 370.5h-350q-263 0 -412 -203l-12 5l104 434h10q60 -72 193 -72h627v-8z" />
    <glyph glyph-name="eight" unicode="8" horiz-adv-x="1136" 
d="M561 -31q-124 0 -232 47.5t-174.5 136.5t-66.5 199q0 288 338 422q-58 38 -100.5 75t-80.5 85.5t-57.5 108t-19.5 128.5q0 170 114 283t296 113q94 0 182 -40.5t147.5 -120t59.5 -177.5q0 -57 -19 -110.5t-49 -93.5t-68.5 -74t-75 -56t-71.5 -37q56 -33 91 -55t83 -56.5
t77 -66.5t57.5 -73t41.5 -89t13 -102q0 -124 -67.5 -227.5t-179 -161.5t-239.5 -58zM324 1270q0 -55 19 -105t46.5 -86t75.5 -75.5t87 -65t101 -61.5q146 149 146 321q0 129 -65 214t-185 85q-102 0 -163.5 -63t-61.5 -164zM258 397q0 -93 33.5 -172.5t107 -132.5t174.5 -53
q142 0 227 81.5t85 194.5q0 40 -11 76.5t-27 65.5t-44.5 59t-55 51.5t-67 48.5t-70.5 45t-76 45.5t-75 45.5q-95 -62 -148 -154t-53 -201z" />
    <glyph glyph-name="nine" unicode="9" horiz-adv-x="1159" 
d="M567 1567q101 0 190.5 -42t158 -121t108 -202.5t39.5 -275.5q3 -226 -98 -428t-295.5 -347.5t-448.5 -195.5l-8 29q192 75 346 234t234 386q-110 -102 -252 -102q-128 0 -235 72.5t-167.5 194.5t-60.5 265t63 265t176 195t250 73zM842 1034q0 221 -70.5 343t-202.5 122
q-133 0 -201.5 -121.5t-68.5 -343.5t67 -341.5t203 -119.5t204.5 120t68.5 341z" />
    <glyph glyph-name="colon" unicode=":" horiz-adv-x="518" 
d="M264 698q-56 0 -94.5 43.5t-38.5 104.5q0 63 38 106t95 43q58 0 97.5 -43t39.5 -106q0 -61 -39.5 -104.5t-97.5 -43.5zM264 -18q-56 0 -94.5 43t-38.5 104q0 63 38 106.5t95 43.5q58 0 97.5 -43.5t39.5 -106.5q0 -61 -39.5 -104t-97.5 -43z" />
    <glyph glyph-name="semicolon" unicode=";" horiz-adv-x="518" 
d="M264 698q-56 0 -94.5 43.5t-38.5 104.5q0 63 38 106t95 43q58 0 97.5 -43t39.5 -106q0 -61 -39.5 -104.5t-97.5 -43.5zM403 109q0 -92 -64.5 -189t-182.5 -166l-15 17q116 127 148 239q-68 3 -113 42t-45 98q0 54 38 91.5t95 37.5t98 -49.5t41 -120.5z" />
    <glyph glyph-name="less" unicode="&#x3c;" horiz-adv-x="944" 
d="M862 440v-71l-780 338v53l780 338v-72l-682 -293z" />
    <glyph glyph-name="equal" unicode="=" horiz-adv-x="944" 
d="M82 905v66h780v-66h-780zM82 496v65h780v-65h-780z" />
    <glyph glyph-name="greater" unicode="&#x3e;" horiz-adv-x="944" 
d="M82 438l682 295l-682 295v70l780 -338v-53l-780 -338v69z" />
    <glyph glyph-name="question" unicode="?" horiz-adv-x="1013" 
d="M778 1200q0 138 -82.5 218.5t-208.5 80.5q-74 0 -117 -37t-69 -104q-25 -73 -57.5 -111.5t-89.5 -38.5q-53 0 -85 34.5t-32 82.5q0 92 107 167t292 75q211 0 359.5 -132t148.5 -325q0 -171 -124.5 -300.5t-327.5 -164.5q-57 -20 -82.5 -50t-24.5 -89l4 -82h-74l-18 215
q-7 79 26.5 127.5t110.5 71.5q159 26 251.5 123t92.5 239zM360 -20q-56 0 -93.5 40.5t-37.5 96.5q0 59 37 99t94 40t96.5 -40.5t39.5 -98.5q0 -56 -39.5 -96.5t-96.5 -40.5z" />
    <glyph glyph-name="at" unicode="@" horiz-adv-x="1708" 
d="M76 483q0 221 62 422.5t170 352.5t266.5 241t340.5 90q154 0 285.5 -55.5t228 -157t151 -254t54.5 -338.5q0 -159 -41.5 -296.5t-125 -225.5t-191.5 -88q-74 0 -130 44.5t-77 113.5q-137 -164 -281 -164q-123 0 -213 115t-90 286q0 144 56.5 268.5t157 199.5t221.5 75
q133 0 208 -100l89 98h16v-719q0 -45 31 -78.5t77 -33.5q50 0 97 65.5t77.5 183t30.5 254.5q0 174 -46.5 314t-130 233t-199.5 143t-255 50t-255 -55.5t-194 -146t-132 -209t-78.5 -242.5t-24.5 -248q0 -195 49.5 -353.5t139 -265t215 -164t276.5 -57.5q278 0 484 211
l12 -15q-33 -66 -87.5 -126t-128 -110t-171.5 -80t-205 -30q-157 0 -294.5 65.5t-235 178.5t-153.5 271t-56 337zM1063 395v488q0 76 -37.5 121.5t-99.5 44.5q-116 1 -190 -117t-74 -295q0 -156 56.5 -247t158.5 -91q96 0 186 96z" />
    <glyph glyph-name="A" unicode="A" horiz-adv-x="1296" 
d="M160 268l463 1278h47l473 -1274q43 -115 83.5 -170.5t92.5 -78.5v-23h-467v23q38 15 62 47t30 83.5t-20 120.5l-93 256h-493l-88 -260q-30 -89 10 -153.5t107 -93.5v-23h-396v23q49 19 102.5 87t86.5 158zM365 606h438l-223 623z" />
    <glyph glyph-name="B" unicode="B" horiz-adv-x="1282" 
d="M199 1298q0 70 -33.5 121t-95.5 76v21q285 40 499 40q258 0 403.5 -86t145.5 -237q0 -76 -32 -140t-87.5 -109t-123 -75.5t-144.5 -46.5q96 -16 181 -51.5t155 -89.5t111 -133t41 -172q0 -198 -163 -317t-456 -119q-224 0 -530 40v21q62 24 95.5 76.5t33.5 122.5v1058z
M602 1489q-99 0 -151 -44.5t-52 -131.5v-416h160q162 0 255 80.5t93 224.5q0 132 -85.5 209.5t-219.5 77.5zM399 223q0 -88 57.5 -133t168.5 -45q165 0 263.5 106.5t98.5 286.5q0 185 -112.5 286t-315.5 101h-160v-602z" />
    <glyph glyph-name="C" unicode="C" horiz-adv-x="1218" 
d="M666 -31q-118 0 -225 56.5t-187 155.5t-127 242t-47 306q0 231 93 423.5t253.5 303.5t353.5 111q186 0 377 -80l-143 -393h-19q-33 183 -121 277.5t-215 94.5q-112 0 -200 -77t-136.5 -215t-48.5 -312q0 -310 130 -504t348 -194q272 0 399 299l25 -10q-46 -230 -186 -357
t-324 -127z" />
    <glyph glyph-name="D" unicode="D" horiz-adv-x="1394" 
d="M557 -20q-200 0 -487 40v23q62 23 95.5 76.5t33.5 126.5v1057q0 62 -34 115t-95 77v21q242 40 460 40q186 0 335 -57t247 -161t150.5 -249.5t52.5 -322.5q0 -161 -40.5 -293.5t-111 -222.5t-167.5 -152t-207 -90t-232 -28zM592 53q247 0 368 158.5t121 519.5
q0 358 -129 555t-372 197q-92 0 -135.5 -45.5t-43.5 -139.5v-1040q0 -99 49 -152t142 -53z" />
    <glyph glyph-name="E" unicode="E" horiz-adv-x="1243" 
d="M70 1536h839q97 0 138 51h18l63 -416l-20 -4q-91 158 -209 230.5t-295 72.5q-205 0 -205 -174v-417h326q95 0 159 36t99 123h18v-401h-18q-92 168 -256 168h-328v-559q0 -87 56 -133.5t155 -46.5q192 0 326.5 82t237.5 249l18 -2l-98 -446h-23q-43 51 -129 51h-872v23
q61 18 95 70.5t34 137.5v1076q0 81 -33.5 136.5t-95.5 72.5v20z" />
    <glyph glyph-name="F" unicode="F" horiz-adv-x="1153" 
d="M70 23q61 18 95 70.5t34 137.5v1076q0 81 -33.5 136.5t-95.5 72.5v20h827q94 0 135 51h17l65 -416l-20 -4q-90 155 -202.5 229t-264.5 74q-123 0 -174.5 -43t-51.5 -133v-415h310q95 0 159 36t101 123h16v-401h-16q-91 166 -258 166h-312v-572q0 -85 34.5 -137.5
t94.5 -70.5v-23h-460v23z" />
    <glyph glyph-name="G" unicode="G" horiz-adv-x="1378" 
d="M768 -20q-109 0 -208.5 29.5t-187.5 92t-152.5 152t-102 218.5t-37.5 284q0 239 82.5 421.5t243 286t378.5 103.5q180 0 410 -74l-117 -340h-14q-35 156 -126 244t-230 88q-396 0 -396 -703q0 -366 112 -548.5t322 -182.5q113 0 175.5 52t62.5 143v456q0 79 -34.5 134.5
t-96.5 74.5v21h463v-21q-62 -19 -95.5 -74t-33.5 -135v-466q0 -79 25.5 -130t72.5 -63v-23q-242 -40 -516 -40z" />
    <glyph glyph-name="H" unicode="H" horiz-adv-x="1419" 
d="M530 0h-460v23q59 15 94 71t35 137v1076q0 76 -34 133.5t-95 75.5v20h460v-20q-60 -18 -94.5 -76.5t-34.5 -132.5v-340h615v340q0 74 -34 132.5t-93 76.5v20h459v-20q-60 -18 -94.5 -76t-34.5 -133v-1076q0 -81 35.5 -137t93.5 -71v-23h-459v23q57 15 92 71.5t35 136.5
v662h-615v-662q0 -81 35 -137t94 -71v-23z" />
    <glyph glyph-name="I" unicode="I" horiz-adv-x="604" 
d="M532 0h-460v23q59 15 94 70t35 138v1076q0 76 -34.5 133.5t-94.5 75.5v20h460v-20q-62 -18 -95.5 -75t-33.5 -134v-1076q0 -83 35.5 -138t93.5 -70v-23z" />
    <glyph glyph-name="J" unicode="J" horiz-adv-x="927" 
d="M344 -31q-88 0 -158 21.5t-111 55.5t-62 73t-21 78q0 52 32.5 88.5t86.5 36.5q101 0 137 -144q15 -71 44 -107t87 -36q77 0 128.5 88.5t51.5 259.5v911q0 85 -35 144t-98 78v20h453v-20q-56 -15 -86.5 -74.5t-30.5 -147.5v-911q0 -100 -33 -180t-91 -130.5t-133 -77
t-161 -26.5z" />
    <glyph glyph-name="K" unicode="K" horiz-adv-x="1333" 
d="M528 0h-458v23q59 15 94 70t35 138v1076q0 78 -33.5 134.5t-95.5 74.5v20h458v-20q-60 -18 -94.5 -75.5t-34.5 -133.5v-539l471 516q60 67 54 134t-78 98v20h422v-20q-147 -62 -344 -283l-219 -242l448 -778q87 -153 172 -188v-25h-430v25q42 22 57 50t8 59.5t-32 76.5
l-369 623l-160 -177v-426q0 -83 35.5 -138t93.5 -70v-23z" />
    <glyph glyph-name="L" unicode="L" horiz-adv-x="1075" 
d="M819 0h-749v23q61 17 95 71.5t34 136.5v1076q0 84 -34 137.5t-95 71.5v20h460v-20q-61 -17 -95 -72t-34 -137v-1065q0 -176 164 -176q151 0 263.5 79.5t213.5 243.5l19 -2l-90 -438h-23q-40 51 -129 51z" />
    <glyph glyph-name="M" unicode="M" horiz-adv-x="1800" 
d="M567 1536l330 -1118l356 1118h340v-20q-61 -25 -93 -80t-23 -121l145 -1122q15 -119 127 -170v-23h-438v23q55 24 85 69t23 101l-147 1134l-424 -1347h-33l-401 1355l-146 -1095q-10 -76 19.5 -135.5t83.5 -81.5v-23h-322v23q55 25 90.5 81.5t46.5 135.5l146 1077
q9 66 -23 120t-94 79v20h352z" />
    <glyph glyph-name="N" unicode="N" horiz-adv-x="1325" 
d="M1149 -41h-21l-849 1329v-1034q0 -88 37 -149t100 -82v-23h-350v23q62 20 97.5 81t35.5 150v1051q0 72 -34 131.5t-93 79.5v20h295l702 -1108v856q0 83 -34.5 148t-98.5 84v20h332v-20q-57 -18 -88 -82.5t-31 -149.5v-1325z" />
    <glyph glyph-name="O" unicode="O" horiz-adv-x="1396" 
d="M80 768q0 218 80 401t223 290.5t317 107.5q130 0 245 -63t196.5 -170.5t128.5 -254.5t47 -311q0 -218 -81 -401.5t-223 -290.5t-313 -107q-170 0 -313 107.5t-225 291t-82 400.5zM313 768q0 -332 100.5 -528.5t286.5 -196.5q123 0 210.5 92t130 253.5t42.5 379.5
q0 336 -96.5 530.5t-286.5 194.5q-128 0 -216 -92.5t-129.5 -253t-41.5 -379.5z" />
    <glyph glyph-name="P" unicode="P" horiz-adv-x="1218" 
d="M70 1516q288 40 534 40q255 0 412.5 -135t157.5 -352q0 -129 -50 -232.5t-133 -166.5t-184 -96t-211 -33q-92 0 -197 30v-340q0 -80 34 -135.5t95 -72.5v-23h-458v23q62 15 95.5 70t33.5 138v1065q0 77 -33 128.5t-96 70.5v21zM399 1305v-670q93 -19 162 -19
q186 0 286.5 108t100.5 308q0 204 -99 330.5t-253 126.5q-94 0 -145.5 -47.5t-51.5 -136.5z" />
    <glyph glyph-name="Q" unicode="Q" horiz-adv-x="1386" 
d="M80 768q0 218 80 401t223 290.5t317 107.5q130 0 245 -63t196.5 -170.5t128.5 -254.5t47 -311q0 -225 -86 -411.5t-232 -288.5q95 -175 228 -320l-10 -10q-186 88 -343 262q-85 -31 -174 -31q-170 0 -313 107.5t-225 291t-82 400.5zM653 346h221q28 -82 72 -172
q137 193 137 594q0 336 -96.5 530.5t-286.5 194.5q-128 0 -216 -92.5t-129.5 -253t-41.5 -379.5q0 -332 100.5 -528.5t286.5 -196.5q61 0 119 25q-95 123 -166 278z" />
    <glyph glyph-name="R" unicode="R" horiz-adv-x="1243" 
d="M70 1516q266 40 503 40q261 0 415.5 -124t154.5 -328q0 -94 -31 -174t-85 -136.5t-122 -94.5t-147 -58q87 -199 232 -402t298 -337l-10 -19q-236 91 -430.5 284t-308.5 460q-73 6 -140 24v-420q0 -80 34 -135.5t95 -72.5v-23h-458v23q62 15 95.5 70t33.5 138v1065
q0 77 -33 128.5t-96 70.5v21zM399 1296v-583q84 -17 156 -17q176 0 269.5 98t93.5 279q0 186 -90.5 301t-229.5 115q-92 0 -145.5 -51t-53.5 -142z" />
    <glyph glyph-name="S" unicode="S" horiz-adv-x="1165" 
d="M1085 446q0 -207 -154 -342t-403 -135q-123 0 -259.5 32.5t-243.5 76.5l143 364h22q27 -182 131 -285.5t269 -103.5q156 0 252 88t96 215q0 42 -11.5 78.5t-27 63.5t-47 54t-55.5 44t-69.5 38.5t-73 33t-79.5 32.5q-48 19 -72.5 29t-69 29.5t-69.5 34t-61.5 38t-57 44.5
t-45 51.5t-37 62t-21.5 71t-9 83.5q0 185 134.5 304.5t355.5 119.5q190 0 397 -62l-102 -336h-23q-26 146 -118.5 230t-227.5 84q-116 0 -192 -69t-76 -183q0 -51 20 -93.5t49.5 -72.5t79.5 -59t93.5 -48t107.5 -45l45 -18q50 -20 87.5 -36.5t82.5 -41t77.5 -49t64.5 -59
t52 -72.5t32.5 -86.5t12.5 -104.5z" />
    <glyph glyph-name="T" unicode="T" horiz-adv-x="1179" 
d="M240 1536h702q89 0 133 51h17l77 -416l-22 -4q-87 151 -166 226t-164 75q-125 0 -125 -106v-1141q0 -151 123 -198v-23h-450v23q124 46 124 198v1141q0 106 -124 106q-86 0 -164.5 -74.5t-167.5 -226.5l-23 4l78 416h18q42 -51 134 -51z" />
    <glyph glyph-name="U" unicode="U" horiz-adv-x="1355" 
d="M377 459q0 -180 97 -283t259 -106q158 -2 256 98t98 289v798q0 94 -40.5 165.5t-112.5 95.5v20h371v-20q-64 -20 -99 -92t-35 -169v-798q0 -231 -135.5 -358.5t-347.5 -127.5q-228 0 -370 128.5t-142 357.5v850q0 86 -29.5 140t-85.5 69v20h443v-20q-127 -39 -127 -209
v-848z" />
    <glyph glyph-name="V" unicode="V" horiz-adv-x="1263" 
d="M1108 1264l-453 -1274h-47l-465 1267q-79 214 -180 259v20h483v-20q-68 -31 -92 -96t8 -163l334 -931l320 936q29 82 -7 151.5t-110 102.5v20h393v-20q-112 -48 -184 -252z" />
    <glyph glyph-name="W" unicode="W" horiz-adv-x="1853" 
d="M1694 1264l-400 -1274h-47l-319 1036l-318 -1036h-49l-403 1270q-37 116 -79 174t-93 82v20h471v-20q-143 -68 -84 -259l274 -903l240 807l-31 99q-35 117 -78.5 173.5t-99.5 82.5v20h471v-20q-37 -18 -60 -50t-30.5 -85t14.5 -124l262 -905l275 910q28 91 -12 157.5
t-107 96.5v20h379v-20q-47 -22 -96.5 -88.5t-79.5 -163.5z" />
    <glyph glyph-name="X" unicode="X" horiz-adv-x="1320" 
d="M-6 0v23q48 15 118.5 88.5t129.5 167.5l315 507l-291 490q-129 209 -219 240v20h494v-20q-72 -19 -83 -83.5t44 -156.5l211 -354l209 356q55 94 41.5 156t-89.5 82v20h377v-20q-54 -16 -116.5 -82.5t-118.5 -159.5l-256 -432l334 -561q134 -232 225 -258v-23h-490v23
q71 19 80.5 86t-51.5 172l-254 426l-266 -428q-58 -92 -48 -164.5t81 -91.5v-23h-377z" />
    <glyph glyph-name="Y" unicode="Y" horiz-adv-x="1208" 
d="M709 221q0 -156 120 -198v-23h-448v23q125 46 125 198v391l-344 645q-118 218 -211 259v20h520v-20q-76 -32 -99.5 -101t21.5 -158l285 -532l272 537q37 83 4.5 151t-114.5 103v20h401v-20q-45 -21 -99 -89.5t-104 -162.5l-329 -648v-395z" />
    <glyph glyph-name="Z" unicode="Z" horiz-adv-x="1167" 
d="M1141 375l-99 -436h-20q-46 61 -150 61h-827v25l793 1439h-283q-141 0 -247.5 -67t-215.5 -209l-16 4l65 395h17q40 -51 145 -51h795v-20l-793 -1444h309q156 0 276.5 79t229.5 228z" />
    <glyph glyph-name="bracketleft" unicode="[" horiz-adv-x="614" 
d="M322 1573v-1733h229v-65h-416v1863h416v-65h-229z" />
    <glyph glyph-name="backslash" unicode="\" horiz-adv-x="755" 
d="M102 1536h82l469 -1751h-82z" />
    <glyph glyph-name="bracketright" unicode="]" horiz-adv-x="614" 
d="M293 1575h-230v63h414v-1863h-414v65h230v1735z" />
    <glyph glyph-name="asciicircum" unicode="^" horiz-adv-x="958" 
d="M182 1128l207 357q30 50 92.5 48.5t89.5 -48.5l211 -357l-14 -10l-283 232h-10l-280 -232z" />
    <glyph glyph-name="underscore" unicode="_" horiz-adv-x="956" 
d="M74 -231v86h809v-86h-809z" />
    <glyph glyph-name="grave" unicode="`" horiz-adv-x="1216" 
d="M508 1554q31 -34 89.5 -150t117.5 -208l-17 -14q-81 67 -189 143.5t-138 110.5q-29 33 -30 73.5t30 67.5q39 25 73.5 17t63.5 -40z" />
    <glyph glyph-name="a" unicode="a" horiz-adv-x="1001" 
d="M63 211q0 71 37 136.5t108 120.5t182.5 94.5t252.5 55.5v256q0 62 -32.5 99t-94.5 37q-54 0 -91.5 -28.5t-57 -69t-38 -80.5t-48 -68.5t-72.5 -28.5q-38 0 -63 26t-25 66q0 60 56.5 116.5t154.5 92t209 35.5q136 0 214.5 -57t78.5 -162q0 -83 -2.5 -333t-2.5 -353
q0 -44 19 -68t53 -24q45 0 88 37l12 -17q-29 -54 -84.5 -87.5t-113.5 -33.5q-69 0 -116 43t-46 127v11h-2q-156 -183 -330 -183q-105 0 -175.5 67.5t-70.5 172.5zM262 270q0 -79 39 -124.5t105 -45.5q126 0 235 103q0 241 2 364q-206 -36 -293.5 -112.5t-87.5 -184.5z" />
    <glyph glyph-name="b" unicode="b" horiz-adv-x="1083" 
d="M256 96l-92 -112h-21v1294q0 81 -23.5 126.5t-76.5 65.5v21q76 10 147 45.5t123 87.5h19v-647q0 -71 -2 -100h2q58 80 144 138t177 58q144 0 249.5 -135t105.5 -334q0 -167 -62 -309t-178.5 -228.5t-261.5 -86.5q-76 0 -142.5 30.5t-107.5 85.5zM807 530
q-2 183 -69.5 290t-186.5 108q-115 0 -219 -113v-573q0 -91 47.5 -145.5t126.5 -53.5q133 -1 218 139t83 348z" />
    <glyph glyph-name="c" unicode="c" horiz-adv-x="888" 
d="M575 1069q143 0 263 -49l-107 -318h-20q-20 136 -82.5 209.5t-147.5 73.5q-108 0 -173.5 -104.5t-65.5 -272.5q0 -217 85 -351t234 -134q87 0 157.5 52t112.5 142l21 -10q-36 -162 -139.5 -250t-239.5 -88q-76 0 -148.5 37t-129 102t-91 163t-34.5 212q0 164 64.5 298
t180.5 211t260 77z" />
    <glyph glyph-name="d" unicode="d" horiz-adv-x="1095" 
d="M428 -31q-93 0 -174.5 60.5t-130.5 169t-49 239.5q0 167 63.5 309.5t181.5 229t265 86.5q73 0 164 -31v246q0 149 -115 192v21q173 25 287 133h18v-1335q0 -87 23 -132.5t77 -64.5v-16q-150 -24 -272 -111h-16v103q0 67 2 96l-4 2q-61 -82 -145.5 -139.5t-174.5 -57.5z
M532 117q114 0 216 108v576q0 90 -44.5 143.5t-121.5 52.5q-135 1 -221.5 -138.5t-84.5 -344.5q0 -183 68.5 -290t187.5 -107z" />
    <glyph glyph-name="e" unicode="e" horiz-adv-x="958" 
d="M252 586q0 -213 91.5 -339t236.5 -126q88 0 161 44t117 124l23 -13q-42 -141 -148.5 -224t-234.5 -83q-82 0 -158 34t-136 97t-96 162t-36 219q0 161 60 297t166 215.5t234 79.5q157 0 259 -118.5t102 -301.5v-43h-641v-24zM489 999q-87 0 -152 -82t-81 -239h442
q-2 143 -59 232t-150 89z" />
    <glyph glyph-name="f" unicode="f" horiz-adv-x="624" 
d="M84 23q52 21 83.5 70.5t31.5 115.5v760h-162v73h162v191q0 173 88 281t217 108q76 0 136 -41t60 -106q0 -41 -24.5 -68t-63.5 -27q-33 0 -58 21t-38.5 45.5t-39.5 45.5t-60 21q-55 0 -86 -50.5t-31 -155.5v-2q0 -86 31.5 -166t75.5 -97h180v-73h-197v-762
q0 -67 30.5 -115.5t78.5 -68.5v-23h-414v23z" />
    <glyph glyph-name="g" unicode="g" horiz-adv-x="1019" 
d="M481 -440q-84 0 -162 14.5t-144 43t-106 77t-40 110.5q0 85 93 152.5t228 95.5q-164 59 -200 166l2 17q150 66 233 157q-127 25 -210 118.5t-83 215.5q0 138 109.5 239t263.5 101q156 0 268 -104q40 66 96 108.5t111 42.5q42 0 71 -28t29 -72q0 -41 -26 -70t-62 -29
q-33 0 -68 31t-53 31q-29 0 -69 -43q80 -96 80 -207q0 -141 -111 -241.5t-266 -100.5h-21q-67 -63 -67 -98q0 -29 34 -50t87.5 -35t119 -28t131 -35t119 -50.5t87.5 -80.5t34 -119q0 -98 -71.5 -174.5t-186.5 -115.5t-250 -39zM283 727q0 -128 47.5 -202t134.5 -74
q89 0 137.5 74t48.5 202q0 131 -46.5 202.5t-139.5 71.5q-90 0 -136 -72.5t-46 -201.5zM188 -178q0 -91 88.5 -143.5t233.5 -49.5q137 1 228 56.5t91 134.5q0 36 -18 64.5t-43.5 46t-71.5 34t-81.5 24.5t-96 21.5t-94.5 22.5q-115 -26 -175.5 -81t-60.5 -130z" />
    <glyph glyph-name="h" unicode="h" horiz-adv-x="1114" 
d="M63 23q48 22 74.5 69.5t26.5 114.5v1077q0 78 -25 122t-82 64v21q172 26 279 133h18v-672q0 -73 -4 -131l2 -2q85 101 199.5 177.5t212.5 76.5q92 0 144.5 -64.5t52.5 -170.5v-631q0 -67 23.5 -115.5t66.5 -68.5v-23h-385v23q104 58 104 182v553q0 75 -30.5 117t-90.5 43
q-119 3 -295 -150v-563q0 -115 99 -182v-23h-390v23z" />
    <glyph glyph-name="i" unicode="i" horiz-adv-x="528" 
d="M256 1247q-51 0 -86 38.5t-35 94.5q0 57 35 96.5t86 39.5q54 0 89.5 -39.5t35.5 -96.5q0 -56 -35.5 -94.5t-89.5 -38.5zM72 0v20q50 19 77 67.5t27 121.5v524q0 75 -22.5 124.5t-83.5 68.5v20q169 25 280 133h19v-870q0 -72 24.5 -121t67.5 -68v-20h-389z" />
    <glyph glyph-name="j" unicode="j" horiz-adv-x="509" 
d="M129 1380q0 57 34.5 96.5t86.5 39.5t88.5 -39.5t36.5 -96.5q0 -56 -36.5 -94.5t-88.5 -38.5t-86.5 38.5t-34.5 94.5zM-131 -281q0 42 24 71.5t62 29.5q32 0 58 -21t41 -45.5t41 -45.5t59 -21q45 0 73.5 41t28.5 104q0 56 -24.5 109.5t-61.5 83.5v708q0 160 -107 193v20
q80 12 154.5 47t126.5 86h16v-1153q0 -157 -87.5 -258.5t-211.5 -101.5q-78 0 -135 42t-57 111z" />
    <glyph glyph-name="k" unicode="k" horiz-adv-x="1019" 
d="M354 1624v-1094l285 318q49 60 39.5 104t-66.5 70v20h361v-20q-119 -48 -256 -201l-142 -153l291 -473q89 -147 148 -172v-23h-379v23q92 33 10 172l-201 329l-90 -100v-215q0 -71 26 -119t71 -67v-23h-377v23q42 18 66 65.5t24 118.5v1071q0 79 -25.5 125.5t-81.5 66.5
v21q80 12 153.5 47t125.5 86h18z" />
    <glyph glyph-name="l" unicode="l" horiz-adv-x="514" 
d="M356 1624v-1413q0 -72 26 -120.5t71 -67.5v-23h-379v23q43 17 66.5 66t23.5 122v1067q0 156 -107 192v21q80 12 154.5 47t126.5 86h18z" />
    <glyph glyph-name="m" unicode="m" horiz-adv-x="1693" 
d="M68 23q108 49 108 188v528q0 83 -24.5 125t-83.5 62v20q170 26 280 133h17v-123q0 -90 -3 -133l3 -2q84 102 191 177t198 75q93 0 145.5 -64t52.5 -169v-19q83 101 191.5 176.5t199.5 75.5q92 0 144.5 -64.5t52.5 -170.5v-627q0 -146 92 -188v-23h-383v23q103 59 103 186
v549q0 75 -31 117t-90 43q-102 3 -279 -146v-563q0 -139 92 -186v-23h-382v23q102 58 102 186v549q0 75 -31.5 117t-93.5 43q-97 3 -274 -146v-563q0 -125 104 -186v-23h-401v23z" />
    <glyph glyph-name="n" unicode="n" horiz-adv-x="1126" 
d="M68 23q108 49 108 188v528q0 83 -24.5 125t-83.5 62v20q173 26 280 133h17v-123q0 -90 -3 -133l3 -2q84 102 197.5 177t211.5 75q92 0 145.5 -64.5t53.5 -170.5v-627q0 -147 90 -188v-23h-383v23q53 30 77.5 74t24.5 112v549q0 157 -120 160q-118 3 -297 -146v-563
q0 -125 104 -186v-23h-401v23z" />
    <glyph glyph-name="o" unicode="o" horiz-adv-x="1058" 
d="M72 524q0 113 35.5 215t96 175t145.5 116t179 43q127 0 232.5 -72.5t166 -198.5t60.5 -278t-62 -280t-167.5 -201.5t-229.5 -73.5t-229 74t-166 202t-61 279zM281 524q0 -220 65 -354.5t182 -134.5q79 0 136 63t85.5 172.5t28.5 253.5q0 220 -64 352t-186 132
q-120 0 -183.5 -132.5t-63.5 -351.5z" />
    <glyph glyph-name="p" unicode="p" horiz-adv-x="1097" 
d="M63 -410v23q48 19 72.5 61.5t24.5 124.5v934q0 85 -23 129t-78 64v20q164 26 271 133h18v-110q0 -63 -2 -92l2 -3q62 83 147 141t175 58q144 0 249 -135t105 -334q0 -166 -64 -307.5t-183 -228t-267 -86.5q-72 0 -160 30v-213q0 -81 26 -123t75 -63v-23h-388zM821 530
q-2 183 -69.5 290.5t-186.5 107.5q-114 0 -215 -113v-573q0 -90 43.5 -143t118.5 -52q137 -1 224 137t85 346z" />
    <glyph glyph-name="q" unicode="q" 
d="M649 -410v21q101 50 101 186v271q0 69 2 96l-4 2q-59 -80 -144.5 -137.5t-175.5 -57.5q-144 0 -249 134.5t-105 332.5q0 167 65 310.5t181.5 230t257.5 86.5q156 0 247 -117l99 113h18v-1264q0 -141 98 -186v-21h-391zM532 117q114 0 216 108v576q0 91 -43.5 145
t-118.5 53q-136 1 -224 -138.5t-86 -346.5q2 -184 69.5 -290.5t186.5 -106.5z" />
    <glyph glyph-name="r" unicode="r" horiz-adv-x="761" 
d="M365 954q0 -49 -5 -94l5 -2q46 89 119 152t145 63q53 0 90 -37.5t37 -93.5q0 -51 -30.5 -84t-70.5 -33q-33 0 -60.5 20.5t-53 41t-52.5 20.5q-30 0 -58.5 -23.5t-65.5 -72.5v-600q0 -131 108 -188v-23h-405v23q108 50 108 188v528q0 83 -24.5 125t-83.5 62v20
q169 26 280 133h17v-125z" />
    <glyph glyph-name="s" unicode="s" horiz-adv-x="876" 
d="M811 313q0 -154 -117.5 -248t-300.5 -94q-162 0 -354 70l108 281h17q22 -133 107.5 -204t199.5 -71q92 0 150.5 51t58.5 131q0 34 -14 62.5t-34 48t-55.5 38t-65 30t-75.5 28.5q-19 7 -28 10q-53 19 -88 34.5t-79 42.5t-69.5 57t-44 76t-18.5 102q0 136 106.5 225.5
t280.5 89.5q133 0 256 -45l-70 -252h-18q-23 104 -91.5 164.5t-154.5 60.5q-80 0 -129 -47.5t-49 -115.5q0 -18 4.5 -34.5t10.5 -30t19.5 -26.5t23 -22.5t30 -20.5t32.5 -17.5t37.5 -17t38.5 -15.5t42.5 -15.5t41.5 -15.5q50 -19 86 -35t77.5 -43.5t67 -57.5t43 -75
t17.5 -99z" />
    <glyph glyph-name="t" unicode="t" horiz-adv-x="679" 
d="M164 166v803h-152v26q103 60 181.5 144.5t146.5 199.5h18v-297h279v-73h-279v-744q0 -60 31 -94.5t88 -34.5q81 0 178 72l17 -23q-57 -79 -136 -127.5t-167 -48.5q-86 0 -145.5 53.5t-59.5 143.5z" />
    <glyph glyph-name="u" unicode="u" horiz-adv-x="1097" 
d="M745 92q0 88 3 135h-3q-84 -104 -192.5 -180t-204.5 -76q-92 0 -144 64.5t-52 171.5v528q0 76 -21 122.5t-74 68.5v20q75 10 146.5 45.5t124.5 87.5h14v-792q0 -164 121 -164q106 -6 282 153v449q0 83 -22.5 133t-77.5 68v20q75 12 148 47t127 86h14v-796
q0 -85 23.5 -127.5t78.5 -63.5v-20q-166 -26 -272 -107h-19v127z" />
    <glyph glyph-name="v" unicode="v" horiz-adv-x="933" 
d="M817 797l-328 -817h-32l-346 831q-46 109 -76 155t-70 60v16h424v-16q-63 -25 -80 -79t15 -138l211 -528l200 524q30 90 9 148t-72 73v16h295v-16q-69 -27 -150 -229z" />
    <glyph glyph-name="w" unicode="w" horiz-adv-x="1423" 
d="M1307 801l-303 -821h-33l-254 663l-246 -663h-33l-327 837q-37 93 -68.5 140.5t-73.5 68.5v16h398v-16q-55 -25 -69.5 -79.5t15.5 -131.5l197 -524l164 467l-27 69q-64 165 -127 199v16h387v-16q-116 -53 -59 -211l194 -532l183 526q21 60 15.5 106t-26.5 74t-53 37v16
h293v-16q-80 -42 -147 -225z" />
    <glyph glyph-name="x" unicode="x" horiz-adv-x="1007" 
d="M18 0v16q41 16 93 70t88 107l207 317l-220 350q-86 139 -149 166v16h403v-16q-108 -37 -28 -166l133 -213l133 215q72 124 -39 164v16h297v-16q-47 -17 -92 -64.5t-78 -101.5l-176 -282l239 -383q56 -88 89.5 -126t70.5 -53v-16h-397v16q43 19 49 63t-37 116l-155 247
l-160 -249q-34 -54 -25 -106.5t53 -70.5v-16h-299z" />
    <glyph glyph-name="y" unicode="y" horiz-adv-x="944" 
d="M131 -436q-71 0 -125.5 41.5t-54.5 101.5q0 48 30 78.5t72 30.5q32 0 55.5 -20t35 -43.5t31.5 -43.5t44 -20q96 2 182 241l39 101l-323 778q-39 98 -71.5 146t-74.5 71v16h422v-16q-129 -69 -65 -217l211 -522l202 522q28 76 9.5 132.5t-72.5 84.5v16h295v-16
q-36 -20 -75.5 -81.5t-70.5 -133.5l-364 -913q-68 -170 -147 -252t-185 -82z" />
    <glyph glyph-name="z" unicode="z" horiz-adv-x="913" 
d="M879 307l-60 -364h-22q-27 30 -60.5 43.5t-87.5 13.5h-600v23l537 952h-142q-116 0 -189 -55t-159 -187l-18 4l59 365h19q51 -60 151 -60h531v-20l-539 -954h225q108 0 185.5 60t148.5 181z" />
    <glyph glyph-name="braceleft" unicode="{" horiz-adv-x="620" 
d="M115 41q0 68 32.5 145t71 133t71 119t32.5 107q0 59 -54.5 96.5t-173.5 40.5v70q109 10 168.5 55.5t59.5 107.5q0 36 -21.5 78.5t-52 84t-60.5 86t-51.5 99t-21.5 107.5q0 115 95 191.5t234 76.5h105v-65h-103q-75 0 -123.5 -39t-48.5 -98q0 -38 27.5 -98.5t60 -116
t60 -127t27.5 -129.5q0 -87 -57 -148.5t-152 -85.5v-6q110 -27 159.5 -89.5t49.5 -166.5q0 -59 -27.5 -134t-60 -133t-60 -121.5t-27.5 -103.5q0 -59 48.5 -98t123.5 -39h103v-65h-105q-139 0 -234 75.5t-95 190.5z" />
    <glyph glyph-name="bar" unicode="|" horiz-adv-x="724" 
d="M324 1536h77v-1751h-77v1751z" />
    <glyph glyph-name="braceright" unicode="}" horiz-adv-x="620" 
d="M508 41q0 -114 -97 -190t-235 -76h-104v65h102q76 0 124 39t48 98q0 40 -27 103.5t-60 121.5t-60 133t-27 134q0 104 49.5 166.5t161.5 89.5v6q-96 24 -153.5 85.5t-57.5 148.5q0 58 27 129.5t60 127t60 116t27 98.5q0 59 -48 98t-124 39h-102v65h104q138 0 235 -76.5
t97 -191.5q0 -53 -21.5 -107.5t-52 -99t-61.5 -86t-52.5 -84t-21.5 -78.5q0 -62 58.5 -107.5t166.5 -55.5v-70q-118 -3 -171.5 -40.5t-53.5 -96.5q0 -36 21.5 -83t52.5 -94.5t61.5 -98.5t52 -111.5t21.5 -116.5z" />
    <glyph glyph-name="asciitilde" unicode="~" horiz-adv-x="958" 
d="M578 614q-38 0 -76 22t-64 49t-56.5 49t-55.5 22q-72 0 -111 -127l-16 4q9 131 56.5 199.5t125.5 68.5q38 0 76 -22.5t63.5 -49t56 -49t56.5 -22.5q40 0 69 34t41 99l17 -4q-9 -133 -56.5 -203t-125.5 -70z" />
    <glyph glyph-name="exclamdown" unicode="&#xa1;" horiz-adv-x="673" 
d="M457 1020q0 -59 -37 -99t-94 -40q-56 0 -96 40.5t-40 98.5q0 56 40.5 96.5t95.5 40.5q56 0 93.5 -40.5t37.5 -96.5zM459 -276q0 -75 -35 -129t-96 -54t-96 54t-35 129q0 81 17 196t37 219.5t37 261.5t17 312h45q1 -156 18 -313t37 -261t37 -219t17 -196z" />
    <glyph glyph-name="cent" unicode="&#xa2;" horiz-adv-x="1007" 
d="M84 723q0 222 111.5 389t291.5 213v211h70v-197q16 2 51 2q78 0 142 -22t102.5 -57.5t59 -76.5t20.5 -81q0 -49 -32.5 -85t-84.5 -36q-49 0 -76.5 37.5t-48.5 105.5q-30 127 -133 140v-893q36 -4 55 -4q99 0 182.5 63.5t131.5 183.5l22 -10q-31 -188 -139.5 -293
t-251.5 -118v-195h-70v195q-165 16 -284 162.5t-119 365.5zM262 858q0 -177 59.5 -298.5t165.5 -166.5v869q-104 -24 -164.5 -135t-60.5 -269z" />
    <glyph glyph-name="sterling" unicode="&#xa3;" horiz-adv-x="1132" 
d="M100 889h136q-64 135 -64 258q0 83 24.5 152t67.5 117.5t101.5 82.5t125.5 50t140 16q101 0 181.5 -25t128 -66t72.5 -89t25 -97q0 -51 -32 -86t-86 -35q-41 0 -69.5 24t-42.5 59t-24 87q-17 80 -52 120t-111 40q-109 0 -179.5 -80.5t-70.5 -218.5q0 -120 71 -309h332
v-74h-303q38 -94 55.5 -142t36.5 -125.5t19 -139.5q0 -32 -4 -82q16 -15 58 -58t63 -61.5t56.5 -45t68.5 -37.5t69 -11q63 0 109.5 46.5t72.5 125.5l23 -11q-22 -149 -96.5 -232t-184.5 -83q-90 0 -160.5 46t-140.5 126q-43 -73 -107.5 -112t-132.5 -39q-104 0 -174.5 66.5
t-70.5 174.5q0 112 71 178t183 66q107 0 202 -68q-7 53 -31 111.5t-48.5 98.5t-67.5 106t-64 102h-176v74zM236 383q-52 0 -88.5 -42.5t-36.5 -117.5t48 -124.5t120 -49.5q138 0 188 141q-6 8 -23 29t-23 29t-21.5 26.5t-23 26t-21.5 22t-23 21t-22.5 16t-24.5 13.5t-23.5 7
t-25.5 3z" />
    <glyph glyph-name="yen" unicode="&#xa5;" horiz-adv-x="1208" 
d="M221 346v60h285v145h-285v59h285v2l-344 645q-118 218 -211 259v20h520v-20q-76 -32 -99.5 -101t21.5 -158l285 -532l272 537q37 83 4.5 151t-114.5 103v20h401v-20q-45 -21 -99 -89.5t-104 -162.5l-329 -648v-6h329v-59h-329v-145h329v-60h-329v-125q0 -156 120 -198
v-23h-448v23q125 46 125 198v125h-285z" />
    <glyph glyph-name="brokenbar" unicode="&#xa6;" horiz-adv-x="724" 
d="M324 1536h77v-737h-77v737zM324 522h77v-737h-77v737z" />
    <glyph glyph-name="section" unicode="&#xa7;" horiz-adv-x="1095" 
d="M500 -223q-186 0 -285.5 67t-99.5 154q0 53 30.5 93t81.5 40q61 0 98.5 -52t43.5 -136q5 -54 35.5 -76.5t113.5 -22.5q114 -1 195.5 68t81.5 162q1 70 -39 118.5t-104 73.5t-142 44.5t-156 41t-142.5 52.5t-105 89.5t-40.5 141.5q0 182 184 309q-94 84 -94 225
q0 157 110 272t291 115q174 0 267.5 -66t93.5 -151q0 -54 -32 -94.5t-85 -40.5q-60 0 -95.5 52t-41.5 137q-5 52 -31 74t-94 22q-100 0 -175 -66.5t-75 -158.5q0 -70 40 -118.5t104 -74t142 -44.5t156 -41t142 -53t104.5 -89.5t40.5 -141.5q0 -178 -182 -309q92 -82 92 -225
q0 -160 -117 -275.5t-311 -115.5zM199 739q0 -62 40 -103t109 -64t142.5 -40t159 -43.5t141.5 -62.5q96 83 96 174q0 61 -40 102t-108.5 64t-142 40t-159.5 43.5t-142 61.5q-96 -83 -96 -172z" />
    <glyph glyph-name="dieresis" unicode="&#xa8;" horiz-adv-x="1216" 
d="M446 1247q-50 0 -84 38t-34 93q0 56 33.5 94.5t84.5 38.5q52 0 87.5 -38.5t35.5 -94.5q0 -54 -35.5 -92.5t-87.5 -38.5zM770 1247q-51 0 -85 38.5t-34 92.5q0 56 34 94.5t85 38.5t86 -38.5t35 -94.5q0 -54 -35 -92.5t-86 -38.5z" />
    <glyph glyph-name="copyright" unicode="&#xa9;" horiz-adv-x="1556" 
d="M780 -31q-206 0 -370 103t-255.5 285t-91.5 409q0 228 91.5 411t255.5 286.5t370 103.5q205 0 368 -103.5t254 -286.5t91 -411q0 -227 -91 -409t-254 -285t-368 -103zM780 23q190 0 339.5 98.5t231 267.5t81.5 377q0 209 -81.5 380t-231.5 270.5t-339 99.5
q-191 0 -341.5 -100t-232 -270.5t-81.5 -379.5q0 -208 81.5 -377t232 -267.5t341.5 -98.5zM862 1368q144 0 285 -59l-109 -297h-18q-23 133 -88.5 204.5t-159.5 71.5q-127 0 -207 -127t-80 -323q0 -232 97 -378.5t260 -146.5q201 0 299 228l20 -9q-34 -174 -140 -270
t-245 -96q-182 0 -312 162t-130 409q0 174 70 319t191.5 228.5t266.5 83.5z" />
    <glyph glyph-name="guillemotleft" unicode="&#xab;" horiz-adv-x="952" 
d="M483 156l-350 309q-55 51 -53 104t53 97l350 315l17 -16l-234 -396v-8l234 -393zM852 156l-348 309q-57 51 -55 104t55 97l348 315l16 -16l-231 -396v-8l231 -393z" />
    <glyph glyph-name="registered" unicode="&#xae;" horiz-adv-x="671" 
d="M336 915q-126 0 -208.5 93t-82.5 233t82.5 233t208.5 93q127 0 209 -93t82 -233t-82 -233t-209 -93zM336 950q111 0 180.5 84t69.5 207t-69.5 207t-180.5 84t-180.5 -84t-69.5 -207t69.5 -207t180.5 -84zM205 1421q79 11 127 11q65 0 103 -30.5t38 -80.5
q0 -44 -26.5 -73.5t-65.5 -39.5q47 -107 127 -180l-4 -6q-126 47 -182 180q-25 5 -29 6v-96q0 -42 31 -51v-8h-119v8q33 10 33 51v252q0 41 -33 51v6zM293 1364v-137q24 -4 33 -4q86 0 86 90q0 44 -21.5 71t-54.5 27q-19 0 -31 -12t-12 -35z" />
    <glyph glyph-name="macron" unicode="&#xaf;" horiz-adv-x="1216" 
d="M330 1276v100h559v-100h-559z" />
    <glyph glyph-name="macron" unicode="&#x2c9;" horiz-adv-x="1216" 
d="M330 1276v100h559v-100h-559z" />
    <glyph glyph-name="degree" unicode="&#xb0;" horiz-adv-x="649" 
d="M326 928q-113 0 -186.5 91t-73.5 228t73.5 228.5t186.5 91.5q112 0 185 -91.5t73 -228.5t-73 -228t-185 -91zM326 985q88 0 141 76t53 186t-53 186t-141 76q-89 0 -143 -76t-54 -186t54 -186t143 -76z" />
    <glyph glyph-name="acute" unicode="&#xb4;" horiz-adv-x="1216" 
d="M698 1554q31 33 65.5 41t72.5 -18q32 -29 31 -68.5t-31 -72.5q-29 -34 -138.5 -110.5t-189.5 -143.5l-14 12q61 94 118 210.5t86 149.5z" />
    <glyph glyph-name="paragraph" unicode="&#xb6;" horiz-adv-x="1257" 
d="M627 -225q-176 0 -271.5 67.5t-95.5 149.5q0 48 33 83.5t88 35.5q102 0 137 -134q17 -67 49 -102t95 -35q81 0 134.5 88.5t53.5 257.5v349q-98 -29 -186 -29q-118 0 -223.5 34.5t-188 99t-130.5 167t-48 229.5q0 155 74 274.5t202 182.5t289 63q251 0 539 -40v-21
q-60 -19 -93.5 -71t-33.5 -128l-2 -1110q0 -132 -58 -227t-152 -139.5t-212 -44.5z" />
    <glyph glyph-name="periodcentered" unicode="&#xb7;" horiz-adv-x="532" 
d="M242 467q-57 0 -96.5 43.5t-39.5 103.5q0 63 39.5 106.5t96.5 43.5t97 -43.5t40 -106.5q0 -60 -40 -103.5t-97 -43.5z" />
    <glyph glyph-name="periodcentered" unicode="&#x2219;" horiz-adv-x="532" 
d="M242 467q-57 0 -96.5 43.5t-39.5 103.5q0 63 39.5 106.5t96.5 43.5t97 -43.5t40 -106.5q0 -60 -40 -103.5t-97 -43.5z" />
    <glyph glyph-name="cedilla" unicode="&#xb8;" horiz-adv-x="1216" 
d="M539 -193l47 224l51 -4l-21 -107q91 -8 148 -55t57 -119q0 -85 -73.5 -143t-172.5 -58q-89 0 -147.5 32t-58.5 81q0 32 18 54t53 22q32 0 55 -20.5t29 -53.5q7 -36 22.5 -51t43.5 -15q43 0 71.5 25.5t28.5 75.5q0 105 -137 112h-14z" />
    <glyph glyph-name="guillemotright" unicode="&#xbb;" horiz-adv-x="952" 
d="M469 156l-16 12l233 393v8l-233 396l16 16l350 -315q51 -44 53 -97t-53 -104zM100 156l-16 12l231 393v8l-231 396l16 16l351 -315q51 -44 53 -97t-53 -104z" />
    <glyph glyph-name="questiondown" unicode="&#xbf;" horiz-adv-x="1046" 
d="M657 1157q57 0 94 -40t37 -97q0 -59 -36.5 -99t-94.5 -40q-57 0 -96 40t-39 99q0 56 39.5 96.5t95.5 40.5zM242 -63q0 -139 81.5 -219t206.5 -80q74 0 117.5 37t69.5 104q25 72 58.5 110.5t90.5 38.5q53 0 85 -34t32 -82q0 -92 -107 -167t-292 -75q-138 0 -254.5 60
t-185 165t-68.5 232q0 172 123 301t327 164q59 20 84.5 50t22.5 89l-4 82h73l21 -215q7 -79 -26.5 -127.5t-110.5 -71.5q-159 -26 -251.5 -123t-92.5 -239z" />
    <glyph glyph-name="Agrave" unicode="&#xc0;" horiz-adv-x="1296" 
d="M547 2017q31 -34 89.5 -150t117.5 -208l-17 -14q-79 66 -187.5 144t-139.5 112q-29 32 -30 72t30 67q39 27 73.5 18.5t63.5 -41.5zM160 268l463 1278h47l473 -1274q43 -115 83.5 -170.5t92.5 -78.5v-23h-467v23q38 15 62 47t30 83.5t-20 120.5l-93 256h-493l-88 -260
q-30 -89 10 -153.5t107 -93.5v-23h-396v23q49 19 102.5 87t86.5 158zM365 606h438l-223 623z" />
    <glyph glyph-name="Aacute" unicode="&#xc1;" horiz-adv-x="1296" 
d="M737 2017q19 21 41 33t48 10.5t48 -20.5q32 -28 31 -68t-31 -71q-30 -35 -139.5 -112.5t-187.5 -143.5l-15 14q61 94 118.5 209.5t86.5 148.5zM160 268l463 1278h47l473 -1274q43 -115 83.5 -170.5t92.5 -78.5v-23h-467v23q38 15 62 47t30 83.5t-20 120.5l-93 256h-493
l-88 -260q-30 -89 10 -153.5t107 -93.5v-23h-396v23q49 19 102.5 87t86.5 158zM365 606h438l-223 623z" />
    <glyph glyph-name="Acircumflex" unicode="&#xc2;" horiz-adv-x="1296" 
d="M350 1651l207 356q30 50 92.5 48.5t89.5 -48.5l211 -356l-14 -11l-283 232h-10l-281 -232zM160 268l463 1278h47l473 -1274q43 -115 83.5 -170.5t92.5 -78.5v-23h-467v23q38 15 62 47t30 83.5t-20 120.5l-93 256h-493l-88 -260q-30 -89 10 -153.5t107 -93.5v-23h-396v23
q49 19 102.5 87t86.5 158zM365 606h438l-223 623z" />
    <glyph glyph-name="Atilde" unicode="&#xc3;" horiz-adv-x="1296" 
d="M745 1694q-37 0 -75 22t-63.5 48.5t-56.5 48.5t-56 22q-75 0 -109 -129l-18 4q9 132 57 201t127 69q37 0 74.5 -22.5t63 -49t57 -49t57.5 -22.5q39 0 67.5 33.5t40.5 97.5l19 -4q-10 -132 -58 -201t-127 -69zM160 268l463 1278h47l473 -1274q43 -115 83.5 -170.5
t92.5 -78.5v-23h-467v23q38 15 62 47t30 83.5t-20 120.5l-93 256h-493l-88 -260q-30 -89 10 -153.5t107 -93.5v-23h-396v23q49 19 102.5 87t86.5 158zM365 606h438l-223 623z" />
    <glyph glyph-name="Adieresis" unicode="&#xc4;" horiz-adv-x="1296" 
d="M485 1710q-50 0 -84 39t-34 94q0 56 33.5 94.5t84.5 38.5q52 0 87.5 -38.5t35.5 -94.5q0 -55 -35.5 -94t-87.5 -39zM809 1710q-50 0 -84.5 39t-34.5 94q0 56 34 94.5t85 38.5t86 -38.5t35 -94.5q0 -54 -35 -93.5t-86 -39.5zM160 268l463 1278h47l473 -1274
q43 -115 83.5 -170.5t92.5 -78.5v-23h-467v23q38 15 62 47t30 83.5t-20 120.5l-93 256h-493l-88 -260q-30 -89 10 -153.5t107 -93.5v-23h-396v23q49 19 102.5 87t86.5 158zM365 606h438l-223 623z" />
    <glyph glyph-name="Aring" unicode="&#xc5;" horiz-adv-x="1296" 
d="M406 1892q0 97 70.5 168.5t172.5 71.5q100 0 170 -71t70 -169t-70.5 -168.5t-169.5 -70.5t-171 71t-72 168zM545 1892q0 -190 104 -190q101 0 101 190q0 90 -25.5 139.5t-75.5 49.5q-104 0 -104 -189zM160 268l463 1278h47l473 -1274q43 -115 83.5 -170.5t92.5 -78.5v-23
h-467v23q38 15 62 47t30 83.5t-20 120.5l-93 256h-493l-88 -260q-30 -89 10 -153.5t107 -93.5v-23h-396v23q49 19 102.5 87t86.5 158zM365 606h438l-223 623z" />
    <glyph glyph-name="AE" unicode="&#xc6;" horiz-adv-x="1814" 
d="M-90 0v23q52 21 111.5 86.5t97.5 148.5l573 1200q-42 39 -106 58v20h895q96 0 137 51h18l64 -416l-21 -4q-89 158 -207.5 230.5t-295.5 72.5q-203 0 -203 -174v-417h323q95 0 159 36t101 123h17v-401h-17q-95 168 -258 168h-325v-559q0 -87 55 -133.5t154 -46.5
q192 0 326 82t237 249l18 -2l-98 -446h-23q-43 51 -129 51h-870v23q59 18 93 70.5t34 137.5v234h-463l-96 -205q-17 -45 -13.5 -81.5t27 -68.5t50.5 -52.5t57 -34.5v-23h-422zM770 1249q0 77 -29 140l-397 -848h426v708z" />
    <glyph glyph-name="Ccedilla" unicode="&#xc7;" horiz-adv-x="1218" 
d="M590 -193l35 164q-111 9 -211 69t-174 158t-117 236t-43 295q0 231 93 423.5t253.5 303.5t353.5 111q186 0 377 -80l-143 -393h-19q-33 183 -121 277.5t-215 94.5q-112 0 -200 -77t-136.5 -215t-48.5 -312q0 -310 130 -504t348 -194q272 0 399 299l25 -10
q-44 -225 -181.5 -352t-316.5 -132l-10 -49q92 -8 148 -54.5t56 -119.5q0 -85 -73 -143t-170 -58q-91 0 -150 32t-59 81q0 31 19 53.5t53 22.5q32 0 55 -20.5t31 -53.5q7 -36 21.5 -51t41.5 -15q44 0 73 25.5t29 75.5q0 105 -139 112h-14z" />
    <glyph glyph-name="Egrave" unicode="&#xc8;" horiz-adv-x="1243" 
d="M524 2021q26 -29 51 -77t65 -126.5t89 -154.5l-14 -14q-80 67 -189 144.5t-139 111.5q-30 31 -31 71.5t31 67.5q37 27 73 18.5t64 -41.5zM70 1536h839q97 0 138 51h18l63 -416l-20 -4q-91 158 -209 230.5t-295 72.5q-205 0 -205 -174v-417h326q95 0 159 36t99 123h18
v-401h-18q-92 168 -256 168h-328v-559q0 -87 56 -133.5t155 -46.5q192 0 326.5 82t237.5 249l18 -2l-98 -446h-23q-43 51 -129 51h-872v23q61 18 95 70.5t34 137.5v1076q0 81 -33.5 136.5t-95.5 72.5v20z" />
    <glyph glyph-name="Eacute" unicode="&#xc9;" horiz-adv-x="1243" 
d="M715 2021q28 33 63.5 41.5t71.5 -18.5q32 -27 32 -67.5t-30 -71.5q-30 -33 -138.5 -110.5t-189.5 -145.5l-16 14q62 93 119.5 209t87.5 149zM70 1536h839q97 0 138 51h18l63 -416l-20 -4q-91 158 -209 230.5t-295 72.5q-205 0 -205 -174v-417h326q95 0 159 36t99 123h18
v-401h-18q-92 168 -256 168h-328v-559q0 -87 56 -133.5t155 -46.5q192 0 326.5 82t237.5 249l18 -2l-98 -446h-23q-43 51 -129 51h-872v23q61 18 95 70.5t34 137.5v1076q0 81 -33.5 136.5t-95.5 72.5v20z" />
    <glyph glyph-name="Ecircumflex" unicode="&#xca;" horiz-adv-x="1243" 
d="M326 1655l209 356q30 50 92 48.5t90 -48.5l211 -356l-15 -10l-284 231h-8l-281 -231zM70 1536h839q97 0 138 51h18l63 -416l-20 -4q-91 158 -209 230.5t-295 72.5q-205 0 -205 -174v-417h326q95 0 159 36t99 123h18v-401h-18q-92 168 -256 168h-328v-559q0 -87 56 -133.5
t155 -46.5q192 0 326.5 82t237.5 249l18 -2l-98 -446h-23q-43 51 -129 51h-872v23q61 18 95 70.5t34 137.5v1076q0 81 -33.5 136.5t-95.5 72.5v20z" />
    <glyph glyph-name="Edieresis" unicode="&#xcb;" horiz-adv-x="1243" 
d="M463 1714q-50 0 -84.5 39t-34.5 94q0 56 34 94.5t85 38.5t86 -38.5t35 -94.5q0 -54 -35 -93.5t-86 -39.5zM786 1714q-50 0 -84 39t-34 94q0 56 33.5 94.5t84.5 38.5t86 -38.5t35 -94.5q0 -54 -35 -93.5t-86 -39.5zM70 1536h839q97 0 138 51h18l63 -416l-20 -4
q-91 158 -209 230.5t-295 72.5q-205 0 -205 -174v-417h326q95 0 159 36t99 123h18v-401h-18q-92 168 -256 168h-328v-559q0 -87 56 -133.5t155 -46.5q192 0 326.5 82t237.5 249l18 -2l-98 -446h-23q-43 51 -129 51h-872v23q61 18 95 70.5t34 137.5v1076q0 81 -33.5 136.5
t-95.5 72.5v20z" />
    <glyph glyph-name="Igrave" unicode="&#xcc;" horiz-adv-x="604" 
d="M201 2021q31 -34 89.5 -150t117.5 -208l-17 -14q-80 67 -189 144.5t-139 111.5q-29 32 -30 72t30 67q39 27 74 18.5t64 -41.5zM532 0h-460v23q59 15 94 70t35 138v1076q0 76 -34.5 133.5t-94.5 75.5v20h460v-20q-62 -18 -95.5 -75t-33.5 -134v-1076q0 -83 35.5 -138
t93.5 -70v-23z" />
    <glyph glyph-name="Iacute" unicode="&#xcd;" horiz-adv-x="604" 
d="M391 2021q19 21 41 33t48 10.5t48 -20.5q32 -28 31 -68t-31 -71q-30 -35 -139.5 -112.5t-187.5 -143.5l-15 14q61 94 118.5 209.5t86.5 148.5zM532 0h-460v23q59 15 94 70t35 138v1076q0 76 -34.5 133.5t-94.5 75.5v20h460v-20q-62 -18 -95.5 -75t-33.5 -134v-1076
q0 -83 35.5 -138t93.5 -70v-23z" />
    <glyph glyph-name="Icircumflex" unicode="&#xce;" horiz-adv-x="604" 
d="M4 1655l207 356q30 50 92.5 48.5t89.5 -48.5l211 -356l-14 -10l-283 231h-10l-281 -231zM532 0h-460v23q59 15 94 70t35 138v1076q0 76 -34.5 133.5t-94.5 75.5v20h460v-20q-62 -18 -95.5 -75t-33.5 -134v-1076q0 -83 35.5 -138t93.5 -70v-23z" />
    <glyph glyph-name="Idieresis" unicode="&#xcf;" horiz-adv-x="604" 
d="M139 1714q-50 0 -84.5 39t-34.5 94q0 56 34 94.5t85 38.5q52 0 87.5 -38.5t35.5 -94.5q0 -55 -35.5 -94t-87.5 -39zM463 1714q-50 0 -84.5 39t-34.5 94q0 56 34 94.5t85 38.5t86 -38.5t35 -94.5q0 -54 -35 -93.5t-86 -39.5zM532 0h-460v23q59 15 94 70t35 138v1076
q0 76 -34.5 133.5t-94.5 75.5v20h460v-20q-62 -18 -95.5 -75t-33.5 -134v-1076q0 -83 35.5 -138t93.5 -70v-23z" />
    <glyph glyph-name="Eth" unicode="&#xd0;" horiz-adv-x="1394" 
d="M557 -20q-200 0 -487 40v23q62 23 95.5 76.5t33.5 126.5v647h-158v74h158v336q0 62 -34 115t-95 77v21q242 40 460 40q186 0 335 -57t247 -161t150.5 -249.5t52.5 -322.5q0 -161 -40.5 -293.5t-111 -222.5t-167.5 -152t-207 -90t-232 -28zM592 53q247 0 368 158.5
t121 519.5q0 358 -129 555t-372 197q-92 0 -135.5 -45.5t-43.5 -139.5v-331h332v-74h-332v-635q0 -99 49 -152t142 -53z" />
    <glyph glyph-name="Ntilde" unicode="&#xd1;" horiz-adv-x="1325" 
d="M772 1688q-37 0 -75 22t-63.5 48.5t-56 48.5t-55.5 22q-76 0 -110 -129l-19 4q10 132 58.5 201t126.5 69q38 0 76 -22.5t63 -49t55.5 -49t56.5 -22.5q41 0 70 33.5t39 97.5l18 -4q-9 -133 -56.5 -201.5t-127.5 -68.5zM1149 -41h-21l-849 1329v-1034q0 -88 37 -149
t100 -82v-23h-350v23q62 20 97.5 81t35.5 150v1051q0 72 -34 131.5t-93 79.5v20h295l702 -1108v856q0 83 -34.5 148t-98.5 84v20h332v-20q-57 -18 -88 -82.5t-31 -149.5v-1325z" />
    <glyph glyph-name="Ograve" unicode="&#xd2;" horiz-adv-x="1396" 
d="M598 2021q29 -33 86.5 -148.5t118.5 -209.5l-15 -14q-81 68 -189.5 145t-139.5 111q-29 32 -29 72t31 67q37 27 73 18.5t64 -41.5zM80 768q0 218 80 401t223 290.5t317 107.5q130 0 245 -63t196.5 -170.5t128.5 -254.5t47 -311q0 -218 -81 -401.5t-223 -290.5t-313 -107
q-170 0 -313 107.5t-225 291t-82 400.5zM313 768q0 -332 100.5 -528.5t286.5 -196.5q123 0 210.5 92t130 253.5t42.5 379.5q0 336 -96.5 530.5t-286.5 194.5q-128 0 -216 -92.5t-129.5 -253t-41.5 -379.5z" />
    <glyph glyph-name="Oacute" unicode="&#xd3;" horiz-adv-x="1396" 
d="M788 2021q28 33 64 41.5t72 -18.5q31 -29 31 -68t-29 -71q-30 -33 -138.5 -110.5t-189.5 -145.5l-16 14q50 76 90 153.5t65.5 127t50.5 77.5zM80 768q0 218 80 401t223 290.5t317 107.5q130 0 245 -63t196.5 -170.5t128.5 -254.5t47 -311q0 -218 -81 -401.5t-223 -290.5
t-313 -107q-170 0 -313 107.5t-225 291t-82 400.5zM313 768q0 -332 100.5 -528.5t286.5 -196.5q123 0 210.5 92t130 253.5t42.5 379.5q0 336 -96.5 530.5t-286.5 194.5q-128 0 -216 -92.5t-129.5 -253t-41.5 -379.5z" />
    <glyph glyph-name="Ocircumflex" unicode="&#xd4;" horiz-adv-x="1396" 
d="M399 1655l209 356q30 50 91.5 48.5t88.5 -48.5l213 -356l-14 -10l-285 231h-8l-280 -231zM80 768q0 218 80 401t223 290.5t317 107.5q130 0 245 -63t196.5 -170.5t128.5 -254.5t47 -311q0 -218 -81 -401.5t-223 -290.5t-313 -107q-170 0 -313 107.5t-225 291t-82 400.5z
M313 768q0 -332 100.5 -528.5t286.5 -196.5q123 0 210.5 92t130 253.5t42.5 379.5q0 336 -96.5 530.5t-286.5 194.5q-128 0 -216 -92.5t-129.5 -253t-41.5 -379.5z" />
    <glyph glyph-name="Otilde" unicode="&#xd5;" horiz-adv-x="1396" 
d="M795 1698q-37 0 -75 22t-63.5 48.5t-56 48.5t-55.5 22q-38 0 -66.5 -35t-44.5 -94l-18 4q10 132 58.5 201.5t125.5 69.5q37 0 75 -22.5t63.5 -49.5t56.5 -49.5t57 -22.5q40 0 69.5 33.5t39.5 97.5l18 -4q-9 -133 -56.5 -201.5t-127.5 -68.5zM80 768q0 218 80 401
t223 290.5t317 107.5q130 0 245 -63t196.5 -170.5t128.5 -254.5t47 -311q0 -218 -81 -401.5t-223 -290.5t-313 -107q-170 0 -313 107.5t-225 291t-82 400.5zM313 768q0 -332 100.5 -528.5t286.5 -196.5q123 0 210.5 92t130 253.5t42.5 379.5q0 336 -96.5 530.5t-286.5 194.5
q-128 0 -216 -92.5t-129.5 -253t-41.5 -379.5z" />
    <glyph glyph-name="Odieresis" unicode="&#xd6;" horiz-adv-x="1396" 
d="M537 1714q-50 0 -84.5 39t-34.5 94q0 56 34 94.5t85 38.5t85.5 -38.5t34.5 -94.5q0 -55 -35 -94t-85 -39zM858 1714q-49 0 -83 39t-34 94q0 56 34 94.5t83 38.5q52 0 87.5 -38.5t35.5 -94.5q0 -55 -35.5 -94t-87.5 -39zM80 768q0 218 80 401t223 290.5t317 107.5
q130 0 245 -63t196.5 -170.5t128.5 -254.5t47 -311q0 -218 -81 -401.5t-223 -290.5t-313 -107q-170 0 -313 107.5t-225 291t-82 400.5zM313 768q0 -332 100.5 -528.5t286.5 -196.5q123 0 210.5 92t130 253.5t42.5 379.5q0 336 -96.5 530.5t-286.5 194.5q-128 0 -216 -92.5
t-129.5 -253t-41.5 -379.5z" />
    <glyph glyph-name="multiply" unicode="&#xd7;" horiz-adv-x="944" 
d="M160 455l268 274l-274 275l47 47l274 -275l268 273l50 -48l-271 -272l269 -266l-50 -49l-266 266l-268 -272z" />
    <glyph glyph-name="Oslash" unicode="&#xd8;" horiz-adv-x="1396" 
d="M80 768q0 218 80 401t223 290.5t317 107.5q74 0 154 -23l35 135h82l-43 -166q176 -87 282.5 -289.5t106.5 -455.5q0 -218 -81 -401.5t-223 -290.5t-313 -107q-82 0 -159 27l-39 -160h-84l49 191q-174 90 -280.5 291t-106.5 450zM313 768q0 -222 46 -387t135 -252
l340 1333q-64 31 -134 31q-128 0 -216 -92.5t-129.5 -253t-41.5 -379.5zM1083 768q0 479 -180 647l-342 -1339q59 -33 139 -33q123 0 210.5 92t130 253.5t42.5 379.5z" />
    <glyph glyph-name="Ugrave" unicode="&#xd9;" horiz-adv-x="1355" 
d="M618 2021q31 -34 89.5 -150t117.5 -208l-16 -14q-80 67 -189 144.5t-139 111.5q-29 32 -29 72t31 67q38 27 72 18.5t63 -41.5zM377 459q0 -180 97 -283t259 -106q158 -2 256 98t98 289v798q0 94 -40.5 165.5t-112.5 95.5v20h371v-20q-64 -20 -99 -92t-35 -169v-798
q0 -231 -135.5 -358.5t-347.5 -127.5q-228 0 -370 128.5t-142 357.5v850q0 86 -29.5 140t-85.5 69v20h443v-20q-127 -39 -127 -209v-848z" />
    <glyph glyph-name="Uacute" unicode="&#xda;" horiz-adv-x="1355" 
d="M809 2021q30 33 65.5 41.5t71.5 -18.5q31 -29 31 -68t-29 -71q-30 -34 -139.5 -111.5t-190.5 -144.5l-14 14q61 94 118.5 209.5t86.5 148.5zM377 459q0 -180 97 -283t259 -106q158 -2 256 98t98 289v798q0 94 -40.5 165.5t-112.5 95.5v20h371v-20q-64 -20 -99 -92
t-35 -169v-798q0 -231 -135.5 -358.5t-347.5 -127.5q-228 0 -370 128.5t-142 357.5v850q0 86 -29.5 140t-85.5 69v20h443v-20q-127 -39 -127 -209v-848z" />
    <glyph glyph-name="Ucircumflex" unicode="&#xdb;" horiz-adv-x="1355" 
d="M422 1655l207 356q30 50 92.5 48.5t89.5 -48.5l211 -356l-12 -10l-285 231h-8l-283 -231zM377 459q0 -180 97 -283t259 -106q158 -2 256 98t98 289v798q0 94 -40.5 165.5t-112.5 95.5v20h371v-20q-64 -20 -99 -92t-35 -169v-798q0 -231 -135.5 -358.5t-347.5 -127.5
q-228 0 -370 128.5t-142 357.5v850q0 86 -29.5 140t-85.5 69v20h443v-20q-127 -39 -127 -209v-848z" />
    <glyph glyph-name="Udieresis" unicode="&#xdc;" horiz-adv-x="1355" 
d="M557 1714q-49 0 -83 39t-34 94q0 56 34 94.5t83 38.5q52 0 87.5 -38.5t35.5 -94.5q0 -55 -35.5 -94t-87.5 -39zM881 1714q-50 0 -84.5 39t-34.5 94q0 56 34 94.5t85 38.5q52 0 87.5 -38.5t35.5 -94.5q0 -55 -35.5 -94t-87.5 -39zM377 459q0 -180 97 -283t259 -106
q158 -2 256 98t98 289v798q0 94 -40.5 165.5t-112.5 95.5v20h371v-20q-64 -20 -99 -92t-35 -169v-798q0 -231 -135.5 -358.5t-347.5 -127.5q-228 0 -370 128.5t-142 357.5v850q0 86 -29.5 140t-85.5 69v20h443v-20q-127 -39 -127 -209v-848z" />
    <glyph glyph-name="Yacute" unicode="&#xdd;" horiz-adv-x="1208" 
d="M743 2021q30 33 65 41.5t73 -18.5q32 -28 31 -68t-31 -71q-24 -28 -68.5 -61t-118 -85.5t-141.5 -109.5l-14 14q50 76 89.5 153.5t64.5 127t50 77.5zM709 221q0 -156 120 -198v-23h-448v23q125 46 125 198v391l-344 645q-118 218 -211 259v20h520v-20q-76 -32 -99.5 -101
t21.5 -158l285 -532l272 537q37 83 4.5 151t-114.5 103v20h401v-20q-45 -21 -99 -89.5t-104 -162.5l-329 -648v-395z" />
    <glyph glyph-name="Thorn" unicode="&#xde;" horiz-adv-x="1224" 
d="M70 23q62 15 95.5 69t33.5 139v1074q0 83 -33.5 138.5t-95.5 72.5v20h458v-20q-58 -19 -92.5 -69.5t-34.5 -119.5v-39q105 6 205 6q258 0 413 -133t155 -350q0 -103 -33 -190t-88.5 -147t-129.5 -102.5t-156.5 -62.5t-168.5 -20q-100 0 -199 30v-88q0 -82 34.5 -136
t94.5 -72v-23h-458v23zM948 774q0 202 -98 327.5t-252 125.5q-95 0 -147 -48t-52 -137v-657q84 -20 164 -20q185 0 285 106.5t100 302.5z" />
    <glyph glyph-name="germandbls" unicode="&#xdf;" horiz-adv-x="1218" 
d="M68 0v16q51 21 82.5 73t31.5 120v938q0 122 54.5 229.5t152 173.5t215.5 66q131 0 227.5 -84t106.5 -211q-37 -15 -83.5 -48.5t-94.5 -81t-80.5 -111t-32.5 -126.5q0 -27 7 -51.5t14.5 -43t27.5 -39t31.5 -32t41.5 -31t42 -27t48.5 -28t47.5 -26.5q45 -25 76.5 -46
t68 -53.5t58 -67t36.5 -84.5t15 -108q0 -149 -100 -247.5t-242 -98.5q-126 0 -218.5 57.5t-92.5 139.5q0 39 23.5 63.5t60.5 24.5q34 0 60 -21.5t44 -52.5t37.5 -62.5t52 -53t76.5 -21.5q79 0 133 55.5t54 139.5q0 33 -7.5 61.5t-25 53t-33 41.5t-46.5 38t-49.5 32t-56.5 32
q-40 22 -59 33t-55 34.5t-54.5 41.5t-44 48t-38 60t-22 71.5t-9.5 87.5q0 70 19 132.5t54.5 113t71 86.5t82.5 74q-2 123 -53 189.5t-145 66.5q-106 0 -155.5 -84.5t-49.5 -269.5v-975q0 -137 84 -191v-16h-389z" />
    <glyph glyph-name="agrave" unicode="&#xe0;" horiz-adv-x="1001" 
d="M391 1554q29 -33 86.5 -148.5t118.5 -209.5l-14 -14q-82 68 -191 144t-139 110q-29 33 -29 73.5t31 67.5q38 25 72.5 17t64.5 -40zM63 211q0 71 37 136.5t108 120.5t182.5 94.5t252.5 55.5v256q0 62 -32.5 99t-94.5 37q-54 0 -91.5 -28.5t-57 -69t-38 -80.5t-48 -68.5
t-72.5 -28.5q-38 0 -63 26t-25 66q0 60 56.5 116.5t154.5 92t209 35.5q136 0 214.5 -57t78.5 -162q0 -83 -2.5 -333t-2.5 -353q0 -44 19 -68t53 -24q45 0 88 37l12 -17q-29 -54 -84.5 -87.5t-113.5 -33.5q-69 0 -116 43t-46 127v11h-2q-156 -183 -330 -183
q-105 0 -175.5 67.5t-70.5 172.5zM262 270q0 -79 39 -124.5t105 -45.5q126 0 235 103q0 241 2 364q-206 -36 -293.5 -112.5t-87.5 -184.5z" />
    <glyph glyph-name="aacute" unicode="&#xe1;" horiz-adv-x="1001" 
d="M582 1554q18 21 40 32.5t48 10.5t47 -20q31 -29 31 -68.5t-29 -72.5q-30 -33 -138 -109t-190 -145l-16 12q62 94 119.5 210.5t87.5 149.5zM63 211q0 71 37 136.5t108 120.5t182.5 94.5t252.5 55.5v256q0 62 -32.5 99t-94.5 37q-54 0 -91.5 -28.5t-57 -69t-38 -80.5
t-48 -68.5t-72.5 -28.5q-38 0 -63 26t-25 66q0 60 56.5 116.5t154.5 92t209 35.5q136 0 214.5 -57t78.5 -162q0 -83 -2.5 -333t-2.5 -353q0 -44 19 -68t53 -24q45 0 88 37l12 -17q-29 -54 -84.5 -87.5t-113.5 -33.5q-69 0 -116 43t-46 127v11h-2q-156 -183 -330 -183
q-105 0 -175.5 67.5t-70.5 172.5zM262 270q0 -79 39 -124.5t105 -45.5q126 0 235 103q0 241 2 364q-206 -36 -293.5 -112.5t-87.5 -184.5z" />
    <glyph glyph-name="acircumflex" unicode="&#xe2;" horiz-adv-x="1001" 
d="M193 1186l208 356q30 50 92 48.5t89 -48.5l213 -356l-15 -10l-284 231h-9l-280 -231zM63 211q0 71 37 136.5t108 120.5t182.5 94.5t252.5 55.5v256q0 62 -32.5 99t-94.5 37q-54 0 -91.5 -28.5t-57 -69t-38 -80.5t-48 -68.5t-72.5 -28.5q-38 0 -63 26t-25 66
q0 60 56.5 116.5t154.5 92t209 35.5q136 0 214.5 -57t78.5 -162q0 -83 -2.5 -333t-2.5 -353q0 -44 19 -68t53 -24q45 0 88 37l12 -17q-29 -54 -84.5 -87.5t-113.5 -33.5q-69 0 -116 43t-46 127v11h-2q-156 -183 -330 -183q-105 0 -175.5 67.5t-70.5 172.5zM262 270
q0 -79 39 -124.5t105 -45.5q126 0 235 103q0 241 2 364q-206 -36 -293.5 -112.5t-87.5 -184.5z" />
    <glyph glyph-name="atilde" unicode="&#xe3;" horiz-adv-x="1001" 
d="M588 1229q-37 0 -75 22t-63.5 48.5t-56 48.5t-55.5 22q-38 0 -66.5 -34.5t-44.5 -92.5l-18 4q10 132 58 200.5t126 68.5q37 0 75 -22.5t63.5 -49.5t56.5 -49.5t57 -22.5q40 0 69.5 34.5t39.5 98.5l18 -4q-10 -133 -57 -202.5t-127 -69.5zM63 211q0 71 37 136.5t108 120.5
t182.5 94.5t252.5 55.5v256q0 62 -32.5 99t-94.5 37q-54 0 -91.5 -28.5t-57 -69t-38 -80.5t-48 -68.5t-72.5 -28.5q-38 0 -63 26t-25 66q0 60 56.5 116.5t154.5 92t209 35.5q136 0 214.5 -57t78.5 -162q0 -83 -2.5 -333t-2.5 -353q0 -44 19 -68t53 -24q45 0 88 37l12 -17
q-29 -54 -84.5 -87.5t-113.5 -33.5q-69 0 -116 43t-46 127v11h-2q-156 -183 -330 -183q-105 0 -175.5 67.5t-70.5 172.5zM262 270q0 -79 39 -124.5t105 -45.5q126 0 235 103q0 241 2 364q-206 -36 -293.5 -112.5t-87.5 -184.5z" />
    <glyph glyph-name="adieresis" unicode="&#xe4;" horiz-adv-x="1001" 
d="M330 1247q-51 0 -85 38.5t-34 92.5q0 56 34 94.5t85 38.5t86 -38.5t35 -94.5q0 -54 -35 -92.5t-86 -38.5zM651 1247q-49 0 -82.5 38.5t-33.5 92.5q0 56 33.5 94.5t82.5 38.5q52 0 87.5 -38.5t35.5 -94.5q0 -54 -35.5 -92.5t-87.5 -38.5zM63 211q0 71 37 136.5t108 120.5
t182.5 94.5t252.5 55.5v256q0 62 -32.5 99t-94.5 37q-54 0 -91.5 -28.5t-57 -69t-38 -80.5t-48 -68.5t-72.5 -28.5q-38 0 -63 26t-25 66q0 60 56.5 116.5t154.5 92t209 35.5q136 0 214.5 -57t78.5 -162q0 -83 -2.5 -333t-2.5 -353q0 -44 19 -68t53 -24q45 0 88 37l12 -17
q-29 -54 -84.5 -87.5t-113.5 -33.5q-69 0 -116 43t-46 127v11h-2q-156 -183 -330 -183q-105 0 -175.5 67.5t-70.5 172.5zM262 270q0 -79 39 -124.5t105 -45.5q126 0 235 103q0 241 2 364q-206 -36 -293.5 -112.5t-87.5 -184.5z" />
    <glyph glyph-name="aring" unicode="&#xe5;" horiz-adv-x="1001" 
d="M250 1427q0 98 69.5 169t172.5 71q102 0 170.5 -70.5t68.5 -169.5q0 -97 -70 -168t-169 -71t-170.5 71.5t-71.5 167.5zM387 1427q0 -91 26.5 -140.5t78.5 -49.5q102 0 102 190q0 189 -102 189q-105 0 -105 -189zM63 211q0 71 37 136.5t108 120.5t182.5 94.5t252.5 55.5
v256q0 62 -32.5 99t-94.5 37q-54 0 -91.5 -28.5t-57 -69t-38 -80.5t-48 -68.5t-72.5 -28.5q-38 0 -63 26t-25 66q0 60 56.5 116.5t154.5 92t209 35.5q136 0 214.5 -57t78.5 -162q0 -83 -2.5 -333t-2.5 -353q0 -44 19 -68t53 -24q45 0 88 37l12 -17q-29 -54 -84.5 -87.5
t-113.5 -33.5q-69 0 -116 43t-46 127v11h-2q-156 -183 -330 -183q-105 0 -175.5 67.5t-70.5 172.5zM262 270q0 -79 39 -124.5t105 -45.5q126 0 235 103q0 241 2 364q-206 -36 -293.5 -112.5t-87.5 -184.5z" />
    <glyph glyph-name="ae" unicode="&#xe6;" horiz-adv-x="1536" 
d="M336 -29q-113 0 -187.5 67.5t-74.5 172.5q0 153 150 265t429 142v256q0 62 -32.5 99t-94.5 37q-54 0 -91.5 -28.5t-57.5 -69t-38.5 -81.5t-47.5 -69.5t-72 -28.5q-38 0 -63 25t-25 65q0 94 126.5 171t293.5 77q102 0 169.5 -35t90.5 -102q129 139 297 139
q158 0 260 -118.5t102 -301.5v-43h-643v-24q0 -214 91.5 -339.5t238.5 -125.5q87 0 160 44t119 124l20 -13q-40 -142 -147 -224.5t-236 -82.5q-105 0 -199 57t-151 162q-82 -105 -181.5 -161t-205.5 -56zM1065 999q-87 0 -152.5 -82t-81.5 -239h443q0 143 -57 232t-152 89z
M272 276q0 -82 44 -128t120 -46q146 0 269 123q-52 113 -52 256v86q-205 -32 -293 -105.5t-88 -185.5z" />
    <glyph glyph-name="ccedilla" unicode="&#xe7;" horiz-adv-x="888" 
d="M416 -193l33 162q-153 11 -266 154t-113 360q0 164 64.5 298t180.5 211t260 77q143 0 263 -49l-107 -318h-20q-20 136 -82.5 209.5t-147.5 73.5q-108 0 -173.5 -104.5t-65.5 -272.5q0 -217 85 -351t234 -134q87 0 157.5 52t112.5 142l21 -10q-34 -152 -128 -239.5
t-220 -96.5l-10 -51q91 -8 147.5 -55t56.5 -119q0 -85 -73 -143t-172 -58q-90 0 -148.5 32t-58.5 81q0 32 18 54t51 22q32 0 56 -21t30 -53q7 -36 22.5 -51t43.5 -15q43 0 71.5 25.5t28.5 75.5q0 105 -137 112h-14z" />
    <glyph glyph-name="egrave" unicode="&#xe8;" horiz-adv-x="958" 
d="M395 1554q26 -29 51 -77t65 -126.5t89 -154.5l-14 -14q-81 68 -189.5 144t-138.5 110q-29 33 -30 73.5t30 67.5q38 25 73 17t64 -40zM252 586q0 -213 91.5 -339t236.5 -126q88 0 161 44t117 124l23 -13q-42 -141 -148.5 -224t-234.5 -83q-82 0 -158 34t-136 97t-96 162
t-36 219q0 161 60 297t166 215.5t234 79.5q157 0 259 -118.5t102 -301.5v-43h-641v-24zM489 999q-87 0 -152 -82t-81 -239h442q-2 143 -59 232t-150 89z" />
    <glyph glyph-name="eacute" unicode="&#xe9;" horiz-adv-x="958" 
d="M586 1554q18 21 40 32.5t48 10.5t47 -20q32 -27 32 -67.5t-30 -73.5t-138 -109t-190 -145l-16 12q62 94 119.5 210.5t87.5 149.5zM252 586q0 -213 91.5 -339t236.5 -126q88 0 161 44t117 124l23 -13q-42 -141 -148.5 -224t-234.5 -83q-82 0 -158 34t-136 97t-96 162
t-36 219q0 161 60 297t166 215.5t234 79.5q157 0 259 -118.5t102 -301.5v-43h-641v-24zM489 999q-87 0 -152 -82t-81 -239h442q-2 143 -59 232t-150 89z" />
    <glyph glyph-name="ecircumflex" unicode="&#xea;" horiz-adv-x="958" 
d="M197 1186l209 356q30 50 92 48.5t90 -48.5l211 -356l-15 -10l-284 231h-8l-281 -231zM252 586q0 -213 91.5 -339t236.5 -126q88 0 161 44t117 124l23 -13q-42 -141 -148.5 -224t-234.5 -83q-82 0 -158 34t-136 97t-96 162t-36 219q0 161 60 297t166 215.5t234 79.5
q157 0 259 -118.5t102 -301.5v-43h-641v-24zM489 999q-87 0 -152 -82t-81 -239h442q-2 143 -59 232t-150 89z" />
    <glyph glyph-name="edieresis" unicode="&#xeb;" horiz-adv-x="958" 
d="M334 1247q-51 0 -85 38.5t-34 92.5q0 56 34 94.5t85 38.5t86 -38.5t35 -94.5q0 -54 -35 -92.5t-86 -38.5zM657 1247q-50 0 -84 38t-34 93q0 56 33.5 94.5t84.5 38.5t86 -38.5t35 -94.5q0 -54 -35 -92.5t-86 -38.5zM252 586q0 -213 91.5 -339t236.5 -126q88 0 161 44
t117 124l23 -13q-42 -141 -148.5 -224t-234.5 -83q-82 0 -158 34t-136 97t-96 162t-36 219q0 161 60 297t166 215.5t234 79.5q157 0 259 -118.5t102 -301.5v-43h-641v-24zM489 999q-87 0 -152 -82t-81 -239h442q-2 143 -59 232t-150 89z" />
    <glyph glyph-name="igrave" unicode="&#xec;" horiz-adv-x="528" 
d="M158 1554q26 -29 50.5 -77.5t64.5 -126.5t89 -154l-14 -14q-81 68 -189.5 144t-138.5 110q-30 33 -31 73.5t31 67.5q38 25 73.5 17t64.5 -40zM72 0v20q50 19 77 67.5t27 121.5v524q0 75 -22.5 124.5t-83.5 68.5v20q169 25 280 133h19v-870q0 -72 24.5 -121t67.5 -68v-20
h-389z" />
    <glyph glyph-name="iacute" unicode="&#xed;" horiz-adv-x="528" 
d="M348 1554q18 21 40 32.5t48 10.5t47 -20q32 -27 32 -67.5t-30 -73.5q-25 -28 -70 -60.5l-117 -84.5t-140 -109l-17 12q62 94 119.5 210.5t87.5 149.5zM72 0v20q50 19 77 67.5t27 121.5v524q0 75 -22.5 124.5t-83.5 68.5v20q169 25 280 133h19v-870q0 -72 24.5 -121
t67.5 -68v-20h-389z" />
    <glyph glyph-name="icircumflex" unicode="&#xee;" horiz-adv-x="528" 
d="M-41 1186l209 356q30 50 92 48.5t90 -48.5l211 -356l-14 -10l-285 231h-8l-281 -231zM72 0v20q50 19 77 67.5t27 121.5v524q0 75 -22.5 124.5t-83.5 68.5v20q169 25 280 133h19v-870q0 -72 24.5 -121t67.5 -68v-20h-389z" />
    <glyph glyph-name="idieresis" unicode="&#xef;" horiz-adv-x="528" 
d="M96 1247q-51 0 -85 38.5t-34 92.5q0 56 34 94.5t85 38.5t86 -38.5t35 -94.5q0 -54 -35 -92.5t-86 -38.5zM420 1247q-51 0 -85 38.5t-34 92.5q0 56 34 94.5t85 38.5t86 -38.5t35 -94.5q0 -54 -35 -92.5t-86 -38.5zM72 0v20q50 19 77 67.5t27 121.5v524q0 75 -22.5 124.5
t-83.5 68.5v20q169 25 280 133h19v-870q0 -72 24.5 -121t67.5 -68v-20h-389z" />
    <glyph glyph-name="eth" unicode="&#xf0;" horiz-adv-x="1069" 
d="M324 1159v86l215 74q-135 144 -334 223l6 25q260 -54 446 -207l265 92v-86l-195 -68q133 -133 202 -309t66 -373q0 -153 -39 -279t-106 -207.5t-154 -126t-184 -44.5q-125 0 -226.5 72t-157.5 192.5t-56 263.5t56 265.5t155.5 195t218.5 72.5q155 0 260 -131
q-52 208 -168 364zM786 487q0 219 -64 338t-192 119q-247 0 -247 -457q0 -217 63 -336.5t186 -119.5q121 0 187.5 120.5t66.5 335.5z" />
    <glyph glyph-name="ntilde" unicode="&#xf1;" horiz-adv-x="1126" 
d="M684 1229q-37 0 -75 22t-64 48.5t-56.5 48.5t-54.5 22q-76 0 -110 -127l-19 4q9 132 57 200.5t127 68.5q37 0 74.5 -22.5t63 -49.5t57 -49.5t57.5 -22.5q39 0 68 34t41 99l18 -4q-10 -133 -58 -202.5t-126 -69.5zM68 23q108 49 108 188v528q0 83 -24.5 125t-83.5 62v20
q173 26 280 133h17v-123q0 -90 -3 -133l3 -2q84 102 197.5 177t211.5 75q92 0 145.5 -64.5t53.5 -170.5v-627q0 -147 90 -188v-23h-383v23q53 30 77.5 74t24.5 112v549q0 157 -120 160q-118 3 -297 -146v-563q0 -125 104 -186v-23h-401v23z" />
    <glyph glyph-name="ograve" unicode="&#xf2;" horiz-adv-x="1058" 
d="M428 1554q26 -29 51 -77t65 -126.5t89 -154.5l-15 -14q-81 67 -189 143.5t-138 110.5q-29 33 -30 73.5t30 67.5q38 25 73 17t64 -40zM72 524q0 113 35.5 215t96 175t145.5 116t179 43q127 0 232.5 -72.5t166 -198.5t60.5 -278t-62 -280t-167.5 -201.5t-229.5 -73.5
t-229 74t-166 202t-61 279zM281 524q0 -220 65 -354.5t182 -134.5q79 0 136 63t85.5 172.5t28.5 253.5q0 220 -64 352t-186 132q-120 0 -183.5 -132.5t-63.5 -351.5z" />
    <glyph glyph-name="oacute" unicode="&#xf3;" horiz-adv-x="1058" 
d="M618 1554q29 32 64.5 40.5t73.5 -17.5q32 -29 31 -68.5t-31 -72.5q-24 -28 -69 -60.5t-118 -84.5t-141 -109l-14 12q61 94 118 210.5t86 149.5zM72 524q0 113 35.5 215t96 175t145.5 116t179 43q127 0 232.5 -72.5t166 -198.5t60.5 -278t-62 -280t-167.5 -201.5
t-229.5 -73.5t-229 74t-166 202t-61 279zM281 524q0 -220 65 -354.5t182 -134.5q79 0 136 63t85.5 172.5t28.5 253.5q0 220 -64 352t-186 132q-120 0 -183.5 -132.5t-63.5 -351.5z" />
    <glyph glyph-name="ocircumflex" unicode="&#xf4;" horiz-adv-x="1058" 
d="M231 1186l207 356q30 50 93 48.5t90 -48.5l210 -356l-14 -10l-282 231h-11l-280 -231zM72 524q0 113 35.5 215t96 175t145.5 116t179 43q127 0 232.5 -72.5t166 -198.5t60.5 -278t-62 -280t-167.5 -201.5t-229.5 -73.5t-229 74t-166 202t-61 279zM281 524
q0 -220 65 -354.5t182 -134.5q79 0 136 63t85.5 172.5t28.5 253.5q0 220 -64 352t-186 132q-120 0 -183.5 -132.5t-63.5 -351.5z" />
    <glyph glyph-name="otilde" unicode="&#xf5;" horiz-adv-x="1058" 
d="M625 1229q-37 0 -75 22t-63.5 48.5t-56 48.5t-55.5 22q-72 0 -111 -127l-16 4q9 132 56.5 200.5t125.5 68.5q38 0 76 -22.5t63.5 -49.5t56 -49.5t56.5 -22.5q41 0 70 34t41 99l16 -4q-9 -133 -56.5 -202.5t-127.5 -69.5zM72 524q0 113 35.5 215t96 175t145.5 116t179 43
q127 0 232.5 -72.5t166 -198.5t60.5 -278t-62 -280t-167.5 -201.5t-229.5 -73.5t-229 74t-166 202t-61 279zM281 524q0 -220 65 -354.5t182 -134.5q79 0 136 63t85.5 172.5t28.5 253.5q0 220 -64 352t-186 132q-120 0 -183.5 -132.5t-63.5 -351.5z" />
    <glyph glyph-name="odieresis" unicode="&#xf6;" horiz-adv-x="1058" 
d="M367 1247q-51 0 -85 38.5t-34 92.5q0 56 34 94.5t85 38.5t85.5 -38.5t34.5 -94.5q0 -54 -34.5 -92.5t-85.5 -38.5zM690 1247q-51 0 -85 38.5t-34 92.5q0 56 34 94.5t85 38.5t86 -38.5t35 -94.5q0 -54 -35 -92.5t-86 -38.5zM72 524q0 113 35.5 215t96 175t145.5 116
t179 43q127 0 232.5 -72.5t166 -198.5t60.5 -278t-62 -280t-167.5 -201.5t-229.5 -73.5t-229 74t-166 202t-61 279zM281 524q0 -220 65 -354.5t182 -134.5q79 0 136 63t85.5 172.5t28.5 253.5q0 220 -64 352t-186 132q-120 0 -183.5 -132.5t-63.5 -351.5z" />
    <glyph glyph-name="divide" unicode="&#xf7;" horiz-adv-x="944" 
d="M475 934q-38 0 -64 29t-26 69q0 43 26 72t64 29q40 0 68 -29t28 -72q0 -40 -28 -69t-68 -29zM82 700v66h780v-66h-780zM475 334q-38 0 -64 29t-26 69q0 43 26 71.5t64 28.5q40 0 68 -29t28 -71q0 -40 -28 -69t-68 -29z" />
    <glyph glyph-name="oslash" unicode="&#xf8;" horiz-adv-x="1060" 
d="M72 524q0 113 35.5 215t96 175t145.5 116t179 43q76 0 148 -29l47 134h74l-60 -162q114 -68 182 -199.5t68 -292.5q0 -152 -62 -280t-167.5 -201.5t-229.5 -73.5q-74 0 -155 33l-45 -125h-74l57 160q-109 70 -174 200.5t-65 286.5zM281 524q0 -240 73 -368l293 809
q-49 43 -119 43q-120 0 -183.5 -132.5t-63.5 -351.5zM778 524q0 251 -80 381l-295 -817q53 -53 125 -53q79 0 136 63t85.5 172.5t28.5 253.5z" />
    <glyph glyph-name="ugrave" unicode="&#xf9;" horiz-adv-x="1097" 
d="M438 1554q31 -34 89.5 -150t117.5 -208l-16 -14q-81 68 -189.5 144t-138.5 110q-29 33 -29 73.5t31 67.5q38 25 72 17t63 -40zM745 92q0 88 3 135h-3q-84 -104 -192.5 -180t-204.5 -76q-92 0 -144 64.5t-52 171.5v528q0 76 -21 122.5t-74 68.5v20q75 10 146.5 45.5
t124.5 87.5h14v-792q0 -164 121 -164q106 -6 282 153v449q0 83 -22.5 133t-77.5 68v20q75 12 148 47t127 86h14v-796q0 -85 23.5 -127.5t78.5 -63.5v-20q-166 -26 -272 -107h-19v127z" />
    <glyph glyph-name="uacute" unicode="&#xfa;" horiz-adv-x="1097" 
d="M629 1554q20 21 42 32.5t48 10.5t47 -20q31 -29 31 -68.5t-29 -72.5q-30 -34 -139 -110t-191 -144l-14 12q61 94 118.5 210.5t86.5 149.5zM745 92q0 88 3 135h-3q-84 -104 -192.5 -180t-204.5 -76q-92 0 -144 64.5t-52 171.5v528q0 76 -21 122.5t-74 68.5v20
q75 10 146.5 45.5t124.5 87.5h14v-792q0 -164 121 -164q106 -6 282 153v449q0 83 -22.5 133t-77.5 68v20q75 12 148 47t127 86h14v-796q0 -85 23.5 -127.5t78.5 -63.5v-20q-166 -26 -272 -107h-19v127z" />
    <glyph glyph-name="ucircumflex" unicode="&#xfb;" horiz-adv-x="1097" 
d="M242 1186l207 356q30 50 92.5 48.5t89.5 -48.5l211 -356l-13 -10l-284 231h-8l-283 -231zM745 92q0 88 3 135h-3q-84 -104 -192.5 -180t-204.5 -76q-92 0 -144 64.5t-52 171.5v528q0 76 -21 122.5t-74 68.5v20q75 10 146.5 45.5t124.5 87.5h14v-792q0 -164 121 -164
q106 -6 282 153v449q0 83 -22.5 133t-77.5 68v20q75 12 148 47t127 86h14v-796q0 -85 23.5 -127.5t78.5 -63.5v-20q-166 -26 -272 -107h-19v127z" />
    <glyph glyph-name="udieresis" unicode="&#xfc;" horiz-adv-x="1097" 
d="M377 1247q-49 0 -83 38.5t-34 92.5q0 56 34 94.5t83 38.5q52 0 87.5 -38.5t35.5 -94.5q0 -54 -35.5 -92.5t-87.5 -38.5zM700 1247q-50 0 -84 38t-34 93q0 56 33.5 94.5t84.5 38.5q52 0 87.5 -38.5t35.5 -94.5q0 -54 -35.5 -92.5t-87.5 -38.5zM745 92q0 88 3 135h-3
q-84 -104 -192.5 -180t-204.5 -76q-92 0 -144 64.5t-52 171.5v528q0 76 -21 122.5t-74 68.5v20q75 10 146.5 45.5t124.5 87.5h14v-792q0 -164 121 -164q106 -6 282 153v449q0 83 -22.5 133t-77.5 68v20q75 12 148 47t127 86h14v-796q0 -85 23.5 -127.5t78.5 -63.5v-20
q-166 -26 -272 -107h-19v127z" />
    <glyph glyph-name="yacute" unicode="&#xfd;" horiz-adv-x="944" 
d="M606 1554q18 21 40 32.5t48 10.5t47 -20q31 -29 31 -68.5t-29 -72.5q-25 -28 -70 -60.5l-117 -84.5t-140 -109l-17 12q62 94 119.5 210.5t87.5 149.5zM131 -436q-71 0 -125.5 41.5t-54.5 101.5q0 48 30 78.5t72 30.5q32 0 55.5 -20t35 -43.5t31.5 -43.5t44 -20
q96 2 182 241l39 101l-323 778q-39 98 -71.5 146t-74.5 71v16h422v-16q-129 -69 -65 -217l211 -522l202 522q28 76 9.5 132.5t-72.5 84.5v16h295v-16q-36 -20 -75.5 -81.5t-70.5 -133.5l-364 -913q-68 -170 -147 -252t-185 -82z" />
    <glyph glyph-name="thorn" unicode="&#xfe;" 
d="M53 -387q97 39 97 186v1479q0 82 -23.5 126t-77.5 66v21q76 10 147 45.5t123 87.5h19v-655q0 -63 -2 -92l2 -3q60 83 144.5 141t174.5 58q93 0 173.5 -60t130 -169t49.5 -240q0 -166 -63.5 -307.5t-182 -228t-266.5 -86.5q-72 0 -160 30v-213q0 -81 26 -123.5t76 -62.5
v-23h-387v23zM809 530q-2 184 -68.5 291t-185.5 107q-113 0 -217 -113v-573q0 -90 43.5 -143t118.5 -52q137 -1 224 137t85 346z" />
    <glyph glyph-name="ydieresis" unicode="&#xff;" horiz-adv-x="944" 
d="M354 1247q-50 0 -84 38t-34 93q0 56 33.5 94.5t84.5 38.5t86 -38.5t35 -94.5q0 -54 -35 -92.5t-86 -38.5zM676 1247q-49 0 -83 38.5t-34 92.5q0 56 34 94.5t83 38.5q52 0 87.5 -38.5t35.5 -94.5q0 -54 -35.5 -92.5t-87.5 -38.5zM131 -436q-71 0 -125.5 41.5t-54.5 101.5
q0 48 30 78.5t72 30.5q32 0 55.5 -20t35 -43.5t31.5 -43.5t44 -20q96 2 182 241l39 101l-323 778q-39 98 -71.5 146t-74.5 71v16h422v-16q-129 -69 -65 -217l211 -522l202 522q28 76 9.5 132.5t-72.5 84.5v16h295v-16q-36 -20 -75.5 -81.5t-70.5 -133.5l-364 -913
q-68 -170 -147 -252t-185 -82z" />
    <glyph glyph-name="Amacron" unicode="&#x100;" horiz-adv-x="1296" 
d="M369 1739v100h559v-100h-559zM160 268l463 1278h47l473 -1274q43 -115 83.5 -170.5t92.5 -78.5v-23h-467v23q38 15 62 47t30 83.5t-20 120.5l-93 256h-493l-88 -260q-30 -89 10 -153.5t107 -93.5v-23h-396v23q49 19 102.5 87t86.5 158zM365 606h438l-223 623z" />
    <glyph glyph-name="amacron" unicode="&#x101;" horiz-adv-x="1001" 
d="M211 1276v100h561v-100h-561zM63 211q0 71 37 136.5t108 120.5t182.5 94.5t252.5 55.5v256q0 62 -32.5 99t-94.5 37q-54 0 -91.5 -28.5t-57 -69t-38 -80.5t-48 -68.5t-72.5 -28.5q-38 0 -63 26t-25 66q0 60 56.5 116.5t154.5 92t209 35.5q136 0 214.5 -57t78.5 -162
q0 -83 -2.5 -333t-2.5 -353q0 -44 19 -68t53 -24q45 0 88 37l12 -17q-29 -54 -84.5 -87.5t-113.5 -33.5q-69 0 -116 43t-46 127v11h-2q-156 -183 -330 -183q-105 0 -175.5 67.5t-70.5 172.5zM262 270q0 -79 39 -124.5t105 -45.5q126 0 235 103q0 241 2 364
q-206 -36 -293.5 -112.5t-87.5 -184.5z" />
    <glyph glyph-name="Abreve" unicode="&#x102;" horiz-adv-x="1296" 
d="M649 1671q-128 0 -206 96.5t-78 266.5l18 2q18 -97 93 -151t173 -54q97 0 170 53t92 152l21 -2q0 -170 -78 -266.5t-205 -96.5zM160 268l463 1278h47l473 -1274q43 -115 83.5 -170.5t92.5 -78.5v-23h-467v23q38 15 62 47t30 83.5t-20 120.5l-93 256h-493l-88 -260
q-30 -89 10 -153.5t107 -93.5v-23h-396v23q49 19 102.5 87t86.5 158zM365 606h438l-223 623z" />
    <glyph glyph-name="abreve" unicode="&#x103;" horiz-adv-x="1001" 
d="M492 1208q-128 0 -205.5 96t-77.5 265l18 4q18 -99 92 -152t173 -53q98 0 171 53t91 152l20 -4q0 -169 -77 -265t-205 -96zM63 211q0 71 37 136.5t108 120.5t182.5 94.5t252.5 55.5v256q0 62 -32.5 99t-94.5 37q-54 0 -91.5 -28.5t-57 -69t-38 -80.5t-48 -68.5
t-72.5 -28.5q-38 0 -63 26t-25 66q0 60 56.5 116.5t154.5 92t209 35.5q136 0 214.5 -57t78.5 -162q0 -83 -2.5 -333t-2.5 -353q0 -44 19 -68t53 -24q45 0 88 37l12 -17q-29 -54 -84.5 -87.5t-113.5 -33.5q-69 0 -116 43t-46 127v11h-2q-156 -183 -330 -183
q-105 0 -175.5 67.5t-70.5 172.5zM262 270q0 -79 39 -124.5t105 -45.5q126 0 235 103q0 241 2 364q-206 -36 -293.5 -112.5t-87.5 -184.5z" />
    <glyph glyph-name="Aogonek" unicode="&#x104;" horiz-adv-x="1296" 
d="M160 268l463 1278h47l473 -1274q43 -115 83.5 -170.5t92.5 -78.5v-23h-232q-81 -90 -81 -197q0 -62 37.5 -99.5t95.5 -37.5q92 0 164 72l12 -10q-42 -80 -107 -124t-147 -44q-88 0 -148.5 49t-60.5 127q0 136 195 264h-195v23q38 15 62 47t30 83.5t-20 120.5l-93 256
h-493l-88 -260q-30 -89 10 -153.5t107 -93.5v-23h-396v23q49 19 102.5 87t86.5 158zM365 606h438l-223 623z" />
    <glyph glyph-name="aogonek" unicode="&#x105;" horiz-adv-x="1001" 
d="M63 211q0 71 37 136.5t108 120.5t182.5 94.5t252.5 55.5v256q0 62 -32.5 99t-94.5 37q-54 0 -91.5 -28.5t-57 -69t-38 -80.5t-48 -68.5t-72.5 -28.5q-38 0 -63 26t-25 66q0 60 56.5 116.5t154.5 92t209 35.5q136 0 214.5 -57t78.5 -162q0 -83 -2.5 -333t-2.5 -353
q0 -44 19 -68t53 -24q45 0 88 37l12 -17q-29 -54 -84.5 -87.5t-113.5 -33.5q-37 0 -76 17q-72 -84 -72 -187q0 -62 37 -99.5t94 -37.5q92 0 164 72l13 -10q-42 -80 -107 -124t-147 -44q-88 0 -148.5 49t-60.5 127q0 138 200 268q-59 46 -59 139v11h-2q-156 -183 -330 -183
q-105 0 -175.5 67.5t-70.5 172.5zM262 270q0 -79 39 -124.5t105 -45.5q126 0 235 103q0 241 2 364q-206 -36 -293.5 -112.5t-87.5 -184.5z" />
    <glyph glyph-name="Cacute" unicode="&#x106;" horiz-adv-x="1218" 
d="M772 2021q19 21 41 33t48 10.5t48 -20.5q31 -29 31 -68t-29 -71q-30 -34 -139.5 -111.5t-189.5 -144.5l-15 14q61 94 118.5 209.5t86.5 148.5zM666 -31q-118 0 -225 56.5t-187 155.5t-127 242t-47 306q0 231 93 423.5t253.5 303.5t353.5 111q186 0 377 -80l-143 -393h-19
q-33 183 -121 277.5t-215 94.5q-112 0 -200 -77t-136.5 -215t-48.5 -312q0 -310 130 -504t348 -194q272 0 399 299l25 -10q-46 -230 -186 -357t-324 -127z" />
    <glyph glyph-name="cacute" unicode="&#x107;" horiz-adv-x="888" 
d="M582 1554q31 33 65 41t72 -18q32 -29 31 -68.5t-31 -72.5q-24 -28 -69 -60.5t-118 -84.5t-141 -109l-14 12q61 94 118.5 210.5t86.5 149.5zM575 1069q143 0 263 -49l-107 -318h-20q-20 136 -82.5 209.5t-147.5 73.5q-108 0 -173.5 -104.5t-65.5 -272.5q0 -217 85 -351
t234 -134q87 0 157.5 52t112.5 142l21 -10q-36 -162 -139.5 -250t-239.5 -88q-76 0 -148.5 37t-129 102t-91 163t-34.5 212q0 164 64.5 298t180.5 211t260 77z" />
    <glyph glyph-name="Ccircumflex" unicode="&#x108;" horiz-adv-x="1218" 
d="M385 1655l207 356q30 50 92.5 48.5t89.5 -48.5l211 -356l-12 -10l-285 231h-10l-281 -231zM666 -31q-118 0 -225 56.5t-187 155.5t-127 242t-47 306q0 231 93 423.5t253.5 303.5t353.5 111q186 0 377 -80l-143 -393h-19q-33 183 -121 277.5t-215 94.5q-112 0 -200 -77
t-136.5 -215t-48.5 -312q0 -310 130 -504t348 -194q272 0 399 299l25 -10q-46 -230 -186 -357t-324 -127z" />
    <glyph glyph-name="ccircumflex" unicode="&#x109;" horiz-adv-x="888" 
d="M195 1186l206 356q30 50 93 48.5t90 -48.5l211 -356l-15 -10l-282 231h-11l-280 -231zM575 1069q143 0 263 -49l-107 -318h-20q-20 136 -82.5 209.5t-147.5 73.5q-108 0 -173.5 -104.5t-65.5 -272.5q0 -217 85 -351t234 -134q87 0 157.5 52t112.5 142l21 -10
q-36 -162 -139.5 -250t-239.5 -88q-76 0 -148.5 37t-129 102t-91 163t-34.5 212q0 164 64.5 298t180.5 211t260 77z" />
    <glyph glyph-name="Cdotaccent" unicode="&#x10a;" horiz-adv-x="1218" 
d="M684 1714q-52 0 -87.5 39.5t-35.5 95.5t35.5 96t87.5 40t87.5 -40t35.5 -96t-35.5 -95.5t-87.5 -39.5zM666 -31q-118 0 -225 56.5t-187 155.5t-127 242t-47 306q0 231 93 423.5t253.5 303.5t353.5 111q186 0 377 -80l-143 -393h-19q-33 183 -121 277.5t-215 94.5
q-112 0 -200 -77t-136.5 -215t-48.5 -312q0 -310 130 -504t348 -194q272 0 399 299l25 -10q-46 -230 -186 -357t-324 -127z" />
    <glyph glyph-name="cdotaccent" unicode="&#x10b;" horiz-adv-x="888" 
d="M492 1247q-51 0 -86 38.5t-35 94.5q0 57 35 96.5t86 39.5q54 0 89 -39t35 -97q0 -56 -35.5 -94.5t-88.5 -38.5zM575 1069q143 0 263 -49l-107 -318h-20q-20 136 -82.5 209.5t-147.5 73.5q-108 0 -173.5 -104.5t-65.5 -272.5q0 -217 85 -351t234 -134q87 0 157.5 52
t112.5 142l21 -10q-36 -162 -139.5 -250t-239.5 -88q-76 0 -148.5 37t-129 102t-91 163t-34.5 212q0 164 64.5 298t180.5 211t260 77z" />
    <glyph glyph-name="Ccaron" unicode="&#x10c;" horiz-adv-x="1218" 
d="M987 2081l-207 -357q-30 -50 -92.5 -48.5t-89.5 48.5l-213 357l14 10l285 -231h8l283 231zM666 -31q-118 0 -225 56.5t-187 155.5t-127 242t-47 306q0 231 93 423.5t253.5 303.5t353.5 111q186 0 377 -80l-143 -393h-19q-33 183 -121 277.5t-215 94.5q-112 0 -200 -77
t-136.5 -215t-48.5 -312q0 -310 130 -504t348 -194q272 0 399 299l25 -10q-46 -230 -186 -357t-324 -127z" />
    <glyph glyph-name="ccaron" unicode="&#x10d;" horiz-adv-x="888" 
d="M797 1614l-209 -357q-30 -50 -91.5 -48.5t-88.5 48.5l-213 357l14 10l285 -231h8l280 231zM575 1069q143 0 263 -49l-107 -318h-20q-20 136 -82.5 209.5t-147.5 73.5q-108 0 -173.5 -104.5t-65.5 -272.5q0 -217 85 -351t234 -134q87 0 157.5 52t112.5 142l21 -10
q-36 -162 -139.5 -250t-239.5 -88q-76 0 -148.5 37t-129 102t-91 163t-34.5 212q0 164 64.5 298t180.5 211t260 77z" />
    <glyph glyph-name="Dcaron" unicode="&#x10e;" horiz-adv-x="1394" 
d="M967 2081l-207 -357q-30 -50 -92.5 -48.5t-89.5 48.5l-211 357l14 10l283 -231h10l280 231zM557 -20q-200 0 -487 40v23q62 23 95.5 76.5t33.5 126.5v1057q0 62 -34 115t-95 77v21q242 40 460 40q186 0 335 -57t247 -161t150.5 -249.5t52.5 -322.5q0 -161 -40.5 -293.5
t-111 -222.5t-167.5 -152t-207 -90t-232 -28zM592 53q247 0 368 158.5t121 519.5q0 358 -129 555t-372 197q-92 0 -135.5 -45.5t-43.5 -139.5v-1040q0 -99 49 -152t142 -53z" />
    <glyph glyph-name="dcaron" unicode="&#x10f;" horiz-adv-x="1097" 
d="M428 -31q-93 0 -174.5 60.5t-130.5 169t-49 239.5q0 167 63.5 309.5t181.5 229t265 86.5q73 0 164 -31v246q0 149 -115 192v21q173 25 287 133h18v-1335q0 -87 23 -132.5t77 -64.5v-16q-150 -24 -272 -111h-16v103q0 67 2 96l-4 2q-61 -82 -145.5 -139.5t-174.5 -57.5z
M1073 1552q9 36 38 55t63 9q32 -10 42.5 -42t0.5 -67q-12 -40 -69.5 -134.5t-96.5 -178.5l-11 6q14 91 18 203t15 149zM532 117q114 0 216 108v576q0 90 -44.5 143.5t-121.5 52.5q-135 1 -221.5 -138.5t-84.5 -344.5q0 -183 68.5 -290t187.5 -107z" />
    <glyph glyph-name="Dcroat" unicode="&#x110;" horiz-adv-x="1394" 
d="M557 -20q-200 0 -487 40v23q62 23 95.5 76.5t33.5 126.5v647h-158v74h158v336q0 62 -34 115t-95 77v21q242 40 460 40q186 0 335 -57t247 -161t150.5 -249.5t52.5 -322.5q0 -161 -40.5 -293.5t-111 -222.5t-167.5 -152t-207 -90t-232 -28zM592 53q247 0 368 158.5
t121 519.5q0 358 -129 555t-372 197q-92 0 -135.5 -45.5t-43.5 -139.5v-331h332v-74h-332v-635q0 -99 49 -152t142 -53z" />
    <glyph glyph-name="dcroat" unicode="&#x111;" horiz-adv-x="1097" 
d="M428 -31q-93 0 -174.5 60.5t-130.5 169t-49 239.5q0 167 63.5 309.5t181.5 229t265 86.5q73 0 164 -31v191h-267v69h267q-6 138 -115 178v21q173 25 287 133h18v-332h102v-69h-102v-934q0 -87 23 -132.5t77 -64.5v-16q-150 -24 -272 -111h-16v103q0 67 2 96l-4 2
q-61 -82 -145.5 -139.5t-174.5 -57.5zM532 117q114 0 216 108v576q0 90 -44.5 143.5t-121.5 52.5q-135 1 -221.5 -138.5t-84.5 -344.5q0 -183 68.5 -290t187.5 -107z" />
    <glyph glyph-name="Emacron" unicode="&#x112;" horiz-adv-x="1243" 
d="M346 1743v100h559v-100h-559zM70 1536h839q97 0 138 51h18l63 -416l-20 -4q-91 158 -209 230.5t-295 72.5q-205 0 -205 -174v-417h326q95 0 159 36t99 123h18v-401h-18q-92 168 -256 168h-328v-559q0 -87 56 -133.5t155 -46.5q192 0 326.5 82t237.5 249l18 -2l-98 -446
h-23q-43 51 -129 51h-872v23q61 18 95 70.5t34 137.5v1076q0 81 -33.5 136.5t-95.5 72.5v20z" />
    <glyph glyph-name="emacron" unicode="&#x113;" horiz-adv-x="958" 
d="M217 1276v100h559v-100h-559zM252 586q0 -213 91.5 -339t236.5 -126q88 0 161 44t117 124l23 -13q-42 -141 -148.5 -224t-234.5 -83q-82 0 -158 34t-136 97t-96 162t-36 219q0 161 60 297t166 215.5t234 79.5q157 0 259 -118.5t102 -301.5v-43h-641v-24zM489 999
q-87 0 -152 -82t-81 -239h442q-2 143 -59 232t-150 89z" />
    <glyph glyph-name="Ebreve" unicode="&#x114;" horiz-adv-x="1243" 
d="M625 1675q-127 0 -205 96.5t-78 266.5l18 2q18 -97 93 -151t172 -54q98 0 171.5 53t92.5 152l18 -2q0 -171 -77 -267t-205 -96zM70 1536h839q97 0 138 51h18l63 -416l-20 -4q-91 158 -209 230.5t-295 72.5q-205 0 -205 -174v-417h326q95 0 159 36t99 123h18v-401h-18
q-92 168 -256 168h-328v-559q0 -87 56 -133.5t155 -46.5q192 0 326.5 82t237.5 249l18 -2l-98 -446h-23q-43 51 -129 51h-872v23q61 18 95 70.5t34 137.5v1076q0 81 -33.5 136.5t-95.5 72.5v20z" />
    <glyph glyph-name="ebreve" unicode="&#x115;" horiz-adv-x="958" 
d="M496 1208q-127 0 -205 96t-78 265l18 4q18 -98 92.5 -151.5t172.5 -53.5t171.5 53t92.5 152l18 -4q0 -169 -77 -265t-205 -96zM252 586q0 -213 91.5 -339t236.5 -126q88 0 161 44t117 124l23 -13q-42 -141 -148.5 -224t-234.5 -83q-82 0 -158 34t-136 97t-96 162t-36 219
q0 161 60 297t166 215.5t234 79.5q157 0 259 -118.5t102 -301.5v-43h-641v-24zM489 999q-87 0 -152 -82t-81 -239h442q-2 143 -59 232t-150 89z" />
    <glyph glyph-name="Edotaccent" unicode="&#x116;" horiz-adv-x="1243" 
d="M625 1714q-52 0 -86.5 39.5t-34.5 95.5t34.5 96t86.5 40q53 0 89 -40t36 -96t-36 -95.5t-89 -39.5zM70 1536h839q97 0 138 51h18l63 -416l-20 -4q-91 158 -209 230.5t-295 72.5q-205 0 -205 -174v-417h326q95 0 159 36t99 123h18v-401h-18q-92 168 -256 168h-328v-559
q0 -87 56 -133.5t155 -46.5q192 0 326.5 82t237.5 249l18 -2l-98 -446h-23q-43 51 -129 51h-872v23q61 18 95 70.5t34 137.5v1076q0 81 -33.5 136.5t-95.5 72.5v20z" />
    <glyph glyph-name="edotaccent" unicode="&#x117;" horiz-adv-x="958" 
d="M496 1247q-52 0 -86.5 38.5t-34.5 94.5q0 57 34.5 96.5t86.5 39.5q54 0 89.5 -39.5t35.5 -96.5q0 -56 -35.5 -94.5t-89.5 -38.5zM252 586q0 -213 91.5 -339t236.5 -126q88 0 161 44t117 124l23 -13q-42 -141 -148.5 -224t-234.5 -83q-82 0 -158 34t-136 97t-96 162
t-36 219q0 161 60 297t166 215.5t234 79.5q157 0 259 -118.5t102 -301.5v-43h-641v-24zM489 999q-87 0 -152 -82t-81 -239h442q-2 143 -59 232t-150 89z" />
    <glyph glyph-name="Eogonek" unicode="&#x118;" horiz-adv-x="1243" 
d="M952 -440q-88 0 -147.5 49t-59.5 127q0 137 193 264h-868v23q61 18 95 70.5t34 137.5v1076q0 81 -33.5 136.5t-95.5 72.5v20h839q97 0 138 51h18l63 -416l-20 -4q-91 158 -209 230.5t-295 72.5q-205 0 -205 -174v-417h326q95 0 159 36t99 123h18v-401h-18
q-92 168 -256 168h-328v-559q0 -87 56 -133.5t155 -46.5q192 0 326.5 82t237.5 249l18 -2l-98 -446h-23q-37 43 -94 49q-78 -87 -78 -195q0 -62 37 -99.5t94 -37.5q92 0 164 72l14 -10q-44 -80 -109 -124t-147 -44z" />
    <glyph glyph-name="eogonek" unicode="&#x119;" horiz-adv-x="958" 
d="M252 586q0 -213 91.5 -339t236.5 -126q88 0 161 44t117 124l23 -13q-29 -93 -86.5 -162.5t-132.5 -105.5q-89 -95 -89 -205q0 -62 37.5 -99.5t94.5 -37.5q90 0 165 72l13 -10q-42 -79 -107.5 -123.5t-146.5 -44.5q-88 0 -148.5 49t-60.5 127q0 123 164 244
q-53 -11 -86 -11q-82 0 -158 34t-136 97t-96 162t-36 219q0 161 60 297t166 215.5t234 79.5q157 0 259 -118.5t102 -301.5v-43h-641v-24zM489 999q-87 0 -152 -82t-81 -239h442q-2 143 -59 232t-150 89z" />
    <glyph glyph-name="Ecaron" unicode="&#x11a;" horiz-adv-x="1243" 
d="M930 2081l-209 -357q-30 -50 -92 -48.5t-90 48.5l-211 357l14 10l285 -231h8l280 231zM70 1536h839q97 0 138 51h18l63 -416l-20 -4q-91 158 -209 230.5t-295 72.5q-205 0 -205 -174v-417h326q95 0 159 36t99 123h18v-401h-18q-92 168 -256 168h-328v-559
q0 -87 56 -133.5t155 -46.5q192 0 326.5 82t237.5 249l18 -2l-98 -446h-23q-43 51 -129 51h-872v23q61 18 95 70.5t34 137.5v1076q0 81 -33.5 136.5t-95.5 72.5v20z" />
    <glyph glyph-name="ecaron" unicode="&#x11b;" horiz-adv-x="958" 
d="M801 1614l-209 -357q-30 -50 -92 -48.5t-90 48.5l-211 357l14 10l285 -231h8l280 231zM252 586q0 -213 91.5 -339t236.5 -126q88 0 161 44t117 124l23 -13q-42 -141 -148.5 -224t-234.5 -83q-82 0 -158 34t-136 97t-96 162t-36 219q0 161 60 297t166 215.5t234 79.5
q157 0 259 -118.5t102 -301.5v-43h-641v-24zM489 999q-87 0 -152 -82t-81 -239h442q-2 143 -59 232t-150 89z" />
    <glyph glyph-name="Gcircumflex" unicode="&#x11c;" horiz-adv-x="1378" 
d="M414 1655l207 356q30 50 92.5 48.5t89.5 -48.5l211 -356l-15 -10l-282 231h-10l-281 -231zM768 -20q-109 0 -208.5 29.5t-187.5 92t-152.5 152t-102 218.5t-37.5 284q0 239 82.5 421.5t243 286t378.5 103.5q180 0 410 -74l-117 -340h-14q-35 156 -126 244t-230 88
q-396 0 -396 -703q0 -366 112 -548.5t322 -182.5q113 0 175.5 52t62.5 143v456q0 79 -34.5 134.5t-96.5 74.5v21h463v-21q-62 -19 -95.5 -74t-33.5 -135v-466q0 -79 25.5 -130t72.5 -63v-23q-242 -40 -516 -40z" />
    <glyph glyph-name="gcircumflex" unicode="&#x11d;" horiz-adv-x="1019" 
d="M180 1186l209 356q30 50 91.5 48.5t88.5 -48.5l213 -356l-14 -10l-285 231h-8l-280 -231zM481 -440q-84 0 -162 14.5t-144 43t-106 77t-40 110.5q0 85 93 152.5t228 95.5q-164 59 -200 166l2 17q150 66 233 157q-127 25 -210 118.5t-83 215.5q0 138 109.5 239t263.5 101
q156 0 268 -104q40 66 96 108.5t111 42.5q42 0 71 -28t29 -72q0 -41 -26 -70t-62 -29q-33 0 -68 31t-53 31q-29 0 -69 -43q80 -96 80 -207q0 -141 -111 -241.5t-266 -100.5h-21q-67 -63 -67 -98q0 -29 34 -50t87.5 -35t119 -28t131 -35t119 -50.5t87.5 -80.5t34 -119
q0 -98 -71.5 -174.5t-186.5 -115.5t-250 -39zM283 727q0 -128 47.5 -202t134.5 -74q89 0 137.5 74t48.5 202q0 131 -46.5 202.5t-139.5 71.5q-90 0 -136 -72.5t-46 -201.5zM188 -178q0 -91 88.5 -143.5t233.5 -49.5q137 1 228 56.5t91 134.5q0 36 -18 64.5t-43.5 46
t-71.5 34t-81.5 24.5t-96 21.5t-94.5 22.5q-115 -26 -175.5 -81t-60.5 -130z" />
    <glyph glyph-name="Gbreve" unicode="&#x11e;" horiz-adv-x="1378" 
d="M713 1675q-128 0 -206.5 96.5t-78.5 266.5l18 2q18 -97 93 -151t174 -54q97 0 170 53t92 152l20 -2q0 -170 -77.5 -266.5t-204.5 -96.5zM768 -20q-109 0 -208.5 29.5t-187.5 92t-152.5 152t-102 218.5t-37.5 284q0 239 82.5 421.5t243 286t378.5 103.5q180 0 410 -74
l-117 -340h-14q-35 156 -126 244t-230 88q-396 0 -396 -703q0 -366 112 -548.5t322 -182.5q113 0 175.5 52t62.5 143v456q0 79 -34.5 134.5t-96.5 74.5v21h463v-21q-62 -19 -95.5 -74t-33.5 -135v-466q0 -79 25.5 -130t72.5 -63v-23q-242 -40 -516 -40z" />
    <glyph glyph-name="gbreve" unicode="&#x11f;" horiz-adv-x="1019" 
d="M479 1208q-128 0 -205 96t-77 265l18 4q18 -98 92 -151.5t172 -53.5t171.5 53t92.5 152l19 -4q0 -169 -77.5 -265t-205.5 -96zM481 -440q-84 0 -162 14.5t-144 43t-106 77t-40 110.5q0 85 93 152.5t228 95.5q-164 59 -200 166l2 17q150 66 233 157q-127 25 -210 118.5
t-83 215.5q0 138 109.5 239t263.5 101q156 0 268 -104q40 66 96 108.5t111 42.5q42 0 71 -28t29 -72q0 -41 -26 -70t-62 -29q-33 0 -68 31t-53 31q-29 0 -69 -43q80 -96 80 -207q0 -141 -111 -241.5t-266 -100.5h-21q-67 -63 -67 -98q0 -29 34 -50t87.5 -35t119 -28t131 -35
t119 -50.5t87.5 -80.5t34 -119q0 -98 -71.5 -174.5t-186.5 -115.5t-250 -39zM283 727q0 -128 47.5 -202t134.5 -74q89 0 137.5 74t48.5 202q0 131 -46.5 202.5t-139.5 71.5q-90 0 -136 -72.5t-46 -201.5zM188 -178q0 -91 88.5 -143.5t233.5 -49.5q137 1 228 56.5t91 134.5
q0 36 -18 64.5t-43.5 46t-71.5 34t-81.5 24.5t-96 21.5t-94.5 22.5q-115 -26 -175.5 -81t-60.5 -130z" />
    <glyph glyph-name="Gdotaccent" unicode="&#x120;" horiz-adv-x="1378" 
d="M713 1714q-52 0 -87.5 39.5t-35.5 95.5t35.5 96t87.5 40t87.5 -40t35.5 -96t-35.5 -95.5t-87.5 -39.5zM768 -20q-109 0 -208.5 29.5t-187.5 92t-152.5 152t-102 218.5t-37.5 284q0 239 82.5 421.5t243 286t378.5 103.5q180 0 410 -74l-117 -340h-14q-35 156 -126 244
t-230 88q-396 0 -396 -703q0 -366 112 -548.5t322 -182.5q113 0 175.5 52t62.5 143v456q0 79 -34.5 134.5t-96.5 74.5v21h463v-21q-62 -19 -95.5 -74t-33.5 -135v-466q0 -79 25.5 -130t72.5 -63v-23q-242 -40 -516 -40z" />
    <glyph glyph-name="gdotaccent" unicode="&#x121;" horiz-adv-x="1019" 
d="M479 1247q-52 0 -86.5 38.5t-34.5 94.5q0 57 34.5 96.5t86.5 39.5t88.5 -39.5t36.5 -96.5q0 -56 -36.5 -94.5t-88.5 -38.5zM481 -440q-84 0 -162 14.5t-144 43t-106 77t-40 110.5q0 85 93 152.5t228 95.5q-164 59 -200 166l2 17q150 66 233 157q-127 25 -210 118.5
t-83 215.5q0 138 109.5 239t263.5 101q156 0 268 -104q40 66 96 108.5t111 42.5q42 0 71 -28t29 -72q0 -41 -26 -70t-62 -29q-33 0 -68 31t-53 31q-29 0 -69 -43q80 -96 80 -207q0 -141 -111 -241.5t-266 -100.5h-21q-67 -63 -67 -98q0 -29 34 -50t87.5 -35t119 -28t131 -35
t119 -50.5t87.5 -80.5t34 -119q0 -98 -71.5 -174.5t-186.5 -115.5t-250 -39zM283 727q0 -128 47.5 -202t134.5 -74q89 0 137.5 74t48.5 202q0 131 -46.5 202.5t-139.5 71.5q-90 0 -136 -72.5t-46 -201.5zM188 -178q0 -91 88.5 -143.5t233.5 -49.5q137 1 228 56.5t91 134.5
q0 36 -18 64.5t-43.5 46t-71.5 34t-81.5 24.5t-96 21.5t-94.5 22.5q-115 -26 -175.5 -81t-60.5 -130z" />
    <glyph glyph-name="Gcommaaccent" unicode="&#x122;" horiz-adv-x="1378" 
d="M768 -20q-109 0 -208.5 29.5t-187.5 92t-152.5 152t-102 218.5t-37.5 284q0 239 82.5 421.5t243 286t378.5 103.5q180 0 410 -74l-117 -340h-14q-35 156 -126 244t-230 88q-396 0 -396 -703q0 -366 112 -548.5t322 -182.5q113 0 175.5 52t62.5 143v456q0 79 -34.5 134.5
t-96.5 74.5v21h463v-21q-62 -19 -95.5 -74t-33.5 -135v-466q0 -79 25.5 -130t72.5 -63v-23q-242 -40 -516 -40zM836 -291q0 -78 -57 -157.5t-161 -137.5l-12 13q94 102 129 194q-62 5 -102.5 37.5t-40.5 81.5q0 46 34.5 77t86.5 31q50 0 86.5 -40.5t36.5 -98.5z" />
    <glyph glyph-name="gcommaaccent" unicode="&#x123;" horiz-adv-x="1019" 
d="M367 1395q0 78 56.5 157.5t160.5 137.5l14 -13q-100 -108 -131 -194q63 -5 104 -37.5t41 -81.5q0 -46 -34 -77.5t-86 -31.5q-51 0 -88 41t-37 99zM481 -440q-84 0 -162 14.5t-144 43t-106 77t-40 110.5q0 85 93 152.5t228 95.5q-164 59 -200 166l2 17q150 66 233 157
q-127 25 -210 118.5t-83 215.5q0 138 109.5 239t263.5 101q156 0 268 -104q40 66 96 108.5t111 42.5q42 0 71 -28t29 -72q0 -41 -26 -70t-62 -29q-33 0 -68 31t-53 31q-29 0 -69 -43q80 -96 80 -207q0 -141 -111 -241.5t-266 -100.5h-21q-67 -63 -67 -98q0 -29 34 -50
t87.5 -35t119 -28t131 -35t119 -50.5t87.5 -80.5t34 -119q0 -98 -71.5 -174.5t-186.5 -115.5t-250 -39zM283 727q0 -128 47.5 -202t134.5 -74q89 0 137.5 74t48.5 202q0 131 -46.5 202.5t-139.5 71.5q-90 0 -136 -72.5t-46 -201.5zM188 -178q0 -91 88.5 -143.5t233.5 -49.5
q137 1 228 56.5t91 134.5q0 36 -18 64.5t-43.5 46t-71.5 34t-81.5 24.5t-96 21.5t-94.5 22.5q-115 -26 -175.5 -81t-60.5 -130z" />
    <glyph glyph-name="Hcircumflex" unicode="&#x124;" horiz-adv-x="1419" 
d="M410 1655l208 356q30 50 92.5 48.5t90.5 -48.5l211 -356l-15 -10l-284 231h-8l-281 -231zM530 0h-460v23q59 15 94 71t35 137v1076q0 76 -34 133.5t-95 75.5v20h460v-20q-60 -18 -94.5 -76.5t-34.5 -132.5v-340h615v340q0 74 -34 132.5t-93 76.5v20h459v-20
q-60 -18 -94.5 -76t-34.5 -133v-1076q0 -81 35.5 -137t93.5 -71v-23h-459v23q57 15 92 71.5t35 136.5v662h-615v-662q0 -81 35 -137t94 -71v-23z" />
    <glyph glyph-name="hcircumflex" unicode="&#x125;" horiz-adv-x="1114" 
d="M-43 1679l207 357q30 50 92.5 48.5t89.5 -48.5l211 -357l-14 -10l-283 232h-10l-281 -232zM63 23q48 22 74.5 69.5t26.5 114.5v1077q0 78 -25 122t-82 64v21q172 26 279 133h18v-672q0 -73 -4 -131l2 -2q85 101 199.5 177.5t212.5 76.5q92 0 144.5 -64.5t52.5 -170.5
v-631q0 -67 23.5 -115.5t66.5 -68.5v-23h-385v23q104 58 104 182v553q0 75 -30.5 117t-90.5 43q-119 3 -295 -150v-563q0 -115 99 -182v-23h-390v23z" />
    <glyph glyph-name="Hbar" unicode="&#x126;" horiz-adv-x="1419" 
d="M530 0h-460v23q59 15 94 71t35 137v820h-133v73h133v183q0 76 -34 133.5t-95 75.5v20h460v-20q-60 -18 -94.5 -76.5t-34.5 -132.5v-183h615v183q0 74 -34 132.5t-93 76.5v20h459v-20q-60 -18 -94.5 -76t-34.5 -133v-183h135v-73h-135v-820q0 -81 35.5 -137t93.5 -71v-23
h-459v23q57 15 92 71.5t35 136.5v471h-615v-471q0 -81 35 -137t94 -71v-23zM401 776h615v275h-615v-275z" />
    <glyph glyph-name="hbar" unicode="&#x127;" horiz-adv-x="1114" 
d="M63 23q48 22 74.5 69.5t26.5 114.5v1016h-111v69h111q-1 75 -27 117t-80 61v21q172 26 279 133h18v-332h258v-69h-258v-271q0 -73 -4 -131l2 -2q85 101 199.5 177.5t212.5 76.5q92 0 144.5 -64.5t52.5 -170.5v-631q0 -67 23.5 -115.5t66.5 -68.5v-23h-385v23
q104 58 104 182v553q0 75 -30.5 117t-90.5 43q-119 3 -295 -150v-563q0 -115 99 -182v-23h-390v23z" />
    <glyph glyph-name="Itilde" unicode="&#x128;" horiz-adv-x="604" 
d="M399 1698q-37 0 -75 22t-64 48.5t-57 48.5t-56 22q-74 0 -108 -129l-19 4q9 132 57.5 201.5t127.5 69.5q37 0 74.5 -22.5t63 -49.5t57 -49.5t57.5 -22.5q39 0 67.5 33.5t40.5 97.5l19 -4q-10 -132 -58 -201t-127 -69zM532 0h-460v23q59 15 94 70t35 138v1076
q0 76 -34.5 133.5t-94.5 75.5v20h460v-20q-62 -18 -95.5 -75t-33.5 -134v-1076q0 -83 35.5 -138t93.5 -70v-23z" />
    <glyph glyph-name="itilde" unicode="&#x129;" horiz-adv-x="528" 
d="M354 1229q-37 0 -75 22t-63.5 48.5t-56 48.5t-55.5 22q-38 0 -66 -34.5t-44 -92.5l-19 4q10 132 58.5 200.5t126.5 68.5q38 0 76 -22.5t63.5 -49.5t56 -49.5t56.5 -22.5q41 0 69.5 34t38.5 99l19 -4q-9 -133 -57 -202.5t-128 -69.5zM72 0v20q50 19 77 67.5t27 121.5v524
q0 75 -22.5 124.5t-83.5 68.5v20q169 25 280 133h19v-870q0 -72 24.5 -121t67.5 -68v-20h-389z" />
    <glyph glyph-name="Imacron" unicode="&#x12a;" horiz-adv-x="604" 
d="M23 1743v100h559v-100h-559zM532 0h-460v23q59 15 94 70t35 138v1076q0 76 -34.5 133.5t-94.5 75.5v20h460v-20q-62 -18 -95.5 -75t-33.5 -134v-1076q0 -83 35.5 -138t93.5 -70v-23z" />
    <glyph glyph-name="imacron" unicode="&#x12b;" horiz-adv-x="528" 
d="M-20 1276v100h559v-100h-559zM72 0v20q50 19 77 67.5t27 121.5v524q0 75 -22.5 124.5t-83.5 68.5v20q169 25 280 133h19v-870q0 -72 24.5 -121t67.5 -68v-20h-389z" />
    <glyph glyph-name="Ibreve" unicode="&#x12c;" horiz-adv-x="604" 
d="M303 1675q-128 0 -206.5 96.5t-78.5 266.5l19 2q18 -97 93 -151t173 -54q97 0 170 53t92 152l21 -2q0 -170 -78 -266.5t-205 -96.5zM532 0h-460v23q59 15 94 70t35 138v1076q0 76 -34.5 133.5t-94.5 75.5v20h460v-20q-62 -18 -95.5 -75t-33.5 -134v-1076q0 -83 35.5 -138
t93.5 -70v-23z" />
    <glyph glyph-name="ibreve" unicode="&#x12d;" horiz-adv-x="528" 
d="M258 1208q-127 0 -205 96t-78 265l19 4q18 -98 92 -151.5t172 -53.5t171.5 53t92.5 152l19 -4q0 -169 -77.5 -265t-205.5 -96zM72 0v20q50 19 77 67.5t27 121.5v524q0 75 -22.5 124.5t-83.5 68.5v20q169 25 280 133h19v-870q0 -72 24.5 -121t67.5 -68v-20h-389z" />
    <glyph glyph-name="Iogonek" unicode="&#x12e;" horiz-adv-x="604" 
d="M276 -440q-88 0 -148 49t-60 127q0 137 194 264h-190v23q59 15 94 70t35 138v1076q0 76 -34.5 133.5t-94.5 75.5v20h460v-20q-62 -18 -95.5 -75t-33.5 -134v-1076q0 -83 35.5 -138t93.5 -70v-23h-229q-82 -91 -82 -197q0 -62 38 -99.5t95 -37.5q92 0 164 72l12 -10
q-42 -80 -107 -124t-147 -44z" />
    <glyph glyph-name="iogonek" unicode="&#x12f;" horiz-adv-x="528" 
d="M256 1247q-51 0 -86 38.5t-35 94.5q0 57 35 96.5t86 39.5q54 0 89.5 -39.5t35.5 -96.5q0 -56 -35.5 -94.5t-89.5 -38.5zM72 0v20q50 19 77 67.5t27 121.5v524q0 75 -22.5 124.5t-83.5 68.5v20q169 25 280 133h19v-870q0 -72 24.5 -121t67.5 -68v-20h-127
q-80 -89 -80 -197q0 -62 37 -99.5t94 -37.5q91 0 166 72l12 -10q-42 -79 -107.5 -123.5t-146.5 -44.5q-89 0 -149 49t-60 127q0 137 193 264h-221z" />
    <glyph glyph-name="Idotaccent" unicode="&#x130;" horiz-adv-x="604" 
d="M303 1714q-52 0 -87.5 39.5t-35.5 95.5t35.5 96t87.5 40t87.5 -40t35.5 -96t-35.5 -95.5t-87.5 -39.5zM532 0h-460v23q59 15 94 70t35 138v1076q0 76 -34.5 133.5t-94.5 75.5v20h460v-20q-62 -18 -95.5 -75t-33.5 -134v-1076q0 -83 35.5 -138t93.5 -70v-23z" />
    <glyph glyph-name="dotlessi" unicode="&#x131;" horiz-adv-x="528" 
d="M72 0v20q50 19 77 67.5t27 121.5v524q0 75 -22.5 124.5t-83.5 68.5v20q169 25 280 133h19v-870q0 -72 24.5 -121t67.5 -68v-20h-389z" />
    <glyph glyph-name="IJ" unicode="&#x132;" horiz-adv-x="1189" 
d="M596 -31q-90 0 -162 21t-113.5 54.5t-63 72t-21.5 76.5q0 49 33.5 84.5t88.5 35.5q108 0 140 -139q19 -71 47.5 -105t85.5 -34q79 0 131.5 88.5t52.5 259.5v911q0 85 -35 144t-98 78v20h453v-20q-56 -15 -86.5 -74.5t-30.5 -147.5v-911q0 -100 -33.5 -180t-92 -130.5
t-134 -77t-162.5 -26.5zM53 565v23q58 15 92.5 70.5t34.5 138.5v510q0 77 -33.5 134t-93.5 75v20h459v-20q-60 -18 -94.5 -75.5t-34.5 -133.5v-510q0 -83 35.5 -138.5t93.5 -70.5v-23h-459z" />
    <glyph glyph-name="ij" unicode="&#x133;" horiz-adv-x="1036" 
d="M653 1380q0 57 35.5 96.5t87.5 39.5t87.5 -39.5t35.5 -96.5q0 -56 -35.5 -94.5t-87.5 -38.5t-87.5 38.5t-35.5 94.5zM256 1247q-51 0 -86 38.5t-35 94.5q0 57 35 96.5t86 39.5q54 0 89.5 -39.5t35.5 -96.5q0 -56 -35.5 -94.5t-89.5 -38.5zM393 -281q0 42 24.5 71.5
t63.5 29.5q32 0 57.5 -21t40.5 -45.5t41.5 -45.5t59.5 -21q45 0 73.5 41t28.5 104q0 56 -24.5 109.5t-63.5 83.5v708q0 74 -22.5 124t-81.5 69v20q169 26 280 133h17v-1153q0 -157 -87.5 -258.5t-211.5 -101.5q-78 0 -136.5 42t-58.5 111zM72 0v20q50 19 77 67.5t27 121.5
v524q0 75 -22.5 124.5t-83.5 68.5v20q169 25 280 133h19v-870q0 -72 24.5 -121t67.5 -68v-20h-389z" />
    <glyph glyph-name="Jcircumflex" unicode="&#x134;" horiz-adv-x="927" 
d="M352 1655l207 356q30 50 92.5 48.5t89.5 -48.5l211 -356l-14 -10l-283 231h-10l-280 -231zM344 -31q-88 0 -158 21.5t-111 55.5t-62 73t-21 78q0 52 32.5 88.5t86.5 36.5q101 0 137 -144q15 -71 44 -107t87 -36q77 0 128.5 88.5t51.5 259.5v911q0 85 -35 144t-98 78v20
h453v-20q-56 -15 -86.5 -74.5t-30.5 -147.5v-911q0 -100 -33 -180t-91 -130.5t-133 -77t-161 -26.5z" />
    <glyph glyph-name="jcircumflex" unicode="&#x135;" horiz-adv-x="509" 
d="M-23 1186l209 356q30 50 92 48.5t89 -48.5l213 -356l-15 -10l-284 231h-9l-280 -231zM-131 -279q0 43 23.5 72t62.5 29q32 0 57.5 -21t40 -46.5t39 -46.5t55.5 -21q42 0 66.5 34.5t26.5 88.5q3 57 -19.5 127t-50.5 118v678q0 159 -107 193v20q80 12 154.5 47t126.5 86h16
v-1145q0 -157 -86.5 -262.5t-205.5 -105.5q-82 0 -140.5 42t-58.5 113z" />
    <glyph glyph-name="Kcommaaccent" unicode="&#x136;" horiz-adv-x="1333" 
d="M528 0h-458v23q59 15 94 70t35 138v1076q0 78 -33.5 134.5t-95.5 74.5v20h458v-20q-60 -18 -94.5 -75.5t-34.5 -133.5v-539l471 516q60 67 54 134t-78 98v20h422v-20q-147 -62 -344 -283l-219 -242l448 -778q87 -153 172 -188v-25h-430v25q42 22 57 50t8 59.5t-32 76.5
l-369 623l-160 -177v-426q0 -83 35.5 -138t93.5 -70v-23zM823 -291q0 -78 -56.5 -157.5t-160.5 -137.5l-14 13q98 106 131 194q-62 5 -102.5 37.5t-40.5 81.5q0 46 33 77t85 31q51 0 88 -40.5t37 -98.5z" />
    <glyph glyph-name="kcommaaccent" unicode="&#x137;" horiz-adv-x="1019" 
d="M354 1624v-1094l285 318q49 60 39.5 104t-66.5 70v20h361v-20q-119 -48 -256 -201l-142 -153l291 -473q89 -147 148 -172v-23h-379v23q92 33 10 172l-201 329l-90 -100v-215q0 -71 26 -119t71 -67v-23h-377v23q42 18 66 65.5t24 118.5v1071q0 79 -25.5 125.5t-81.5 66.5
v21q80 12 153.5 47t125.5 86h18zM647 -291q0 -78 -56.5 -157.5t-160.5 -137.5l-14 13q96 101 131 194q-63 5 -103.5 37.5t-40.5 81.5q0 46 34 77t85 31t88 -40.5t37 -98.5z" />
    <glyph glyph-name="Lacute" unicode="&#x139;" horiz-adv-x="1075" 
d="M393 2021q19 21 41 33t48 10.5t48 -20.5q32 -28 31 -68t-31 -71q-29 -34 -138.5 -111.5t-188.5 -144.5l-15 14q61 94 118.5 209.5t86.5 148.5zM819 0h-749v23q61 17 95 71.5t34 136.5v1076q0 84 -34 137.5t-95 71.5v20h460v-20q-61 -17 -95 -72t-34 -137v-1065
q0 -176 164 -176q151 0 263.5 79.5t213.5 243.5l19 -2l-90 -438h-23q-40 51 -129 51z" />
    <glyph glyph-name="lacute" unicode="&#x13a;" horiz-adv-x="514" 
d="M340 2048q18 21 40 32.5t48 10.5t47 -20q32 -27 32 -68t-30 -74q-25 -28 -70 -60.5l-117 -84.5t-140 -109l-17 13q62 94 119.5 210.5t87.5 149.5zM356 1624v-1413q0 -72 26 -120.5t71 -67.5v-23h-379v23q43 17 66.5 66t23.5 122v1067q0 156 -107 192v21q80 12 154.5 47
t126.5 86h18z" />
    <glyph glyph-name="Lcommaaccent" unicode="&#x13b;" horiz-adv-x="1075" 
d="M819 0h-749v23q61 17 95 71.5t34 136.5v1076q0 84 -34 137.5t-95 71.5v20h460v-20q-61 -17 -95 -72t-34 -137v-1065q0 -176 164 -176q151 0 263.5 79.5t213.5 243.5l19 -2l-90 -438h-23q-40 51 -129 51zM666 -291q0 -78 -56.5 -157.5t-160.5 -137.5l-15 13
q100 108 129 194q-61 5 -102 37.5t-41 81.5q0 46 34.5 77t86.5 31q51 0 88 -40.5t37 -98.5z" />
    <glyph glyph-name="lcommaaccent" unicode="&#x13c;" horiz-adv-x="514" 
d="M356 1624v-1413q0 -72 26 -120.5t71 -67.5v-23h-379v23q43 17 66.5 66t23.5 122v1067q0 156 -107 192v21q80 12 154.5 47t126.5 86h18zM383 -291q0 -78 -56.5 -157.5t-160.5 -137.5l-14 13q100 108 129 194q-61 5 -102.5 38t-41.5 81q0 46 34.5 77t86.5 31q51 0 88 -40.5
t37 -98.5z" />
    <glyph glyph-name="Lcaron" unicode="&#x13d;" horiz-adv-x="1075" 
d="M737 1489q11 36 39 54.5t62 8.5q33 -10 44 -43t-1 -65q-10 -41 -68 -137.5t-96 -176.5l-10 7q12 90 15 202.5t15 149.5zM819 0h-749v23q61 17 95 71.5t34 136.5v1076q0 84 -34 137.5t-95 71.5v20h460v-20q-61 -17 -95 -72t-34 -137v-1065q0 -176 164 -176
q151 0 263.5 79.5t213.5 243.5l19 -2l-90 -438h-23q-40 51 -129 51z" />
    <glyph glyph-name="lcaron" unicode="&#x13e;" horiz-adv-x="514" 
d="M356 1624v-1413q0 -72 26 -120.5t71 -67.5v-23h-379v23q43 17 66.5 66t23.5 122v1067q0 156 -107 192v21q80 12 154.5 47t126.5 86h18zM479 1552q9 36 38 55t63 9q32 -10 42.5 -42t0.5 -67q-11 -39 -68 -133.5t-96 -179.5l-13 6q14 91 18 203t15 149z" />
    <glyph glyph-name="Ldot" unicode="&#x13f;" horiz-adv-x="1132" 
d="M819 0h-749v23q61 17 95 71.5t34 136.5v1076q0 84 -34 137.5t-95 71.5v20h460v-20q-61 -17 -95 -72t-34 -137v-1065q0 -176 164 -176q151 0 263.5 79.5t213.5 243.5l19 -2l-90 -438h-23q-40 51 -129 51zM866 727q-52 0 -86.5 38.5t-34.5 94.5q0 57 34.5 96t86.5 39
q53 0 89 -39t36 -96q0 -56 -36.5 -94.5t-88.5 -38.5z" />
    <glyph glyph-name="ldot" unicode="&#x140;" horiz-adv-x="675" 
d="M356 1624v-1413q0 -72 26 -120.5t71 -67.5v-23h-379v23q43 17 66.5 66t23.5 122v1067q0 156 -107 192v21q80 12 154.5 47t126.5 86h18zM592 535q-52 0 -86.5 38.5t-34.5 94.5q0 57 34.5 96t86.5 39q53 0 89 -39t36 -96q0 -56 -36.5 -94.5t-88.5 -38.5z" />
    <glyph glyph-name="Lslash" unicode="&#x141;" horiz-adv-x="1132" 
d="M45 651v70l154 43v543q0 84 -34 137.5t-95 71.5v20h460v-20q-61 -17 -95 -72t-34 -137v-486l379 107v-70l-379 -108v-508q0 -176 164 -176q151 0 263.5 79.5t213.5 243.5l19 -2l-90 -438h-23q-40 51 -129 51h-749v23q61 17 95 71.5t34 136.5v463z" />
    <glyph glyph-name="lslash" unicode="&#x142;" horiz-adv-x="514" 
d="M66 623v77l98 39v539q0 156 -107 192v21q80 12 154.5 47t126.5 86h18v-811l105 41v-78l-105 -41v-524q0 -72 26 -120.5t71 -67.5v-23h-379v23q43 17 66.5 66t23.5 122v451z" />
    <glyph glyph-name="Nacute" unicode="&#x143;" horiz-adv-x="1325" 
d="M766 2011q28 33 63.5 41.5t71.5 -18.5q32 -27 32 -68t-30 -72q-30 -33 -138.5 -110.5t-189.5 -145.5l-16 15q63 95 121 210.5t86 147.5zM1149 -41h-21l-849 1329v-1034q0 -88 37 -149t100 -82v-23h-350v23q62 20 97.5 81t35.5 150v1051q0 72 -34 131.5t-93 79.5v20h295
l702 -1108v856q0 83 -34.5 148t-98.5 84v20h332v-20q-57 -18 -88 -82.5t-31 -149.5v-1325z" />
    <glyph glyph-name="nacute" unicode="&#x144;" horiz-adv-x="1126" 
d="M676 1554q31 33 65 41t72 -18q31 -29 31 -68.5t-29 -72.5q-30 -34 -139 -110t-191 -144l-14 12q61 94 118.5 210.5t86.5 149.5zM68 23q108 49 108 188v528q0 83 -24.5 125t-83.5 62v20q173 26 280 133h17v-123q0 -90 -3 -133l3 -2q84 102 197.5 177t211.5 75
q92 0 145.5 -64.5t53.5 -170.5v-627q0 -147 90 -188v-23h-383v23q53 30 77.5 74t24.5 112v549q0 157 -120 160q-118 3 -297 -146v-563q0 -125 104 -186v-23h-401v23z" />
    <glyph glyph-name="Ncommaaccent" unicode="&#x145;" horiz-adv-x="1325" 
d="M1149 -41h-21l-849 1329v-1034q0 -88 37 -149t100 -82v-23h-350v23q62 20 97.5 81t35.5 150v1051q0 72 -34 131.5t-93 79.5v20h295l702 -1108v856q0 83 -34.5 148t-98.5 84v20h332v-20q-57 -18 -88 -82.5t-31 -149.5v-1325zM795 -291q0 -78 -56.5 -157.5t-160.5 -137.5
l-13 13q94 102 129 194q-62 5 -102.5 37.5t-40.5 81.5q0 46 34.5 77t86.5 31q50 0 86.5 -40.5t36.5 -98.5z" />
    <glyph glyph-name="ncommaaccent" unicode="&#x146;" horiz-adv-x="1126" 
d="M68 23q108 49 108 188v528q0 83 -24.5 125t-83.5 62v20q173 26 280 133h17v-123q0 -90 -3 -133l3 -2q84 102 197.5 177t211.5 75q92 0 145.5 -64.5t53.5 -170.5v-627q0 -147 90 -188v-23h-383v23q53 30 77.5 74t24.5 112v549q0 157 -120 160q-118 3 -297 -146v-563
q0 -125 104 -186v-23h-401v23zM688 -291q0 -78 -56.5 -157.5t-160.5 -137.5l-14 13q96 101 131 194q-63 5 -103.5 37.5t-40.5 81.5q0 46 33.5 77t85.5 31q51 0 88 -40.5t37 -98.5z" />
    <glyph glyph-name="Ncaron" unicode="&#x147;" horiz-adv-x="1325" 
d="M981 2071l-209 -357q-30 -50 -92 -48.5t-90 48.5l-211 357l14 10l285 -232h8l281 232zM1149 -41h-21l-849 1329v-1034q0 -88 37 -149t100 -82v-23h-350v23q62 20 97.5 81t35.5 150v1051q0 72 -34 131.5t-93 79.5v20h295l702 -1108v856q0 83 -34.5 148t-98.5 84v20h332
v-20q-57 -18 -88 -82.5t-31 -149.5v-1325z" />
    <glyph glyph-name="ncaron" unicode="&#x148;" horiz-adv-x="1126" 
d="M891 1614l-207 -357q-30 -50 -92.5 -48.5t-89.5 48.5l-213 357l14 10l285 -231h8l283 231zM68 23q108 49 108 188v528q0 83 -24.5 125t-83.5 62v20q173 26 280 133h17v-123q0 -90 -3 -133l3 -2q84 102 197.5 177t211.5 75q92 0 145.5 -64.5t53.5 -170.5v-627
q0 -147 90 -188v-23h-383v23q53 30 77.5 74t24.5 112v549q0 157 -120 160q-118 3 -297 -146v-563q0 -125 104 -186v-23h-401v23z" />
    <glyph glyph-name="Eng" unicode="&#x14a;" horiz-adv-x="1325" 
d="M885 -426q-105 0 -163 51.5t-58 124.5q0 38 29 68t73 30q37 0 62.5 -18.5t39 -44.5t24.5 -52t26.5 -44.5t37.5 -18.5q50 0 81.5 53.5t31.5 157.5v168l-790 1243v-1038q0 -88 37 -149t100 -82v-23h-350v23q62 20 97.5 81t35.5 150v1051q0 72 -34 131.5t-93 79.5v20h295
l702 -1112v860q0 83 -34.5 148t-98.5 84v20h332v-20q-57 -18 -88 -82.5t-31 -149.5v-1403q0 -148 -74 -227.5t-190 -79.5z" />
    <glyph glyph-name="eng" unicode="&#x14b;" horiz-adv-x="1124" 
d="M68 0v23q108 49 108 188v528q0 83 -24.5 125t-83.5 62v20q173 26 280 133h17v-123q0 -27 -1.5 -74t-1.5 -59l3 -2q84 102 197.5 177t211.5 75q92 0 145.5 -64.5t53.5 -170.5v-912q0 -157 -87.5 -258.5t-211.5 -101.5q-78 0 -135.5 42t-57.5 111q0 42 24.5 71.5t63.5 29.5
q31 0 56.5 -21t40.5 -45.5t41 -45.5t59 -21q45 0 73.5 39t28.5 96q0 55 -23.5 104.5t-62.5 79.5v752q0 157 -120 160q-118 3 -297 -146v-563q0 -125 104 -186v-23h-401z" />
    <glyph glyph-name="Omacron" unicode="&#x14c;" horiz-adv-x="1396" 
d="M418 1743v100h561v-100h-561zM80 768q0 218 80 401t223 290.5t317 107.5q130 0 245 -63t196.5 -170.5t128.5 -254.5t47 -311q0 -218 -81 -401.5t-223 -290.5t-313 -107q-170 0 -313 107.5t-225 291t-82 400.5zM313 768q0 -332 100.5 -528.5t286.5 -196.5q123 0 210.5 92
t130 253.5t42.5 379.5q0 336 -96.5 530.5t-286.5 194.5q-128 0 -216 -92.5t-129.5 -253t-41.5 -379.5z" />
    <glyph glyph-name="omacron" unicode="&#x14d;" horiz-adv-x="1058" 
d="M250 1276v100h559v-100h-559zM72 524q0 113 35.5 215t96 175t145.5 116t179 43q127 0 232.5 -72.5t166 -198.5t60.5 -278t-62 -280t-167.5 -201.5t-229.5 -73.5t-229 74t-166 202t-61 279zM281 524q0 -220 65 -354.5t182 -134.5q79 0 136 63t85.5 172.5t28.5 253.5
q0 220 -64 352t-186 132q-120 0 -183.5 -132.5t-63.5 -351.5z" />
    <glyph glyph-name="Obreve" unicode="&#x14e;" horiz-adv-x="1396" 
d="M698 1675q-128 0 -205 96t-77 267l18 2q18 -97 92.5 -151t171.5 -54q98 0 172 53t93 152l18 -2q0 -170 -77.5 -266.5t-205.5 -96.5zM80 768q0 218 80 401t223 290.5t317 107.5q130 0 245 -63t196.5 -170.5t128.5 -254.5t47 -311q0 -218 -81 -401.5t-223 -290.5t-313 -107
q-170 0 -313 107.5t-225 291t-82 400.5zM313 768q0 -332 100.5 -528.5t286.5 -196.5q123 0 210.5 92t130 253.5t42.5 379.5q0 336 -96.5 530.5t-286.5 194.5q-128 0 -216 -92.5t-129.5 -253t-41.5 -379.5z" />
    <glyph glyph-name="obreve" unicode="&#x14f;" horiz-adv-x="1058" 
d="M528 1208q-127 0 -204.5 96t-77.5 265l18 4q18 -98 92 -151.5t172 -53.5t172 53t93 152l20 -4q0 -169 -78.5 -265t-206.5 -96zM72 524q0 113 35.5 215t96 175t145.5 116t179 43q127 0 232.5 -72.5t166 -198.5t60.5 -278t-62 -280t-167.5 -201.5t-229.5 -73.5t-229 74
t-166 202t-61 279zM281 524q0 -220 65 -354.5t182 -134.5q79 0 136 63t85.5 172.5t28.5 253.5q0 220 -64 352t-186 132q-120 0 -183.5 -132.5t-63.5 -351.5z" />
    <glyph glyph-name="Ohungarumlaut" unicode="&#x150;" horiz-adv-x="1396" 
d="M911 2023q22 32 53.5 43t67.5 -8q30 -20 33.5 -56.5t-18.5 -68.5q-24 -35 -113.5 -120t-151.5 -152l-14 10q42 89 81 203t62 149zM627 2023q22 32 52 43t66 -8q31 -20 35.5 -56.5t-18.5 -68.5q-24 -35 -115 -121t-151 -151l-15 10q41 88 81.5 202.5t64.5 149.5zM80 768
q0 218 80 401t223 290.5t317 107.5q130 0 245 -63t196.5 -170.5t128.5 -254.5t47 -311q0 -218 -81 -401.5t-223 -290.5t-313 -107q-170 0 -313 107.5t-225 291t-82 400.5zM313 768q0 -332 100.5 -528.5t286.5 -196.5q123 0 210.5 92t130 253.5t42.5 379.5q0 336 -96.5 530.5
t-286.5 194.5q-128 0 -216 -92.5t-129.5 -253t-41.5 -379.5z" />
    <glyph glyph-name="ohungarumlaut" unicode="&#x151;" horiz-adv-x="1058" 
d="M743 1554q22 33 53 44.5t66 -7.5q31 -19 34.5 -57.5t-17.5 -69.5q-23 -32 -113 -117t-154 -155l-14 12q41 87 81 201t64 149zM457 1554q22 33 53 44.5t68 -7.5q30 -20 33.5 -57.5t-19.5 -69.5q-23 -33 -112 -118t-152 -154l-17 12q41 87 81.5 201t64.5 149zM72 524
q0 113 35.5 215t96 175t145.5 116t179 43q127 0 232.5 -72.5t166 -198.5t60.5 -278t-62 -280t-167.5 -201.5t-229.5 -73.5t-229 74t-166 202t-61 279zM281 524q0 -220 65 -354.5t182 -134.5q79 0 136 63t85.5 172.5t28.5 253.5q0 220 -64 352t-186 132q-120 0 -183.5 -132.5
t-63.5 -351.5z" />
    <glyph glyph-name="OE" unicode="&#x152;" horiz-adv-x="2039" 
d="M1741 0h-524q-170 -16 -349 -16q-241 0 -417.5 101.5t-266.5 280.5t-90 414q0 164 41 295.5t110.5 219.5t166.5 147.5t205 85.5t229 26q91 0 336 -18h526q94 0 135 51h19l63 -416l-20 -4q-89 158 -207.5 230.5t-296.5 72.5q-203 0 -203 -174v-417h326q93 0 157.5 36.5
t100.5 122.5h16v-401h-16q-95 168 -256 168h-328v-559q0 -87 55 -133.5t156 -46.5q192 0 326 82t237 249l17 -2l-97 -446h-22q-45 51 -129 51zM997 233v1057q0 91 -46.5 142t-135.5 51q-121 0 -210.5 -37t-152.5 -116.5t-94.5 -210.5t-31.5 -314q0 -354 130 -551t367 -197
q89 0 131.5 42.5t42.5 133.5z" />
    <glyph glyph-name="oe" unicode="&#x153;" horiz-adv-x="1687" 
d="M72 524q0 113 36 215t97 175t146 116t179 43q115 0 211.5 -62t159.5 -171q61 108 155 170.5t206 62.5q158 0 259 -118.5t101 -301.5v-43h-641v-24q0 -213 91.5 -339t236.5 -126q88 0 161 44t117 124l23 -13q-42 -141 -148.5 -224t-234.5 -83q-103 0 -195 54.5t-149 156.5
q-62 -98 -155.5 -154.5t-197.5 -56.5q-124 0 -229.5 74t-167 202t-61.5 279zM780 524q0 220 -64 352t-186 132q-121 0 -184 -132t-63 -352t64.5 -354.5t182.5 -134.5q117 0 183.5 135t66.5 354zM1219 999q-87 0 -152.5 -82t-81.5 -239h442q0 143 -57.5 232t-150.5 89z" />
    <glyph glyph-name="Racute" unicode="&#x154;" horiz-adv-x="1243" 
d="M711 2021q19 21 41 33t48 10.5t48 -20.5q32 -28 31 -68t-31 -71q-24 -28 -68.5 -61t-118 -85.5t-141.5 -109.5l-14 14q61 94 118.5 209.5t86.5 148.5zM70 1516q266 40 503 40q261 0 415.5 -124t154.5 -328q0 -94 -31 -174t-85 -136.5t-122 -94.5t-147 -58
q87 -199 232 -402t298 -337l-10 -19q-236 91 -430.5 284t-308.5 460q-73 6 -140 24v-420q0 -80 34 -135.5t95 -72.5v-23h-458v23q62 15 95.5 70t33.5 138v1065q0 77 -33 128.5t-96 70.5v21zM399 1296v-583q84 -17 156 -17q176 0 269.5 98t93.5 279q0 186 -90.5 301
t-229.5 115q-92 0 -145.5 -51t-53.5 -142z" />
    <glyph glyph-name="racute" unicode="&#x155;" horiz-adv-x="761" 
d="M498 1554q18 21 40 32.5t48 10.5t47 -20q31 -29 31 -68.5t-29 -72.5q-30 -34 -139 -110t-191 -144l-14 12q62 94 119.5 210.5t87.5 149.5zM365 954q0 -49 -5 -94l5 -2q46 89 119 152t145 63q53 0 90 -37.5t37 -93.5q0 -51 -30.5 -84t-70.5 -33q-33 0 -60.5 20.5t-53 41
t-52.5 20.5q-30 0 -58.5 -23.5t-65.5 -72.5v-600q0 -131 108 -188v-23h-405v23q108 50 108 188v528q0 83 -24.5 125t-83.5 62v20q169 26 280 133h17v-125z" />
    <glyph glyph-name="Rcommaaccent" unicode="&#x156;" horiz-adv-x="1243" 
d="M70 1516q266 40 503 40q261 0 415.5 -124t154.5 -328q0 -94 -31 -174t-85 -136.5t-122 -94.5t-147 -58q87 -199 232 -402t298 -337l-10 -19q-236 91 -430.5 284t-308.5 460q-73 6 -140 24v-420q0 -80 34 -135.5t95 -72.5v-23h-458v23q62 15 95.5 70t33.5 138v1065
q0 77 -33 128.5t-96 70.5v21zM399 1296v-583q84 -17 156 -17q176 0 269.5 98t93.5 279q0 186 -90.5 301t-229.5 115q-92 0 -145.5 -51t-53.5 -142zM758 -291q0 -78 -56.5 -157.5t-160.5 -137.5l-15 13q96 101 131 194q-62 5 -102.5 37.5t-40.5 81.5q0 46 33.5 77t85.5 31
q51 0 88 -40.5t37 -98.5z" />
    <glyph glyph-name="rcommaaccent" unicode="&#x157;" horiz-adv-x="761" 
d="M365 954q0 -49 -5 -94l5 -2q46 89 119 152t145 63q53 0 90 -37.5t37 -93.5q0 -51 -30.5 -84t-70.5 -33q-33 0 -60.5 20.5t-53 41t-52.5 20.5q-30 0 -58.5 -23.5t-65.5 -72.5v-600q0 -131 108 -188v-23h-405v23q108 50 108 188v528q0 83 -24.5 125t-83.5 62v20
q169 26 280 133h17v-125zM391 -291q0 -77 -57.5 -157t-161.5 -138l-12 13q94 102 129 194q-63 5 -103.5 37.5t-40.5 81.5q0 46 34.5 77t86.5 31q51 0 88 -40.5t37 -98.5z" />
    <glyph glyph-name="Rcaron" unicode="&#x158;" horiz-adv-x="1243" 
d="M926 2081l-209 -357q-30 -50 -91.5 -48.5t-88.5 48.5l-213 357l14 10l285 -231h8l280 231zM70 1516q266 40 503 40q261 0 415.5 -124t154.5 -328q0 -94 -31 -174t-85 -136.5t-122 -94.5t-147 -58q87 -199 232 -402t298 -337l-10 -19q-236 91 -430.5 284t-308.5 460
q-73 6 -140 24v-420q0 -80 34 -135.5t95 -72.5v-23h-458v23q62 15 95.5 70t33.5 138v1065q0 77 -33 128.5t-96 70.5v21zM399 1296v-583q84 -17 156 -17q176 0 269.5 98t93.5 279q0 186 -90.5 301t-229.5 115q-92 0 -145.5 -51t-53.5 -142z" />
    <glyph glyph-name="rcaron" unicode="&#x159;" horiz-adv-x="761" 
d="M711 1614l-207 -357q-30 -50 -92.5 -48.5t-89.5 48.5l-211 357l12 10l285 -231h10l280 231zM365 954q0 -49 -5 -94l5 -2q46 89 119 152t145 63q53 0 90 -37.5t37 -93.5q0 -51 -30.5 -84t-70.5 -33q-33 0 -60.5 20.5t-53 41t-52.5 20.5q-30 0 -58.5 -23.5t-65.5 -72.5
v-600q0 -131 108 -188v-23h-405v23q108 50 108 188v528q0 83 -24.5 125t-83.5 62v20q169 26 280 133h17v-125z" />
    <glyph glyph-name="Sacute" unicode="&#x15a;" horiz-adv-x="1165" 
d="M672 2021q19 21 41 33t48 10.5t48 -20.5q32 -28 31 -68t-31 -71q-24 -28 -68.5 -61t-118 -85.5t-141.5 -109.5l-14 14q61 94 118.5 209.5t86.5 148.5zM1085 446q0 -207 -154 -342t-403 -135q-123 0 -259.5 32.5t-243.5 76.5l143 364h22q27 -182 131 -285.5t269 -103.5
q156 0 252 88t96 215q0 42 -11.5 78.5t-27 63.5t-47 54t-55.5 44t-69.5 38.5t-73 33t-79.5 32.5q-48 19 -72.5 29t-69 29.5t-69.5 34t-61.5 38t-57 44.5t-45 51.5t-37 62t-21.5 71t-9 83.5q0 185 134.5 304.5t355.5 119.5q190 0 397 -62l-102 -336h-23q-26 146 -118.5 230
t-227.5 84q-116 0 -192 -69t-76 -183q0 -51 20 -93.5t49.5 -72.5t79.5 -59t93.5 -48t107.5 -45l45 -18q50 -20 87.5 -36.5t82.5 -41t77.5 -49t64.5 -59t52 -72.5t32.5 -86.5t12.5 -104.5z" />
    <glyph glyph-name="sacute" unicode="&#x15b;" horiz-adv-x="876" 
d="M528 1554q29 32 64.5 40.5t71.5 -17.5q31 -29 31 -68.5t-29 -72.5q-30 -34 -139 -110t-191 -144l-14 12q62 94 119 210.5t87 149.5zM811 313q0 -154 -117.5 -248t-300.5 -94q-162 0 -354 70l108 281h17q22 -133 107.5 -204t199.5 -71q92 0 150.5 51t58.5 131
q0 34 -14 62.5t-34 48t-55.5 38t-65 30t-75.5 28.5q-19 7 -28 10q-53 19 -88 34.5t-79 42.5t-69.5 57t-44 76t-18.5 102q0 136 106.5 225.5t280.5 89.5q133 0 256 -45l-70 -252h-18q-23 104 -91.5 164.5t-154.5 60.5q-80 0 -129 -47.5t-49 -115.5q0 -18 4.5 -34.5t10.5 -30
t19.5 -26.5t23 -22.5t30 -20.5t32.5 -17.5t37.5 -17t38.5 -15.5t42.5 -15.5t41.5 -15.5q50 -19 86 -35t77.5 -43.5t67 -57.5t43 -75t17.5 -99z" />
    <glyph glyph-name="Scircumflex" unicode="&#x15c;" horiz-adv-x="1165" 
d="M285 1655l207 356q30 50 92.5 48.5t89.5 -48.5l211 -356l-15 -10l-282 231h-10l-281 -231zM1085 446q0 -207 -154 -342t-403 -135q-123 0 -259.5 32.5t-243.5 76.5l143 364h22q27 -182 131 -285.5t269 -103.5q156 0 252 88t96 215q0 42 -11.5 78.5t-27 63.5t-47 54
t-55.5 44t-69.5 38.5t-73 33t-79.5 32.5q-48 19 -72.5 29t-69 29.5t-69.5 34t-61.5 38t-57 44.5t-45 51.5t-37 62t-21.5 71t-9 83.5q0 185 134.5 304.5t355.5 119.5q190 0 397 -62l-102 -336h-23q-26 146 -118.5 230t-227.5 84q-116 0 -192 -69t-76 -183q0 -51 20 -93.5
t49.5 -72.5t79.5 -59t93.5 -48t107.5 -45l45 -18q50 -20 87.5 -36.5t82.5 -41t77.5 -49t64.5 -59t52 -72.5t32.5 -86.5t12.5 -104.5z" />
    <glyph glyph-name="scircumflex" unicode="&#x15d;" horiz-adv-x="876" 
d="M139 1186l207 356q30 50 92.5 48.5t89.5 -48.5l213 -356l-14 -10l-285 231h-8l-282 -231zM811 313q0 -154 -117.5 -248t-300.5 -94q-162 0 -354 70l108 281h17q22 -133 107.5 -204t199.5 -71q92 0 150.5 51t58.5 131q0 34 -14 62.5t-34 48t-55.5 38t-65 30t-75.5 28.5
q-19 7 -28 10q-53 19 -88 34.5t-79 42.5t-69.5 57t-44 76t-18.5 102q0 136 106.5 225.5t280.5 89.5q133 0 256 -45l-70 -252h-18q-23 104 -91.5 164.5t-154.5 60.5q-80 0 -129 -47.5t-49 -115.5q0 -18 4.5 -34.5t10.5 -30t19.5 -26.5t23 -22.5t30 -20.5t32.5 -17.5t37.5 -17
t38.5 -15.5t42.5 -15.5t41.5 -15.5q50 -19 86 -35t77.5 -43.5t67 -57.5t43 -75t17.5 -99z" />
    <glyph glyph-name="Scedilla" unicode="&#x15e;" horiz-adv-x="1165" 
d="M494 -193l34 162q-123 0 -259.5 32.5t-243.5 76.5l143 364h22q27 -182 131 -285.5t269 -103.5q156 0 252 88t96 215q0 42 -11.5 78.5t-27 63.5t-47 54t-55.5 44t-69.5 38.5t-73 33t-79.5 32.5q-48 19 -72.5 29t-69 29.5t-69.5 34t-61.5 38t-57 44.5t-45 51.5t-37 62
t-21.5 71t-9 83.5q0 185 134.5 304.5t355.5 119.5q190 0 397 -62l-102 -336h-23q-26 146 -118.5 230t-227.5 84q-116 0 -192 -69t-76 -183q0 -51 20 -93.5t49.5 -72.5t79.5 -59t93.5 -48t107.5 -45l45 -18q50 -20 87.5 -36.5t82.5 -41t77.5 -49t64.5 -59t52 -72.5
t32.5 -86.5t12.5 -104.5q0 -195 -138 -327.5t-365 -147.5l-11 -51q92 -8 148.5 -54.5t56.5 -119.5q0 -84 -73.5 -142.5t-170.5 -58.5q-91 0 -149.5 32t-58.5 81q0 31 19 53.5t52 22.5q32 0 55 -20.5t31 -53.5q7 -36 22 -51t42 -15q44 0 73 25.5t29 75.5q0 105 -139 112h-14z
" />
    <glyph glyph-name="scedilla" unicode="&#x15f;" horiz-adv-x="876" 
d="M358 -199l35 170q-162 0 -354 70l108 281h17q22 -133 107.5 -204t199.5 -71q92 0 150.5 51t58.5 131q0 34 -14 62.5t-34 48t-55.5 38t-65 30t-75.5 28.5q-19 7 -28 10q-53 19 -88 34.5t-79 42.5t-69.5 57t-44 76t-18.5 102q0 136 106.5 225.5t280.5 89.5q133 0 256 -45
l-70 -252h-18q-23 104 -91.5 164.5t-154.5 60.5q-80 0 -129 -47.5t-49 -115.5q0 -18 4.5 -34.5t10.5 -30t19.5 -26.5t23 -22.5t30 -20.5t32.5 -17.5t37.5 -17t38.5 -15.5t42.5 -15.5t41.5 -15.5q50 -19 86 -35t77.5 -43.5t67 -57.5t43 -75t17.5 -99q0 -141 -100.5 -233.5
t-261.5 -106.5l-13 -59q91 -8 148 -55t57 -119q0 -85 -73.5 -143t-172.5 -58q-90 0 -148.5 32t-58.5 81q0 32 18.5 54t53.5 22q32 0 55 -20.5t29 -53.5q7 -36 22.5 -51t43.5 -15q43 0 71.5 25.5t28.5 75.5q0 105 -137 112h-15z" />
    <glyph glyph-name="Scaron" unicode="&#x160;" horiz-adv-x="1165" 
d="M887 2081l-209 -357q-30 -50 -91.5 -48.5t-88.5 48.5l-213 357l14 10l285 -231h8l280 231zM1085 446q0 -207 -154 -342t-403 -135q-123 0 -259.5 32.5t-243.5 76.5l143 364h22q27 -182 131 -285.5t269 -103.5q156 0 252 88t96 215q0 42 -11.5 78.5t-27 63.5t-47 54
t-55.5 44t-69.5 38.5t-73 33t-79.5 32.5q-48 19 -72.5 29t-69 29.5t-69.5 34t-61.5 38t-57 44.5t-45 51.5t-37 62t-21.5 71t-9 83.5q0 185 134.5 304.5t355.5 119.5q190 0 397 -62l-102 -336h-23q-26 146 -118.5 230t-227.5 84q-116 0 -192 -69t-76 -183q0 -51 20 -93.5
t49.5 -72.5t79.5 -59t93.5 -48t107.5 -45l45 -18q50 -20 87.5 -36.5t82.5 -41t77.5 -49t64.5 -59t52 -72.5t32.5 -86.5t12.5 -104.5z" />
    <glyph glyph-name="scaron" unicode="&#x161;" horiz-adv-x="876" 
d="M741 1614l-206 -357q-30 -50 -93 -48.5t-90 48.5l-211 357l13 10l284 -231h11l280 231zM811 313q0 -154 -117.5 -248t-300.5 -94q-162 0 -354 70l108 281h17q22 -133 107.5 -204t199.5 -71q92 0 150.5 51t58.5 131q0 34 -14 62.5t-34 48t-55.5 38t-65 30t-75.5 28.5
q-19 7 -28 10q-53 19 -88 34.5t-79 42.5t-69.5 57t-44 76t-18.5 102q0 136 106.5 225.5t280.5 89.5q133 0 256 -45l-70 -252h-18q-23 104 -91.5 164.5t-154.5 60.5q-80 0 -129 -47.5t-49 -115.5q0 -18 4.5 -34.5t10.5 -30t19.5 -26.5t23 -22.5t30 -20.5t32.5 -17.5t37.5 -17
t38.5 -15.5t42.5 -15.5t41.5 -15.5q50 -19 86 -35t77.5 -43.5t67 -57.5t43 -75t17.5 -99z" />
    <glyph glyph-name="Tcedilla" unicode="&#x162;" horiz-adv-x="1179" 
d="M520 -193l41 193h-196v23q124 46 124 198v1141q0 106 -124 106q-86 0 -164.5 -74.5t-167.5 -226.5l-23 4l78 416h18q42 -51 134 -51h702q89 0 133 51h17l77 -416l-22 -4q-87 151 -166 226t-164 75q-125 0 -125 -106v-1141q0 -151 123 -198v-23h-201l-16 -80
q92 -8 148.5 -54.5t56.5 -119.5q0 -84 -73.5 -142.5t-170.5 -58.5q-91 0 -150 32t-59 81q0 32 18.5 54t53.5 22q32 0 55 -20.5t31 -53.5q6 -36 21 -51t42 -15q43 0 72 25.5t29 75.5q0 105 -137 112h-15z" />
    <glyph glyph-name="tcedilla" unicode="&#x163;" horiz-adv-x="679" 
d="M164 166v803h-152v26q103 60 181.5 144.5t146.5 199.5h18v-297h279v-73h-279v-744q0 -60 31 -94.5t88 -34.5q81 0 178 72l17 -23q-55 -76 -130 -124t-159 -52l-10 -49q92 -8 148.5 -54.5t56.5 -119.5q0 -84 -73.5 -142.5t-170.5 -58.5q-91 0 -150 32t-59 81q0 32 18.5 54
t53.5 22q32 0 55 -20.5t31 -53.5q6 -36 21 -51t42 -15q43 0 71.5 25.5t28.5 75.5q0 105 -137 112h-14l35 166q-71 11 -118.5 62t-47.5 131z" />
    <glyph glyph-name="Tcaron" unicode="&#x164;" horiz-adv-x="1179" 
d="M893 2085l-207 -356q-30 -50 -92.5 -48.5t-89.5 48.5l-213 356l14 10l285 -231h8l283 231zM240 1536h702q89 0 133 51h17l77 -416l-22 -4q-87 151 -166 226t-164 75q-125 0 -125 -106v-1141q0 -151 123 -198v-23h-450v23q124 46 124 198v1141q0 106 -124 106
q-86 0 -164.5 -74.5t-167.5 -226.5l-23 4l78 416h18q42 -51 134 -51z" />
    <glyph glyph-name="tcaron" unicode="&#x165;" horiz-adv-x="679" 
d="M528 1534q9 36 37.5 54.5t63.5 8.5q32 -10 42.5 -41.5t0.5 -66.5q-11 -39 -68 -133.5t-96 -179.5l-12 6q14 92 17.5 203.5t14.5 148.5zM164 166v803h-152v26q103 60 181.5 144.5t146.5 199.5h18v-297h279v-73h-279v-744q0 -60 31 -94.5t88 -34.5q81 0 178 72l17 -23
q-57 -79 -136 -127.5t-167 -48.5q-86 0 -145.5 53.5t-59.5 143.5z" />
    <glyph glyph-name="Tbar" unicode="&#x166;" horiz-adv-x="1179" 
d="M233 778v74h256v510q0 106 -124 106q-86 0 -164.5 -74.5t-167.5 -226.5l-23 4l78 416h18q42 -51 134 -51h702q89 0 133 51h17l77 -416l-22 -4q-87 151 -166 226t-164 75q-125 0 -125 -106v-510h256v-74h-256v-557q0 -151 123 -198v-23h-450v23q124 46 124 198v557h-256z
" />
    <glyph glyph-name="tbar" unicode="&#x167;" horiz-adv-x="727" 
d="M164 166v403h-146v70h146v330h-152v26q103 60 181.5 144.5t146.5 199.5h18v-297h279v-73h-279v-330h279v-70h-279v-344q0 -60 31 -94.5t88 -34.5q81 0 178 72l17 -23q-57 -79 -136 -127.5t-167 -48.5q-86 0 -145.5 53.5t-59.5 143.5z" />
    <glyph glyph-name="Utilde" unicode="&#x168;" horiz-adv-x="1355" 
d="M817 1698q-37 0 -75 22t-64 48.5t-56.5 48.5t-54.5 22q-76 0 -110 -129l-19 4q10 132 58.5 201.5t126.5 69.5q37 0 75 -22.5t63 -49.5t56 -49.5t57 -22.5q40 0 69.5 33.5t39.5 97.5l18 -4q-10 -133 -57 -201.5t-127 -68.5zM377 459q0 -180 97 -283t259 -106
q158 -2 256 98t98 289v798q0 94 -40.5 165.5t-112.5 95.5v20h371v-20q-64 -20 -99 -92t-35 -169v-798q0 -231 -135.5 -358.5t-347.5 -127.5q-228 0 -370 128.5t-142 357.5v850q0 86 -29.5 140t-85.5 69v20h443v-20q-127 -39 -127 -209v-848z" />
    <glyph glyph-name="utilde" unicode="&#x169;" horiz-adv-x="1097" 
d="M637 1229q-37 0 -75 22t-64 48.5t-56.5 48.5t-54.5 22q-77 0 -111 -127l-18 4q10 132 58 200.5t126 68.5q37 0 75 -22.5t63.5 -49.5t56.5 -49.5t57 -22.5q40 0 69.5 34.5t39.5 98.5l18 -4q-10 -133 -57 -202.5t-127 -69.5zM745 92q0 88 3 135h-3q-84 -104 -192.5 -180
t-204.5 -76q-92 0 -144 64.5t-52 171.5v528q0 76 -21 122.5t-74 68.5v20q75 10 146.5 45.5t124.5 87.5h14v-792q0 -164 121 -164q106 -6 282 153v449q0 83 -22.5 133t-77.5 68v20q75 12 148 47t127 86h14v-796q0 -85 23.5 -127.5t78.5 -63.5v-20q-166 -26 -272 -107h-19v127
z" />
    <glyph glyph-name="Umacron" unicode="&#x16a;" horiz-adv-x="1355" 
d="M440 1743v100h559v-100h-559zM377 459q0 -180 97 -283t259 -106q158 -2 256 98t98 289v798q0 94 -40.5 165.5t-112.5 95.5v20h371v-20q-64 -20 -99 -92t-35 -169v-798q0 -231 -135.5 -358.5t-347.5 -127.5q-228 0 -370 128.5t-142 357.5v850q0 86 -29.5 140t-85.5 69v20
h443v-20q-127 -39 -127 -209v-848z" />
    <glyph glyph-name="umacron" unicode="&#x16b;" horiz-adv-x="1097" 
d="M260 1276v100h559v-100h-559zM745 92q0 88 3 135h-3q-84 -104 -192.5 -180t-204.5 -76q-92 0 -144 64.5t-52 171.5v528q0 76 -21 122.5t-74 68.5v20q75 10 146.5 45.5t124.5 87.5h14v-792q0 -164 121 -164q106 -6 282 153v449q0 83 -22.5 133t-77.5 68v20q75 12 148 47
t127 86h14v-796q0 -85 23.5 -127.5t78.5 -63.5v-20q-166 -26 -272 -107h-19v127z" />
    <glyph glyph-name="Ubreve" unicode="&#x16c;" horiz-adv-x="1355" 
d="M721 1675q-128 0 -206.5 96.5t-78.5 266.5l21 2q18 -98 92 -151.5t172 -53.5t171 53t91 152l21 -2q0 -170 -78 -266.5t-205 -96.5zM377 459q0 -180 97 -283t259 -106q158 -2 256 98t98 289v798q0 94 -40.5 165.5t-112.5 95.5v20h371v-20q-64 -20 -99 -92t-35 -169v-798
q0 -231 -135.5 -358.5t-347.5 -127.5q-228 0 -370 128.5t-142 357.5v850q0 86 -29.5 140t-85.5 69v20h443v-20q-127 -39 -127 -209v-848z" />
    <glyph glyph-name="ubreve" unicode="&#x16d;" horiz-adv-x="1097" 
d="M541 1208q-128 0 -205.5 96t-77.5 265l18 4q18 -99 92 -152t173 -53q98 0 171 53t91 152l20 -4q0 -169 -77.5 -265t-204.5 -96zM745 92q0 88 3 135h-3q-84 -104 -192.5 -180t-204.5 -76q-92 0 -144 64.5t-52 171.5v528q0 76 -21 122.5t-74 68.5v20q75 10 146.5 45.5
t124.5 87.5h14v-792q0 -164 121 -164q106 -6 282 153v449q0 83 -22.5 133t-77.5 68v20q75 12 148 47t127 86h14v-796q0 -85 23.5 -127.5t78.5 -63.5v-20q-166 -26 -272 -107h-19v127z" />
    <glyph glyph-name="Uring" unicode="&#x16e;" horiz-adv-x="1355" 
d="M479 1896q0 97 70 168.5t172 71.5q100 0 170 -71t70 -169t-70.5 -168.5t-169.5 -70.5t-170.5 71t-71.5 168zM616 1896q0 -190 105 -190q102 0 102 190q0 189 -102 189q-105 0 -105 -189zM377 459q0 -180 97 -283t259 -106q158 -2 256 98t98 289v798q0 94 -40.5 165.5
t-112.5 95.5v20h371v-20q-64 -20 -99 -92t-35 -169v-798q0 -231 -135.5 -358.5t-347.5 -127.5q-228 0 -370 128.5t-142 357.5v850q0 86 -29.5 140t-85.5 69v20h443v-20q-127 -39 -127 -209v-848z" />
    <glyph glyph-name="uring" unicode="&#x16f;" horiz-adv-x="1097" 
d="M299 1427q0 98 69.5 169t172.5 71q100 0 169.5 -70.5t69.5 -169.5q0 -97 -70 -168t-169 -71t-170.5 71.5t-71.5 167.5zM436 1427q0 -91 26.5 -140.5t78.5 -49.5q102 0 102 190q0 189 -102 189q-105 0 -105 -189zM745 92q0 88 3 135h-3q-84 -104 -192.5 -180t-204.5 -76
q-92 0 -144 64.5t-52 171.5v528q0 76 -21 122.5t-74 68.5v20q75 10 146.5 45.5t124.5 87.5h14v-792q0 -164 121 -164q106 -6 282 153v449q0 83 -22.5 133t-77.5 68v20q75 12 148 47t127 86h14v-796q0 -85 23.5 -127.5t78.5 -63.5v-20q-166 -26 -272 -107h-19v127z" />
    <glyph glyph-name="Uhungarumlaut" unicode="&#x170;" horiz-adv-x="1355" 
d="M934 2023q22 32 53 43t68 -8q30 -20 33.5 -56.5t-19.5 -68.5q-24 -35 -113.5 -120t-150.5 -152l-17 10q41 88 81.5 202.5t64.5 149.5zM647 2023q24 32 54.5 43t66.5 -8q31 -20 35 -56.5t-19 -68.5q-24 -34 -113.5 -118.5t-152.5 -153.5l-14 10q42 89 81 203t62 149z
M377 459q0 -180 97 -283t259 -106q158 -2 256 98t98 289v798q0 94 -40.5 165.5t-112.5 95.5v20h371v-20q-64 -20 -99 -92t-35 -169v-798q0 -231 -135.5 -358.5t-347.5 -127.5q-228 0 -370 128.5t-142 357.5v850q0 86 -29.5 140t-85.5 69v20h443v-20q-127 -39 -127 -209v-848
z" />
    <glyph glyph-name="uhungarumlaut" unicode="&#x171;" horiz-adv-x="1097" 
d="M754 1554q22 33 52.5 44.5t67.5 -7.5q30 -20 33.5 -57.5t-18.5 -69.5q-23 -33 -112 -118t-152 -154l-17 12q41 87 81.5 201t64.5 149zM467 1554q24 33 54.5 44.5t66.5 -7.5q31 -20 35 -57.5t-19 -69.5q-24 -32 -112.5 -116.5t-153.5 -155.5l-14 12q42 88 80.5 202
t62.5 148zM745 92q0 88 3 135h-3q-84 -104 -192.5 -180t-204.5 -76q-92 0 -144 64.5t-52 171.5v528q0 76 -21 122.5t-74 68.5v20q75 10 146.5 45.5t124.5 87.5h14v-792q0 -164 121 -164q106 -6 282 153v449q0 83 -22.5 133t-77.5 68v20q75 12 148 47t127 86h14v-796
q0 -85 23.5 -127.5t78.5 -63.5v-20q-166 -26 -272 -107h-19v127z" />
    <glyph glyph-name="Uogonek" unicode="&#x172;" horiz-adv-x="1355" 
d="M377 459q0 -180 97 -283t259 -106q158 -2 256 98t98 289v798q0 94 -40.5 165.5t-112.5 95.5v20h371v-20q-64 -20 -99 -92t-35 -169v-798q0 -223 -126 -350t-328 -136q-58 -76 -58 -168q0 -62 37.5 -99.5t94.5 -37.5q91 0 163 72l13 -10q-42 -80 -107 -124t-147 -44
q-88 0 -148.5 49t-60.5 127q0 119 153 235q-216 9 -348.5 137t-132.5 349v850q0 86 -29.5 140t-85.5 69v20h443v-20q-127 -39 -127 -209v-848z" />
    <glyph glyph-name="uogonek" unicode="&#x173;" horiz-adv-x="1097" 
d="M745 92q0 88 3 135h-3q-84 -104 -192.5 -180t-204.5 -76q-92 0 -144 64.5t-52 171.5v528q0 76 -21 122.5t-74 68.5v20q75 10 146.5 45.5t124.5 87.5h14v-792q0 -164 121 -164q106 -6 282 153v449q0 83 -22.5 133t-77.5 68v20q75 12 148 47t127 86h14v-796
q0 -85 23.5 -127.5t78.5 -63.5v-20q-104 -15 -196 -60l2 -2q-90 -93 -90 -207q0 -62 37 -99.5t94 -37.5q91 0 166 72l12 -10q-42 -79 -107.5 -123.5t-146.5 -44.5q-89 0 -149 49t-60 127q0 118 147 231v125z" />
    <glyph glyph-name="Wcircumflex" unicode="&#x174;" horiz-adv-x="1853" 
d="M637 1655l209 356q30 50 91.5 48.5t88.5 -48.5l213 -356l-14 -10l-285 231h-8l-281 -231zM1694 1264l-400 -1274h-47l-319 1036l-318 -1036h-49l-403 1270q-37 116 -79 174t-93 82v20h471v-20q-143 -68 -84 -259l274 -903l240 807l-31 99q-35 117 -78.5 173.5t-99.5 82.5
v20h471v-20q-37 -18 -60 -50t-30.5 -85t14.5 -124l262 -905l275 910q28 91 -12 157.5t-107 96.5v20h379v-20q-47 -22 -96.5 -88.5t-79.5 -163.5z" />
    <glyph glyph-name="wcircumflex" unicode="&#x175;" horiz-adv-x="1423" 
d="M414 1186l209 356q30 50 91.5 48.5t88.5 -48.5l213 -356l-15 -10l-284 231h-8l-283 -231zM1307 801l-303 -821h-33l-254 663l-246 -663h-33l-327 837q-37 93 -68.5 140.5t-73.5 68.5v16h398v-16q-55 -25 -69.5 -79.5t15.5 -131.5l197 -524l164 467l-27 69
q-64 165 -127 199v16h387v-16q-116 -53 -59 -211l194 -532l183 526q21 60 15.5 106t-26.5 74t-53 37v16h293v-16q-80 -42 -147 -225z" />
    <glyph glyph-name="Ycircumflex" unicode="&#x176;" horiz-adv-x="1208" 
d="M356 1655l207 356q30 50 92.5 48.5t89.5 -48.5l211 -356l-14 -10l-283 231h-10l-280 -231zM709 221q0 -156 120 -198v-23h-448v23q125 46 125 198v391l-344 645q-118 218 -211 259v20h520v-20q-76 -32 -99.5 -101t21.5 -158l285 -532l272 537q37 83 4.5 151t-114.5 103
v20h401v-20q-45 -21 -99 -89.5t-104 -162.5l-329 -648v-395z" />
    <glyph glyph-name="ycircumflex" unicode="&#x177;" horiz-adv-x="944" 
d="M217 1186l209 356q30 50 91.5 48.5t88.5 -48.5l213 -356l-14 -10l-285 231h-8l-281 -231zM131 -436q-71 0 -125.5 41.5t-54.5 101.5q0 48 30 78.5t72 30.5q32 0 55.5 -20t35 -43.5t31.5 -43.5t44 -20q96 2 182 241l39 101l-323 778q-39 98 -71.5 146t-74.5 71v16h422v-16
q-129 -69 -65 -217l211 -522l202 522q28 76 9.5 132.5t-72.5 84.5v16h295v-16q-36 -20 -75.5 -81.5t-70.5 -133.5l-364 -913q-68 -170 -147 -252t-185 -82z" />
    <glyph glyph-name="Ydieresis" unicode="&#x178;" horiz-adv-x="1208" 
d="M492 1714q-50 0 -84.5 39t-34.5 94q0 56 34 94.5t85 38.5q52 0 87 -38.5t35 -94.5q0 -55 -35 -94t-87 -39zM815 1714q-50 0 -84.5 39t-34.5 94q0 56 34 94.5t85 38.5t86 -38.5t35 -94.5q0 -54 -35 -93.5t-86 -39.5zM709 221q0 -156 120 -198v-23h-448v23q125 46 125 198
v391l-344 645q-118 218 -211 259v20h520v-20q-76 -32 -99.5 -101t21.5 -158l285 -532l272 537q37 83 4.5 151t-114.5 103v20h401v-20q-45 -21 -99 -89.5t-104 -162.5l-329 -648v-395z" />
    <glyph glyph-name="Zacute" unicode="&#x179;" horiz-adv-x="1167" 
d="M684 2021q28 33 63.5 41.5t71.5 -18.5q31 -29 31 -68t-29 -71q-30 -34 -138.5 -111t-188.5 -145l-17 14q62 93 119.5 209t87.5 149zM1141 375l-99 -436h-20q-46 61 -150 61h-827v25l793 1439h-283q-141 0 -247.5 -67t-215.5 -209l-16 4l65 395h17q40 -51 145 -51h795v-20
l-793 -1444h309q156 0 276.5 79t229.5 228z" />
    <glyph glyph-name="zacute" unicode="&#x17a;" horiz-adv-x="913" 
d="M555 1554q18 21 40 32.5t48 10.5t47 -20q31 -29 31 -68.5t-29 -72.5q-25 -28 -70 -60.5l-117 -84.5t-140 -109l-17 12q62 94 119.5 210.5t87.5 149.5zM879 307l-60 -364h-22q-27 30 -60.5 43.5t-87.5 13.5h-600v23l537 952h-142q-116 0 -189 -55t-159 -187l-18 4l59 365
h19q51 -60 151 -60h531v-20l-539 -954h225q108 0 185.5 60t148.5 181z" />
    <glyph glyph-name="Zdotaccent" unicode="&#x17b;" horiz-adv-x="1167" 
d="M594 1714q-52 0 -86.5 39.5t-34.5 95.5t34.5 96t86.5 40t88.5 -40t36.5 -96t-36.5 -95.5t-88.5 -39.5zM1141 375l-99 -436h-20q-46 61 -150 61h-827v25l793 1439h-283q-141 0 -247.5 -67t-215.5 -209l-16 4l65 395h17q40 -51 145 -51h795v-20l-793 -1444h309
q156 0 276.5 79t229.5 228z" />
    <glyph glyph-name="zdotaccent" unicode="&#x17c;" horiz-adv-x="913" 
d="M465 1247q-52 0 -86.5 38.5t-34.5 94.5q0 57 34.5 96.5t86.5 39.5t88.5 -39.5t36.5 -96.5q0 -56 -36.5 -94.5t-88.5 -38.5zM879 307l-60 -364h-22q-27 30 -60.5 43.5t-87.5 13.5h-600v23l537 952h-142q-116 0 -189 -55t-159 -187l-18 4l59 365h19q51 -60 151 -60h531v-20
l-539 -954h225q108 0 185.5 60t148.5 181z" />
    <glyph glyph-name="Zcaron" unicode="&#x17d;" horiz-adv-x="1167" 
d="M897 2081l-207 -357q-30 -50 -92.5 -48.5t-89.5 48.5l-211 357l14 10l283 -231h10l281 231zM1141 375l-99 -436h-20q-46 61 -150 61h-827v25l793 1439h-283q-141 0 -247.5 -67t-215.5 -209l-16 4l65 395h17q40 -51 145 -51h795v-20l-793 -1444h309q156 0 276.5 79
t229.5 228z" />
    <glyph glyph-name="zcaron" unicode="&#x17e;" horiz-adv-x="913" 
d="M768 1614l-207 -357q-30 -50 -92.5 -48.5t-89.5 48.5l-211 357l14 10l283 -231h10l281 231zM879 307l-60 -364h-22q-27 30 -60.5 43.5t-87.5 13.5h-600v23l537 952h-142q-116 0 -189 -55t-159 -187l-18 4l59 365h19q51 -60 151 -60h531v-20l-539 -954h225q108 0 185.5 60
t148.5 181z" />
    <glyph glyph-name="Ohorn" unicode="&#x1a0;" horiz-adv-x="1406" 
d="M80 768q0 218 80 401t223 290.5t317 107.5q248 0 426 -213q95 92 121 176q-59 3 -99 35.5t-40 81.5q0 46 33.5 77t83.5 31t86.5 -40.5t36.5 -98.5q0 -75 -52.5 -152t-150.5 -135q82 -108 127 -253t45 -308q0 -218 -81 -401.5t-223 -290.5t-313 -107q-170 0 -313 107.5
t-225 291t-82 400.5zM313 768q0 -332 100.5 -528.5t286.5 -196.5q123 0 210.5 92t130 253.5t42.5 379.5q0 336 -96.5 530.5t-286.5 194.5q-128 0 -216 -92.5t-129.5 -253t-41.5 -379.5z" />
    <glyph glyph-name="ohorn" unicode="&#x1a1;" horiz-adv-x="1073" 
d="M72 524q0 113 35.5 215t96 175t145.5 116t179 43q99 0 185 -45t151 -125q80 80 103 158q-61 3 -100.5 35.5t-39.5 81.5q0 46 33 77t84 31q50 0 86.5 -41t36.5 -98q0 -70 -47.5 -142.5t-136.5 -127.5q104 -148 104 -353q0 -152 -62 -280t-167.5 -201.5t-229.5 -73.5
t-229 74t-166 202t-61 279zM281 524q0 -220 65 -354.5t182 -134.5q79 0 136 63t85.5 172.5t28.5 253.5q0 220 -64 352t-186 132q-120 0 -183.5 -132.5t-63.5 -351.5z" />
    <glyph glyph-name="Uhorn" unicode="&#x1af;" horiz-adv-x="1359" 
d="M688 -29q-228 0 -370 128.5t-142 357.5v850q0 86 -29.5 140t-85.5 69v20h443v-20q-129 -39 -129 -209v-848q0 -180 97.5 -283t260.5 -106q158 -2 256 98t98 289v798q0 94 -40.5 165.5t-112.5 95.5v20h332q59 73 77 135q-62 5 -101.5 37t-39.5 82q0 45 34 75.5t85 30.5
q48 0 84.5 -40.5t36.5 -98.5q0 -69 -48.5 -141.5t-131.5 -126.5q-45 -31 -68 -93.5t-23 -140.5v-798q0 -231 -135.5 -358.5t-347.5 -127.5z" />
    <glyph glyph-name="uhorn" unicode="&#x1b0;" horiz-adv-x="1077" 
d="M745 92q0 88 3 135h-3q-84 -104 -192.5 -180t-204.5 -76q-92 0 -144 64.5t-52 171.5v528q0 76 -21 122.5t-74 68.5v20q75 10 146.5 45.5t124.5 87.5h14v-792q0 -164 121 -164q106 -6 282 153v449q0 83 -22.5 133t-77.5 68v20q75 12 148 47t127 86h14v-182q95 92 121 176
q-61 3 -100.5 35.5t-39.5 81.5q0 46 33 77t84 31q50 0 86.5 -41t36.5 -98q0 -80 -58 -161t-163 -136v-579q0 -85 23.5 -127.5t78.5 -63.5v-20q-166 -26 -272 -107h-19v127z" />
    <glyph glyph-name="Scommaaccent" unicode="&#x218;" horiz-adv-x="1165" 
d="M1085 446q0 -207 -154 -342t-403 -135q-123 0 -259.5 32.5t-243.5 76.5l143 364h22q27 -182 131 -285.5t269 -103.5q156 0 252 88t96 215q0 42 -11.5 78.5t-27 63.5t-47 54t-55.5 44t-69.5 38.5t-73 33t-79.5 32.5q-48 19 -72.5 29t-69 29.5t-69.5 34t-61.5 38t-57 44.5
t-45 51.5t-37 62t-21.5 71t-9 83.5q0 185 134.5 304.5t355.5 119.5q190 0 397 -62l-102 -336h-23q-26 146 -118.5 230t-227.5 84q-116 0 -192 -69t-76 -183q0 -51 20 -93.5t49.5 -72.5t79.5 -59t93.5 -48t107.5 -45l45 -18q50 -20 87.5 -36.5t82.5 -41t77.5 -49t64.5 -59
t52 -72.5t32.5 -86.5t12.5 -104.5zM688 -291q0 -78 -56.5 -157.5t-160.5 -137.5l-14 13q98 106 131 194q-63 5 -104.5 37.5t-41.5 81.5q0 46 34.5 77t86.5 31q51 0 88 -40.5t37 -98.5z" />
    <glyph glyph-name="scommaaccent" unicode="&#x219;" horiz-adv-x="876" 
d="M811 313q0 -154 -117.5 -248t-300.5 -94q-162 0 -354 70l108 281h17q22 -133 107.5 -204t199.5 -71q92 0 150.5 51t58.5 131q0 34 -14 62.5t-34 48t-55.5 38t-65 30t-75.5 28.5q-19 7 -28 10q-53 19 -88 34.5t-79 42.5t-69.5 57t-44 76t-18.5 102q0 136 106.5 225.5
t280.5 89.5q133 0 256 -45l-70 -252h-18q-23 104 -91.5 164.5t-154.5 60.5q-80 0 -129 -47.5t-49 -115.5q0 -18 4.5 -34.5t10.5 -30t19.5 -26.5t23 -22.5t30 -20.5t32.5 -17.5t37.5 -17t38.5 -15.5t42.5 -15.5t41.5 -15.5q50 -19 86 -35t77.5 -43.5t67 -57.5t43 -75
t17.5 -99zM551 -297q0 -78 -56.5 -157.5t-160.5 -137.5l-12 12q94 102 129 195q-63 5 -103.5 37.5t-40.5 81.5q0 46 34.5 77t86.5 31q50 0 86.5 -40.5t36.5 -98.5z" />
    <glyph glyph-name="Tcommaaccent" unicode="&#x21a;" horiz-adv-x="1179" 
d="M240 1536h702q89 0 133 51h17l77 -416l-22 -4q-87 151 -166 226t-164 75q-125 0 -125 -106v-1141q0 -151 123 -198v-23h-450v23q124 46 124 198v1141q0 106 -124 106q-86 0 -164.5 -74.5t-167.5 -226.5l-23 4l78 416h18q42 -51 134 -51zM715 -291q0 -77 -57.5 -157
t-161.5 -138l-13 13q94 102 129 194q-62 5 -102.5 37.5t-40.5 81.5q0 46 34.5 77t86.5 31q51 0 88 -40.5t37 -98.5z" />
    <glyph glyph-name="tcommaaccent" unicode="&#x21b;" horiz-adv-x="679" 
d="M164 166v803h-152v26q103 60 181.5 144.5t146.5 199.5h18v-297h279v-73h-279v-744q0 -60 31 -94.5t88 -34.5q81 0 178 72l17 -23q-57 -79 -136 -127.5t-167 -48.5q-86 0 -145.5 53.5t-59.5 143.5zM489 -291q0 -77 -57 -156.5t-160 -138.5l-14 13q94 102 129 194
q-62 5 -102.5 37.5t-40.5 81.5q0 46 34.5 77t86.5 31q51 0 87.5 -40.5t36.5 -98.5z" />
    <glyph glyph-name="dotlessj" unicode="&#x237;" horiz-adv-x="509" 
d="M-131 -279q0 43 23.5 72t62.5 29q32 0 57.5 -21t40 -46.5t39 -46.5t55.5 -21q42 0 66.5 34.5t26.5 88.5q3 57 -19.5 127t-50.5 118v678q0 159 -107 193v20q80 12 154.5 47t126.5 86h16v-1145q0 -157 -86.5 -262.5t-205.5 -105.5q-82 0 -140.5 42t-58.5 113z" />
    <glyph glyph-name="schwa" unicode="&#x259;" horiz-adv-x="956" 
d="M707 457q0 214 -91.5 339.5t-238.5 125.5q-88 0 -161.5 -44.5t-117.5 -123.5l-20 12q40 141 146.5 224t234.5 83q82 0 158 -34t136 -97t96 -162t36 -219q0 -161 -59.5 -297t-165.5 -215.5t-234 -79.5q-158 0 -260.5 118.5t-102.5 301.5v45h642q0 3 1 11t1 12zM469 43
q87 0 152 83t79 241h-440q0 -145 57 -234.5t152 -89.5z" />
    <glyph glyph-name="quoteleft" unicode="&#x2bb;" horiz-adv-x="483" 
d="M104 1296q0 94 65 191.5t183 165.5l15 -15q-111 -125 -150 -239q69 -5 114.5 -42.5t45.5 -96.5q0 -56 -37 -94t-94 -38q-58 0 -100 49.5t-42 118.5z" />
    <glyph glyph-name="quoteleft" unicode="&#x2018;" horiz-adv-x="483" 
d="M104 1296q0 94 65 191.5t183 165.5l15 -15q-111 -125 -150 -239q69 -5 114.5 -42.5t45.5 -96.5q0 -56 -37 -94t-94 -38q-58 0 -100 49.5t-42 118.5z" />
    <glyph glyph-name="quoteright" unicode="&#x2bc;" horiz-adv-x="483" 
d="M381 1442q0 -92 -65.5 -189.5t-184.5 -165.5l-14 15q116 127 149 239q-69 5 -114.5 44t-45.5 98q0 54 38.5 91.5t95.5 37.5t99 -50t42 -120z" />
    <glyph glyph-name="quoteright" unicode="&#x2019;" horiz-adv-x="483" 
d="M381 1442q0 -92 -65.5 -189.5t-184.5 -165.5l-14 15q116 127 149 239q-69 5 -114.5 44t-45.5 98q0 54 38.5 91.5t95.5 37.5t99 -50t42 -120z" />
    <glyph glyph-name="circumflex" unicode="&#x2c6;" horiz-adv-x="1216" 
d="M311 1186l207 356q30 50 92.5 48.5t89.5 -48.5l211 -356l-14 -10l-283 231h-10l-280 -231z" />
    <glyph glyph-name="caron" unicode="&#x2c7;" horiz-adv-x="1216" 
d="M913 1614l-208 -357q-30 -50 -92 -48.5t-89 48.5l-213 357l15 10l284 -231h8l281 231z" />
    <glyph glyph-name="breve" unicode="&#x2d8;" horiz-adv-x="1216" 
d="M610 1208q-128 0 -206 96t-78 265l18 4q18 -98 92.5 -151.5t173.5 -53.5q97 0 170 53t92 152l21 -4q0 -169 -78 -265t-205 -96z" />
    <glyph glyph-name="dotaccent" unicode="&#x2d9;" horiz-adv-x="1216" 
d="M610 1247q-52 0 -87.5 38.5t-35.5 94.5q0 57 35.5 96.5t87.5 39.5t87.5 -39.5t35.5 -96.5q0 -56 -35.5 -94.5t-87.5 -38.5z" />
    <glyph glyph-name="ring" unicode="&#x2da;" horiz-adv-x="1216" 
d="M367 1427q0 98 70 169t173 71q101 0 170.5 -70.5t69.5 -169.5q0 -97 -70.5 -168t-169.5 -71t-171 71.5t-72 167.5zM506 1427q0 -91 26 -140.5t78 -49.5q101 0 101 190q0 189 -101 189q-104 0 -104 -189z" />
    <glyph glyph-name="ogonek" unicode="&#x2db;" horiz-adv-x="1216" 
d="M590 -446q-88 0 -147.5 49t-59.5 127q0 150 233 288l11 -16q-90 -90 -90 -205q0 -63 37 -100t94 -37q91 0 163 72l15 -13q-44 -78 -109.5 -121.5t-146.5 -43.5z" />
    <glyph glyph-name="tilde" unicode="&#x2dc;" horiz-adv-x="1216" 
d="M707 1229q-37 0 -75 22t-64 48.5t-57 48.5t-56 22q-75 0 -109 -127l-18 4q9 132 57 200.5t127 68.5q37 0 74.5 -22.5t63 -49.5t57 -49.5t57.5 -22.5q39 0 67.5 34t40.5 99l19 -4q-10 -133 -58 -202.5t-126 -69.5z" />
    <glyph glyph-name="hungarumlaut" unicode="&#x2dd;" horiz-adv-x="1216" 
d="M823 1554q22 33 53 44.5t66 -7.5q31 -20 35 -57.5t-19 -69.5q-24 -33 -114 -119t-152 -153l-14 12q41 87 81 201t64 149zM537 1554q22 33 52.5 44.5t67.5 -7.5q30 -20 34 -57.5t-17 -69.5q-24 -32 -112.5 -116.5t-153.5 -155.5l-15 12q42 88 81 202t63 148z" />
    <glyph glyph-name="gravecmb" unicode="&#x300;" horiz-adv-x="0" 
d="M-100 1554q29 -33 86 -148.5t118 -209.5l-14 -14q-82 68 -191 144t-139 110q-29 33 -29 73.5t31 67.5q38 25 73.5 17t64.5 -40z" />
    <glyph glyph-name="acutecmb" unicode="&#x301;" horiz-adv-x="0" 
d="M90 1554q18 21 40 32.5t48 10.5t47 -20q31 -29 31 -68.5t-29 -72.5q-25 -28 -70 -60.5l-117 -84.5t-140 -109l-17 12q62 94 119.5 210.5t87.5 149.5z" />
    <glyph glyph-name="circumflexcmb" unicode="&#x302;" horiz-adv-x="0" 
d="M-299 1186l209 356q30 50 91.5 48.5t88.5 -48.5l213 -356l-14 -10l-285 231h-8l-281 -231z" />
    <glyph glyph-name="tildecmb" unicode="&#x303;" horiz-adv-x="0" 
d="M96 1229q-37 0 -75 22t-63.5 48.5t-56 48.5t-55.5 22q-38 0 -66 -34.5t-44 -92.5l-19 4q10 132 58.5 200.5t126.5 68.5q37 0 75 -22.5t63.5 -49.5t56.5 -49.5t57 -22.5q39 0 68.5 34.5t39.5 98.5l19 -4q-10 -133 -57.5 -202.5t-127.5 -69.5z" />
    <glyph glyph-name="macroncmb" unicode="&#x304;" horiz-adv-x="0" 
d="M-281 1276v100h562v-100h-562z" />
    <glyph glyph-name="brevecmb" unicode="&#x306;" horiz-adv-x="0" 
d="M0 1208q-128 0 -205.5 96t-77.5 265l19 4q18 -98 92 -151.5t172 -53.5t171.5 53t92.5 152l19 -4q0 -169 -77.5 -265t-205.5 -96z" />
    <glyph glyph-name="dotaccentcmb" unicode="&#x307;" horiz-adv-x="0" 
d="M0 1247q-52 0 -86.5 38.5t-34.5 94.5q0 57 34.5 96.5t86.5 39.5t88.5 -39.5t36.5 -96.5q0 -56 -36.5 -94.5t-88.5 -38.5z" />
    <glyph glyph-name="dieresiscmb" unicode="&#x308;" horiz-adv-x="0" 
d="M-162 1247q-51 0 -85 38.5t-34 92.5q0 56 34 94.5t85 38.5t86 -38.5t35 -94.5q0 -54 -35 -92.5t-86 -38.5zM160 1247q-49 0 -83 38.5t-34 92.5q0 56 34 94.5t83 38.5q52 0 87.5 -38.5t35.5 -94.5q0 -54 -35.5 -92.5t-87.5 -38.5z" />
    <glyph glyph-name="ringcmb" unicode="&#x30a;" horiz-adv-x="0" 
d="M-242 1427q0 98 69.5 169t172.5 71q102 0 171 -70.5t69 -169.5q0 -97 -70.5 -168t-169.5 -71t-170.5 71.5t-71.5 167.5zM-104 1427q0 -91 26 -140.5t78 -49.5q102 0 102 190q0 189 -102 189q-104 0 -104 -189z" />
    <glyph glyph-name="hungarumlautcmb" unicode="&#x30b;" horiz-adv-x="0" 
d="M213 1554q22 33 54 44.5t67 -7.5q30 -20 33.5 -57.5t-19.5 -69.5q-23 -33 -112 -118t-152 -154l-14 12q42 88 80.5 202t62.5 148zM-72 1554q22 33 53 44.5t66 -7.5q31 -20 35 -57.5t-19 -69.5q-24 -33 -114 -119t-152 -153l-14 12q41 87 81 201t64 149z" />
    <glyph glyph-name="caroncmb" unicode="&#x30c;" horiz-adv-x="0" 
d="M303 1614l-207 -357q-30 -50 -92.5 -48.5t-89.5 48.5l-211 357l14 10l283 -231h10l281 231z" />
    <glyph glyph-name="commaturnedabovecmb" unicode="&#x312;" horiz-adv-x="0" 
d="M-113 1395q0 78 56.5 157.5t160.5 137.5l15 -13q-100 -108 -131 -194q63 -5 104 -37.5t41 -81.5q0 -46 -34.5 -77.5t-86.5 -31.5q-51 0 -88 41t-37 99z" />
    <glyph glyph-name="horncmb" unicode="&#x31b;" horiz-adv-x="0" 
d="M131 1147q0 -80 -59.5 -161.5t-169.5 -137.5l-13 18q111 101 142 195q-61 3 -100.5 35.5t-39.5 81.5q0 46 33 77t84 31q50 0 86.5 -41t36.5 -98z" />
    <glyph glyph-name="dotbelowcmb" unicode="&#x323;" horiz-adv-x="0" 
d="M0 -428q-52 0 -86.5 38t-34.5 91q0 56 34.5 93.5t86.5 37.5q53 0 89 -38t36 -93q0 -53 -36.5 -91t-88.5 -38z" />
    <glyph glyph-name="commabelowcmb" unicode="&#x326;" horiz-adv-x="0" 
d="M125 -291q0 -78 -56.5 -157.5t-160.5 -137.5l-14 13q98 106 131 194q-63 5 -104.5 37.5t-41.5 81.5q0 46 34.5 77t86.5 31q51 0 88 -40.5t37 -98.5z" />
    <glyph glyph-name="cedillacmb" unicode="&#x327;" horiz-adv-x="0" 
d="M-72 -193l47 224l54 -4l-23 -107q92 -8 148.5 -54.5t56.5 -119.5q0 -84 -73.5 -142.5t-170.5 -58.5q-90 0 -149.5 32t-59.5 81q0 31 19 53.5t53 22.5q32 0 55 -20.5t31 -53.5q7 -36 22.5 -51t43.5 -15q43 0 71.5 25.5t28.5 75.5q0 105 -139 112h-15z" />
    <glyph glyph-name="ogonekcmb" unicode="&#x328;" horiz-adv-x="0" 
d="M-18 -446q-88 0 -148.5 49t-60.5 127q0 149 235 288l8 -16q-90 -90 -90 -205q0 -63 37.5 -100t95.5 -37q92 0 164 72l13 -13q-42 -78 -108 -121.5t-146 -43.5z" />
    <glyph glyph-name="brevebelowcmb" unicode="&#x32e;" horiz-adv-x="0" 
d="M0 -463q-131 0 -210 93t-79 261l19 5q18 -90 95 -142.5t175 -52.5q99 0 174.5 52t93.5 143l21 -5q0 -168 -79 -261t-210 -93z" />
    <glyph glyph-name="Ddotbelow" unicode="&#x1e0c;" horiz-adv-x="1394" 
d="M557 -20q-200 0 -487 40v23q62 23 95.5 76.5t33.5 126.5v1057q0 62 -34 115t-95 77v21q242 40 460 40q186 0 335 -57t247 -161t150.5 -249.5t52.5 -322.5q0 -161 -40.5 -293.5t-111 -222.5t-167.5 -152t-207 -90t-232 -28zM592 53q247 0 368 158.5t121 519.5
q0 358 -129 555t-372 197q-92 0 -135.5 -45.5t-43.5 -139.5v-1040q0 -99 49 -152t142 -53zM664 -428q-52 0 -86.5 38t-34.5 91q0 56 34.5 93.5t86.5 37.5q53 0 88.5 -38t35.5 -93q0 -53 -36 -91t-88 -38z" />
    <glyph glyph-name="ddotbelow" unicode="&#x1e0d;" horiz-adv-x="1097" 
d="M428 -31q-93 0 -174.5 60.5t-130.5 169t-49 239.5q0 167 63.5 309.5t181.5 229t265 86.5q73 0 164 -31v246q0 149 -115 192v21q173 25 287 133h18v-1335q0 -87 23 -132.5t77 -64.5v-16q-150 -24 -272 -111h-16v103q0 67 2 96l-4 2q-61 -82 -145.5 -139.5t-174.5 -57.5z
M532 117q114 0 216 108v576q0 90 -44.5 143.5t-121.5 52.5q-135 1 -221.5 -138.5t-84.5 -344.5q0 -183 68.5 -290t187.5 -107zM541 -428q-51 0 -86 38t-35 91q0 55 35 93t86 38q54 0 89.5 -37.5t35.5 -93.5q0 -53 -36 -91t-89 -38z" />
    <glyph glyph-name="Dlinebelow" unicode="&#x1e0e;" horiz-adv-x="1394" 
d="M557 -20q-200 0 -487 40v23q62 23 95.5 76.5t33.5 126.5v1057q0 62 -34 115t-95 77v21q242 40 460 40q186 0 335 -57t247 -161t150.5 -249.5t52.5 -322.5q0 -161 -40.5 -293.5t-111 -222.5t-167.5 -152t-207 -90t-232 -28zM592 53q247 0 368 158.5t121 519.5
q0 358 -129 555t-372 197q-92 0 -135.5 -45.5t-43.5 -139.5v-1040q0 -99 49 -152t142 -53zM362 -305v104h603v-104h-603z" />
    <glyph glyph-name="dlinebelow" unicode="&#x1e0f;" horiz-adv-x="1097" 
d="M428 -31q-93 0 -174.5 60.5t-130.5 169t-49 239.5q0 167 63.5 309.5t181.5 229t265 86.5q73 0 164 -31v246q0 149 -115 192v21q173 25 287 133h18v-1335q0 -87 23 -132.5t77 -64.5v-16q-150 -24 -272 -111h-16v103q0 67 2 96l-4 2q-61 -82 -145.5 -139.5t-174.5 -57.5z
M532 117q114 0 216 108v576q0 90 -44.5 143.5t-121.5 52.5q-135 1 -221.5 -138.5t-84.5 -344.5q0 -183 68.5 -290t187.5 -107zM242 -305v104h600v-104h-600z" />
    <glyph glyph-name="Gmacron" unicode="&#x1e20;" horiz-adv-x="1378" 
d="M432 1743v100h559v-100h-559zM768 -20q-109 0 -208.5 29.5t-187.5 92t-152.5 152t-102 218.5t-37.5 284q0 239 82.5 421.5t243 286t378.5 103.5q180 0 410 -74l-117 -340h-14q-35 156 -126 244t-230 88q-396 0 -396 -703q0 -366 112 -548.5t322 -182.5q113 0 175.5 52
t62.5 143v456q0 79 -34.5 134.5t-96.5 74.5v21h463v-21q-62 -19 -95.5 -74t-33.5 -135v-466q0 -79 25.5 -130t72.5 -63v-23q-242 -40 -516 -40z" />
    <glyph glyph-name="gmacron" unicode="&#x1e21;" horiz-adv-x="1019" 
d="M199 1276v100h561v-100h-561zM481 -440q-84 0 -162 14.5t-144 43t-106 77t-40 110.5q0 85 93 152.5t228 95.5q-164 59 -200 166l2 17q150 66 233 157q-127 25 -210 118.5t-83 215.5q0 138 109.5 239t263.5 101q156 0 268 -104q40 66 96 108.5t111 42.5q42 0 71 -28
t29 -72q0 -41 -26 -70t-62 -29q-33 0 -68 31t-53 31q-29 0 -69 -43q80 -96 80 -207q0 -141 -111 -241.5t-266 -100.5h-21q-67 -63 -67 -98q0 -29 34 -50t87.5 -35t119 -28t131 -35t119 -50.5t87.5 -80.5t34 -119q0 -98 -71.5 -174.5t-186.5 -115.5t-250 -39zM283 727
q0 -128 47.5 -202t134.5 -74q89 0 137.5 74t48.5 202q0 131 -46.5 202.5t-139.5 71.5q-90 0 -136 -72.5t-46 -201.5zM188 -178q0 -91 88.5 -143.5t233.5 -49.5q137 1 228 56.5t91 134.5q0 36 -18 64.5t-43.5 46t-71.5 34t-81.5 24.5t-96 21.5t-94.5 22.5
q-115 -26 -175.5 -81t-60.5 -130z" />
    <glyph glyph-name="Hdotbelow" unicode="&#x1e24;" horiz-adv-x="1419" 
d="M530 0h-460v23q59 15 94 71t35 137v1076q0 76 -34 133.5t-95 75.5v20h460v-20q-60 -18 -94.5 -76.5t-34.5 -132.5v-340h615v340q0 74 -34 132.5t-93 76.5v20h459v-20q-60 -18 -94.5 -76t-34.5 -133v-1076q0 -81 35.5 -137t93.5 -71v-23h-459v23q57 15 92 71.5t35 136.5
v662h-615v-662q0 -81 35 -137t94 -71v-23zM709 -428q-52 0 -86.5 38t-34.5 91q0 56 34.5 93.5t86.5 37.5q54 0 89.5 -37.5t35.5 -93.5q0 -53 -36 -91t-89 -38z" />
    <glyph glyph-name="hdotbelow" unicode="&#x1e25;" horiz-adv-x="1114" 
d="M63 23q48 22 74.5 69.5t26.5 114.5v1077q0 78 -25 122t-82 64v21q172 26 279 133h18v-672q0 -73 -4 -131l2 -2q85 101 199.5 177.5t212.5 76.5q92 0 144.5 -64.5t52.5 -170.5v-631q0 -67 23.5 -115.5t66.5 -68.5v-23h-385v23q104 58 104 182v553q0 75 -30.5 117t-90.5 43
q-119 3 -295 -150v-563q0 -115 99 -182v-23h-390v23zM557 -428q-52 0 -87.5 38t-35.5 91q0 56 35.5 93.5t87.5 37.5t87.5 -37.5t35.5 -93.5q0 -53 -35.5 -91t-87.5 -38z" />
    <glyph glyph-name="Hbrevebelow" unicode="&#x1e2a;" horiz-adv-x="1419" 
d="M530 0h-460v23q59 15 94 71t35 137v1076q0 76 -34 133.5t-95 75.5v20h460v-20q-60 -18 -94.5 -76.5t-34.5 -132.5v-340h615v340q0 74 -34 132.5t-93 76.5v20h459v-20q-60 -18 -94.5 -76t-34.5 -133v-1076q0 -81 35.5 -137t93.5 -71v-23h-459v23q57 15 92 71.5t35 136.5
v662h-615v-662q0 -81 35 -137t94 -71v-23zM709 -463q-130 0 -208.5 93t-78.5 261l18 5q17 -90 94 -142.5t175 -52.5q99 0 174.5 52t93.5 143l20 -5q0 -168 -78.5 -261t-209.5 -93z" />
    <glyph glyph-name="hbrevebelow" unicode="&#x1e2b;" horiz-adv-x="1114" 
d="M63 23q48 22 74.5 69.5t26.5 114.5v1077q0 78 -25 122t-82 64v21q172 26 279 133h18v-672q0 -73 -4 -131l2 -2q85 101 199.5 177.5t212.5 76.5q92 0 144.5 -64.5t52.5 -170.5v-631q0 -67 23.5 -115.5t66.5 -68.5v-23h-385v23q104 58 104 182v553q0 75 -30.5 117t-90.5 43
q-119 3 -295 -150v-563q0 -115 99 -182v-23h-390v23zM557 -463q-131 0 -210 93t-79 261l19 5q18 -91 94.5 -143t175.5 -52t174.5 52t93.5 143l19 -5q0 -168 -78.5 -261t-208.5 -93z" />
    <glyph glyph-name="Ldotbelow" unicode="&#x1e36;" horiz-adv-x="1075" 
d="M819 0h-749v23q61 17 95 71.5t34 136.5v1076q0 84 -34 137.5t-95 71.5v20h460v-20q-61 -17 -95 -72t-34 -137v-1065q0 -176 164 -176q151 0 263.5 79.5t213.5 243.5l19 -2l-90 -438h-23q-40 51 -129 51zM541 -428q-52 0 -87.5 38t-35.5 91q0 56 35.5 93.5t87.5 37.5
t87.5 -37.5t35.5 -93.5q0 -53 -35.5 -91t-87.5 -38z" />
    <glyph glyph-name="ldotbelow" unicode="&#x1e37;" horiz-adv-x="514" 
d="M356 1624v-1413q0 -72 26 -120.5t71 -67.5v-23h-379v23q43 17 66.5 66t23.5 122v1067q0 156 -107 192v21q80 12 154.5 47t126.5 86h18zM258 -428q-52 0 -87.5 38t-35.5 91q0 56 35.5 93.5t87.5 37.5t87.5 -37.5t35.5 -93.5q0 -53 -35.5 -91t-87.5 -38z" />
    <glyph glyph-name="Ldotbelowmacron" unicode="&#x1e38;" horiz-adv-x="1075" 
d="M121 1743v100h561v-100h-561zM819 0h-749v23q61 17 95 71.5t34 136.5v1076q0 84 -34 137.5t-95 71.5v20h460v-20q-61 -17 -95 -72t-34 -137v-1065q0 -176 164 -176q151 0 263.5 79.5t213.5 243.5l19 -2l-90 -438h-23q-40 51 -129 51zM541 -428q-52 0 -87.5 38t-35.5 91
q0 56 35.5 93.5t87.5 37.5t87.5 -37.5t35.5 -93.5q0 -53 -35.5 -91t-87.5 -38z" />
    <glyph glyph-name="ldotbelowmacron" unicode="&#x1e39;" horiz-adv-x="561" 
d="M4 1745v100h559v-100h-559zM356 1624v-1413q0 -72 26 -120.5t71 -67.5v-23h-379v23q43 17 66.5 66t23.5 122v1067q0 156 -107 192v21q80 12 154.5 47t126.5 86h18zM258 -428q-52 0 -87.5 38t-35.5 91q0 56 35.5 93.5t87.5 37.5t87.5 -37.5t35.5 -93.5q0 -53 -35.5 -91
t-87.5 -38z" />
    <glyph glyph-name="Llinebelow" unicode="&#x1e3a;" horiz-adv-x="1075" 
d="M819 0h-749v23q61 17 95 71.5t34 136.5v1076q0 84 -34 137.5t-95 71.5v20h460v-20q-61 -17 -95 -72t-34 -137v-1065q0 -176 164 -176q151 0 263.5 79.5t213.5 243.5l19 -2l-90 -438h-23q-40 51 -129 51zM240 -305v104h602v-104h-602z" />
    <glyph glyph-name="llinebelow" unicode="&#x1e3b;" horiz-adv-x="514" 
d="M356 1624v-1413q0 -72 26 -120.5t71 -67.5v-23h-379v23q43 17 66.5 66t23.5 122v1067q0 156 -107 192v21q80 12 154.5 47t126.5 86h18zM-43 -305v104h602v-104h-602z" />
    <glyph glyph-name="Mdotbelow" unicode="&#x1e42;" horiz-adv-x="1800" 
d="M567 1536l330 -1118l356 1118h340v-20q-61 -25 -93 -80t-23 -121l145 -1122q15 -119 127 -170v-23h-438v23q55 24 85 69t23 101l-147 1134l-424 -1347h-33l-401 1355l-146 -1095q-10 -76 19.5 -135.5t83.5 -81.5v-23h-322v23q55 25 90.5 81.5t46.5 135.5l146 1077
q9 66 -23 120t-94 79v20h352zM815 -428q-52 0 -87.5 38t-35.5 91q0 56 35.5 93.5t87.5 37.5t87.5 -37.5t35.5 -93.5q0 -53 -35.5 -91t-87.5 -38z" />
    <glyph glyph-name="mdotbelow" unicode="&#x1e43;" horiz-adv-x="1693" 
d="M68 23q108 49 108 188v528q0 83 -24.5 125t-83.5 62v20q170 26 280 133h17v-123q0 -90 -3 -133l3 -2q84 102 191 177t198 75q93 0 145.5 -64t52.5 -169v-19q83 101 191.5 176.5t199.5 75.5q92 0 144.5 -64.5t52.5 -170.5v-627q0 -146 92 -188v-23h-383v23q103 59 103 186
v549q0 75 -31 117t-90 43q-102 3 -279 -146v-563q0 -139 92 -186v-23h-382v23q102 58 102 186v549q0 75 -31.5 117t-93.5 43q-97 3 -274 -146v-563q0 -125 104 -186v-23h-401v23zM848 -428q-52 0 -87.5 38t-35.5 91q0 56 35.5 93.5t87.5 37.5t87.5 -37.5t35.5 -93.5
q0 -53 -35.5 -91t-87.5 -38z" />
    <glyph glyph-name="Ndotaccent" unicode="&#x1e44;" horiz-adv-x="1325" 
d="M676 1704q-52 0 -86.5 39.5t-34.5 95.5t34.5 95.5t86.5 39.5q53 0 89 -39.5t36 -95.5t-36 -95.5t-89 -39.5zM1149 -41h-21l-849 1329v-1034q0 -88 37 -149t100 -82v-23h-350v23q62 20 97.5 81t35.5 150v1051q0 72 -34 131.5t-93 79.5v20h295l702 -1108v856
q0 83 -34.5 148t-98.5 84v20h332v-20q-57 -18 -88 -82.5t-31 -149.5v-1325z" />
    <glyph glyph-name="ndotaccent" unicode="&#x1e45;" horiz-adv-x="1126" 
d="M588 1247q-52 0 -87.5 38.5t-35.5 94.5q0 57 35.5 96.5t87.5 39.5t87.5 -39.5t35.5 -96.5q0 -56 -35.5 -94.5t-87.5 -38.5zM68 23q108 49 108 188v528q0 83 -24.5 125t-83.5 62v20q173 26 280 133h17v-123q0 -90 -3 -133l3 -2q84 102 197.5 177t211.5 75
q92 0 145.5 -64.5t53.5 -170.5v-627q0 -147 90 -188v-23h-383v23q53 30 77.5 74t24.5 112v549q0 157 -120 160q-118 3 -297 -146v-563q0 -125 104 -186v-23h-401v23z" />
    <glyph glyph-name="Ndotbelow" unicode="&#x1e46;" horiz-adv-x="1325" 
d="M1149 -41h-21l-849 1329v-1034q0 -88 37 -149t100 -82v-23h-350v23q62 20 97.5 81t35.5 150v1051q0 72 -34 131.5t-93 79.5v20h295l702 -1108v856q0 83 -34.5 148t-98.5 84v20h332v-20q-57 -18 -88 -82.5t-31 -149.5v-1325zM672 -428q-52 0 -87.5 38t-35.5 91
q0 56 35.5 93.5t87.5 37.5t87.5 -37.5t35.5 -93.5q0 -53 -35.5 -91t-87.5 -38z" />
    <glyph glyph-name="ndotbelow" unicode="&#x1e47;" horiz-adv-x="1126" 
d="M68 23q108 49 108 188v528q0 83 -24.5 125t-83.5 62v20q173 26 280 133h17v-123q0 -90 -3 -133l3 -2q84 102 197.5 177t211.5 75q92 0 145.5 -64.5t53.5 -170.5v-627q0 -147 90 -188v-23h-383v23q53 30 77.5 74t24.5 112v549q0 157 -120 160q-118 3 -297 -146v-563
q0 -125 104 -186v-23h-401v23zM563 -428q-52 0 -86.5 38t-34.5 91q0 56 34.5 93.5t86.5 37.5q54 0 89.5 -37.5t35.5 -93.5q0 -53 -36 -91t-89 -38z" />
    <glyph glyph-name="Nlinebelow" unicode="&#x1e48;" horiz-adv-x="1325" 
d="M1149 -41h-21l-849 1329v-1034q0 -88 37 -149t100 -82v-23h-350v23q62 20 97.5 81t35.5 150v1051q0 72 -34 131.5t-93 79.5v20h295l702 -1108v856q0 83 -34.5 148t-98.5 84v20h332v-20q-57 -18 -88 -82.5t-31 -149.5v-1325zM371 -305v104h600v-104h-600z" />
    <glyph glyph-name="nlinebelow" unicode="&#x1e49;" horiz-adv-x="1126" 
d="M68 23q108 49 108 188v528q0 83 -24.5 125t-83.5 62v20q173 26 280 133h17v-123q0 -90 -3 -133l3 -2q84 102 197.5 177t211.5 75q92 0 145.5 -64.5t53.5 -170.5v-627q0 -147 90 -188v-23h-383v23q53 30 77.5 74t24.5 112v549q0 157 -120 160q-118 3 -297 -146v-563
q0 -125 104 -186v-23h-401v23zM264 -305v104h600v-104h-600z" />
    <glyph glyph-name="Rdotbelow" unicode="&#x1e5a;" horiz-adv-x="1243" 
d="M70 1516q266 40 503 40q261 0 415.5 -124t154.5 -328q0 -94 -31 -174t-85 -136.5t-122 -94.5t-147 -58q87 -199 232 -402t298 -337l-10 -19q-236 91 -430.5 284t-308.5 460q-73 6 -140 24v-420q0 -80 34 -135.5t95 -72.5v-23h-458v23q62 15 95.5 70t33.5 138v1065
q0 77 -33 128.5t-96 70.5v21zM399 1296v-583q84 -17 156 -17q176 0 269.5 98t93.5 279q0 186 -90.5 301t-229.5 115q-92 0 -145.5 -51t-53.5 -142zM633 -428q-52 0 -86.5 38t-34.5 91q0 56 34.5 93.5t86.5 37.5q54 0 89.5 -37.5t35.5 -93.5q0 -53 -36 -91t-89 -38z" />
    <glyph glyph-name="rdotbelow" unicode="&#x1e5b;" horiz-adv-x="761" 
d="M365 954q0 -49 -5 -94l5 -2q46 89 119 152t145 63q53 0 90 -37.5t37 -93.5q0 -51 -30.5 -84t-70.5 -33q-33 0 -60.5 20.5t-53 41t-52.5 20.5q-30 0 -58.5 -23.5t-65.5 -72.5v-600q0 -131 108 -188v-23h-405v23q108 50 108 188v528q0 83 -24.5 125t-83.5 62v20
q169 26 280 133h17v-125zM266 -428q-52 0 -87.5 38t-35.5 91q0 56 35.5 93.5t87.5 37.5t87.5 -37.5t35.5 -93.5q0 -53 -35.5 -91t-87.5 -38z" />
    <glyph glyph-name="Rdotbelowmacron" unicode="&#x1e5c;" horiz-adv-x="1243" 
d="M342 1743v100h559v-100h-559zM70 1516q266 40 503 40q261 0 415.5 -124t154.5 -328q0 -94 -31 -174t-85 -136.5t-122 -94.5t-147 -58q87 -199 232 -402t298 -337l-10 -19q-236 91 -430.5 284t-308.5 460q-73 6 -140 24v-420q0 -80 34 -135.5t95 -72.5v-23h-458v23
q62 15 95.5 70t33.5 138v1065q0 77 -33 128.5t-96 70.5v21zM399 1296v-583q84 -17 156 -17q176 0 269.5 98t93.5 279q0 186 -90.5 301t-229.5 115q-92 0 -145.5 -51t-53.5 -142zM633 -428q-52 0 -86.5 38t-34.5 91q0 56 34.5 93.5t86.5 37.5q54 0 89.5 -37.5t35.5 -93.5
q0 -53 -36 -91t-89 -38z" />
    <glyph glyph-name="rdotbelowmacron" unicode="&#x1e5d;" horiz-adv-x="761" 
d="M100 1276v100h562v-100h-562zM365 954q0 -49 -5 -94l5 -2q46 89 119 152t145 63q53 0 90 -37.5t37 -93.5q0 -51 -30.5 -84t-70.5 -33q-33 0 -60.5 20.5t-53 41t-52.5 20.5q-30 0 -58.5 -23.5t-65.5 -72.5v-600q0 -131 108 -188v-23h-405v23q108 50 108 188v528
q0 83 -24.5 125t-83.5 62v20q169 26 280 133h17v-125zM266 -428q-52 0 -87.5 38t-35.5 91q0 56 35.5 93.5t87.5 37.5t87.5 -37.5t35.5 -93.5q0 -53 -35.5 -91t-87.5 -38z" />
    <glyph glyph-name="Rlinebelow" unicode="&#x1e5e;" horiz-adv-x="1243" 
d="M70 1516q266 40 503 40q261 0 415.5 -124t154.5 -328q0 -94 -31 -174t-85 -136.5t-122 -94.5t-147 -58q87 -199 232 -402t298 -337l-10 -19q-236 91 -430.5 284t-308.5 460q-73 6 -140 24v-420q0 -80 34 -135.5t95 -72.5v-23h-458v23q62 15 95.5 70t33.5 138v1065
q0 77 -33 128.5t-96 70.5v21zM399 1296v-583q84 -17 156 -17q176 0 269.5 98t93.5 279q0 186 -90.5 301t-229.5 115q-92 0 -145.5 -51t-53.5 -142zM334 -305v104h600v-104h-600z" />
    <glyph glyph-name="rlinebelow" unicode="&#x1e5f;" horiz-adv-x="761" 
d="M365 954q0 -49 -5 -94l5 -2q46 89 119 152t145 63q53 0 90 -37.5t37 -93.5q0 -51 -30.5 -84t-70.5 -33q-33 0 -60.5 20.5t-53 41t-52.5 20.5q-30 0 -58.5 -23.5t-65.5 -72.5v-600q0 -131 108 -188v-23h-405v23q108 50 108 188v528q0 83 -24.5 125t-83.5 62v20
q169 26 280 133h17v-125zM-35 -305v104h600v-104h-600z" />
    <glyph glyph-name="Sdotaccent" unicode="&#x1e60;" horiz-adv-x="1165" 
d="M584 1714q-52 0 -87.5 39.5t-35.5 95.5t35.5 96t87.5 40t87.5 -40t35.5 -96t-35.5 -95.5t-87.5 -39.5zM1085 446q0 -207 -154 -342t-403 -135q-123 0 -259.5 32.5t-243.5 76.5l143 364h22q27 -182 131 -285.5t269 -103.5q156 0 252 88t96 215q0 42 -11.5 78.5t-27 63.5
t-47 54t-55.5 44t-69.5 38.5t-73 33t-79.5 32.5q-48 19 -72.5 29t-69 29.5t-69.5 34t-61.5 38t-57 44.5t-45 51.5t-37 62t-21.5 71t-9 83.5q0 185 134.5 304.5t355.5 119.5q190 0 397 -62l-102 -336h-23q-26 146 -118.5 230t-227.5 84q-116 0 -192 -69t-76 -183
q0 -51 20 -93.5t49.5 -72.5t79.5 -59t93.5 -48t107.5 -45l45 -18q50 -20 87.5 -36.5t82.5 -41t77.5 -49t64.5 -59t52 -72.5t32.5 -86.5t12.5 -104.5z" />
    <glyph glyph-name="sdotaccent" unicode="&#x1e61;" horiz-adv-x="876" 
d="M438 1247q-52 0 -87.5 38.5t-35.5 94.5q0 57 35.5 96.5t87.5 39.5t87.5 -39.5t35.5 -96.5q0 -56 -35.5 -94.5t-87.5 -38.5zM811 313q0 -154 -117.5 -248t-300.5 -94q-162 0 -354 70l108 281h17q22 -133 107.5 -204t199.5 -71q92 0 150.5 51t58.5 131q0 34 -14 62.5
t-34 48t-55.5 38t-65 30t-75.5 28.5q-19 7 -28 10q-53 19 -88 34.5t-79 42.5t-69.5 57t-44 76t-18.5 102q0 136 106.5 225.5t280.5 89.5q133 0 256 -45l-70 -252h-18q-23 104 -91.5 164.5t-154.5 60.5q-80 0 -129 -47.5t-49 -115.5q0 -18 4.5 -34.5t10.5 -30t19.5 -26.5
t23 -22.5t30 -20.5t32.5 -17.5t37.5 -17t38.5 -15.5t42.5 -15.5t41.5 -15.5q50 -19 86 -35t77.5 -43.5t67 -57.5t43 -75t17.5 -99z" />
    <glyph glyph-name="Sdotbelow" unicode="&#x1e62;" horiz-adv-x="1165" 
d="M1085 446q0 -207 -154 -342t-403 -135q-123 0 -259.5 32.5t-243.5 76.5l143 364h22q27 -182 131 -285.5t269 -103.5q156 0 252 88t96 215q0 42 -11.5 78.5t-27 63.5t-47 54t-55.5 44t-69.5 38.5t-73 33t-79.5 32.5q-48 19 -72.5 29t-69 29.5t-69.5 34t-61.5 38t-57 44.5
t-45 51.5t-37 62t-21.5 71t-9 83.5q0 185 134.5 304.5t355.5 119.5q190 0 397 -62l-102 -336h-23q-26 146 -118.5 230t-227.5 84q-116 0 -192 -69t-76 -183q0 -51 20 -93.5t49.5 -72.5t79.5 -59t93.5 -48t107.5 -45l45 -18q50 -20 87.5 -36.5t82.5 -41t77.5 -49t64.5 -59
t52 -72.5t32.5 -86.5t12.5 -104.5zM563 -428q-52 0 -86.5 38t-34.5 91q0 56 34.5 93.5t86.5 37.5q53 0 89 -38t36 -93q0 -53 -36.5 -91t-88.5 -38z" />
    <glyph glyph-name="sdotbelow" unicode="&#x1e63;" horiz-adv-x="876" 
d="M811 313q0 -154 -117.5 -248t-300.5 -94q-162 0 -354 70l108 281h17q22 -133 107.5 -204t199.5 -71q92 0 150.5 51t58.5 131q0 34 -14 62.5t-34 48t-55.5 38t-65 30t-75.5 28.5q-19 7 -28 10q-53 19 -88 34.5t-79 42.5t-69.5 57t-44 76t-18.5 102q0 136 106.5 225.5
t280.5 89.5q133 0 256 -45l-70 -252h-18q-23 104 -91.5 164.5t-154.5 60.5q-80 0 -129 -47.5t-49 -115.5q0 -18 4.5 -34.5t10.5 -30t19.5 -26.5t23 -22.5t30 -20.5t32.5 -17.5t37.5 -17t38.5 -15.5t42.5 -15.5t41.5 -15.5q50 -19 86 -35t77.5 -43.5t67 -57.5t43 -75
t17.5 -99zM428 -434q-52 0 -87.5 38t-35.5 91q0 56 35.5 93.5t87.5 37.5t87.5 -37.5t35.5 -93.5q0 -53 -35.5 -91t-87.5 -38z" />
    <glyph glyph-name="Tdotbelow" unicode="&#x1e6c;" horiz-adv-x="1179" 
d="M240 1536h702q89 0 133 51h17l77 -416l-22 -4q-87 151 -166 226t-164 75q-125 0 -125 -106v-1141q0 -151 123 -198v-23h-450v23q124 46 124 198v1141q0 106 -124 106q-86 0 -164.5 -74.5t-167.5 -226.5l-23 4l78 416h18q42 -51 134 -51zM590 -428q-52 0 -87.5 38
t-35.5 91q0 56 35.5 93.5t87.5 37.5t87.5 -37.5t35.5 -93.5q0 -53 -35.5 -91t-87.5 -38z" />
    <glyph glyph-name="tdotbelow" unicode="&#x1e6d;" horiz-adv-x="679" 
d="M164 166v803h-152v26q103 60 181.5 144.5t146.5 199.5h18v-297h279v-73h-279v-744q0 -60 31 -94.5t88 -34.5q81 0 178 72l17 -23q-57 -79 -136 -127.5t-167 -48.5q-86 0 -145.5 53.5t-59.5 143.5zM365 -428q-52 0 -87.5 38t-35.5 91q0 56 35.5 93.5t87.5 37.5t87 -37.5
t35 -93.5q0 -53 -35 -91t-87 -38z" />
    <glyph glyph-name="Tlinebelow" unicode="&#x1e6e;" horiz-adv-x="1179" 
d="M240 1536h702q89 0 133 51h17l77 -416l-22 -4q-87 151 -166 226t-164 75q-125 0 -125 -106v-1141q0 -151 123 -198v-23h-450v23q124 46 124 198v1141q0 106 -124 106q-86 0 -164.5 -74.5t-167.5 -226.5l-23 4l78 416h18q42 -51 134 -51zM289 -305v104h600v-104h-600z" />
    <glyph glyph-name="tlinebelow" unicode="&#x1e6f;" horiz-adv-x="679" 
d="M164 166v803h-152v26q103 60 181.5 144.5t146.5 199.5h18v-297h279v-73h-279v-744q0 -60 31 -94.5t88 -34.5q81 0 178 72l17 -23q-57 -79 -136 -127.5t-167 -48.5q-86 0 -145.5 53.5t-59.5 143.5zM63 -305v104h603v-104h-603z" />
    <glyph glyph-name="Wgrave" unicode="&#x1e80;" horiz-adv-x="1853" 
d="M836 2021q29 -33 86 -148.5t118 -209.5l-14 -14q-81 67 -190.5 144.5t-139.5 111.5q-29 32 -29 72t31 67q37 27 73.5 18.5t64.5 -41.5zM1694 1264l-400 -1274h-47l-319 1036l-318 -1036h-49l-403 1270q-37 116 -79 174t-93 82v20h471v-20q-143 -68 -84 -259l274 -903
l240 807l-31 99q-35 117 -78.5 173.5t-99.5 82.5v20h471v-20q-37 -18 -60 -50t-30.5 -85t14.5 -124l262 -905l275 910q28 91 -12 157.5t-107 96.5v20h379v-20q-47 -22 -96.5 -88.5t-79.5 -163.5z" />
    <glyph glyph-name="wgrave" unicode="&#x1e81;" horiz-adv-x="1423" 
d="M612 1554q29 -33 86.5 -148.5t118.5 -209.5l-14 -14q-82 68 -191 144t-139 110q-29 33 -29 73.5t31 67.5q38 25 72.5 17t64.5 -40zM1307 801l-303 -821h-33l-254 663l-246 -663h-33l-327 837q-37 93 -68.5 140.5t-73.5 68.5v16h398v-16q-55 -25 -69.5 -79.5t15.5 -131.5
l197 -524l164 467l-27 69q-64 165 -127 199v16h387v-16q-116 -53 -59 -211l194 -532l183 526q21 60 15.5 106t-26.5 74t-53 37v16h293v-16q-80 -42 -147 -225z" />
    <glyph glyph-name="Wacute" unicode="&#x1e82;" horiz-adv-x="1853" 
d="M1026 2021q28 33 63.5 41.5t71.5 -18.5q31 -29 31 -68t-29 -71q-30 -34 -138.5 -111t-188.5 -145l-17 14q62 93 119.5 209t87.5 149zM1694 1264l-400 -1274h-47l-319 1036l-318 -1036h-49l-403 1270q-37 116 -79 174t-93 82v20h471v-20q-143 -68 -84 -259l274 -903
l240 807l-31 99q-35 117 -78.5 173.5t-99.5 82.5v20h471v-20q-37 -18 -60 -50t-30.5 -85t14.5 -124l262 -905l275 910q28 91 -12 157.5t-107 96.5v20h379v-20q-47 -22 -96.5 -88.5t-79.5 -163.5z" />
    <glyph glyph-name="wacute" unicode="&#x1e83;" horiz-adv-x="1423" 
d="M803 1554q18 21 40 32.5t48 10.5t47 -20q31 -29 31 -68.5t-29 -72.5q-30 -33 -138 -109t-190 -145l-16 12q62 94 119.5 210.5t87.5 149.5zM1307 801l-303 -821h-33l-254 663l-246 -663h-33l-327 837q-37 93 -68.5 140.5t-73.5 68.5v16h398v-16q-55 -25 -69.5 -79.5
t15.5 -131.5l197 -524l164 467l-27 69q-64 165 -127 199v16h387v-16q-116 -53 -59 -211l194 -532l183 526q21 60 15.5 106t-26.5 74t-53 37v16h293v-16q-80 -42 -147 -225z" />
    <glyph glyph-name="Wdieresis" unicode="&#x1e84;" horiz-adv-x="1853" 
d="M774 1714q-50 0 -84.5 39t-34.5 94q0 56 34 94.5t85 38.5t86 -38.5t35 -94.5q0 -54 -35 -93.5t-86 -39.5zM1096 1714q-49 0 -83 39t-34 94q0 56 34 94.5t83 38.5q52 0 87.5 -38.5t35.5 -94.5q0 -55 -35.5 -94t-87.5 -39zM1694 1264l-400 -1274h-47l-319 1036l-318 -1036
h-49l-403 1270q-37 116 -79 174t-93 82v20h471v-20q-143 -68 -84 -259l274 -903l240 807l-31 99q-35 117 -78.5 173.5t-99.5 82.5v20h471v-20q-37 -18 -60 -50t-30.5 -85t14.5 -124l262 -905l275 910q28 91 -12 157.5t-107 96.5v20h379v-20q-47 -22 -96.5 -88.5
t-79.5 -163.5z" />
    <glyph glyph-name="wdieresis" unicode="&#x1e85;" horiz-adv-x="1423" 
d="M551 1247q-51 0 -85 38.5t-34 92.5q0 56 34 94.5t85 38.5t86 -38.5t35 -94.5q0 -54 -35 -92.5t-86 -38.5zM872 1247q-49 0 -82.5 38.5t-33.5 92.5q0 56 33.5 94.5t82.5 38.5q52 0 87.5 -38.5t35.5 -94.5q0 -54 -35.5 -92.5t-87.5 -38.5zM1307 801l-303 -821h-33l-254 663
l-246 -663h-33l-327 837q-37 93 -68.5 140.5t-73.5 68.5v16h398v-16q-55 -25 -69.5 -79.5t15.5 -131.5l197 -524l164 467l-27 69q-64 165 -127 199v16h387v-16q-116 -53 -59 -211l194 -532l183 526q21 60 15.5 106t-26.5 74t-53 37v16h293v-16q-80 -42 -147 -225z" />
    <glyph glyph-name="Ydotaccent" unicode="&#x1e8e;" horiz-adv-x="1208" 
d="M655 1714q-52 0 -87.5 39.5t-35.5 95.5t35.5 96t87.5 40t87.5 -40t35.5 -96t-35.5 -95.5t-87.5 -39.5zM709 221q0 -156 120 -198v-23h-448v23q125 46 125 198v391l-344 645q-118 218 -211 259v20h520v-20q-76 -32 -99.5 -101t21.5 -158l285 -532l272 537q37 83 4.5 151
t-114.5 103v20h401v-20q-45 -21 -99 -89.5t-104 -162.5l-329 -648v-395z" />
    <glyph glyph-name="ydotaccent" unicode="&#x1e8f;" horiz-adv-x="944" 
d="M516 1247q-52 0 -86.5 38.5t-34.5 94.5q0 57 34.5 96.5t86.5 39.5t88.5 -39.5t36.5 -96.5q0 -56 -36.5 -94.5t-88.5 -38.5zM131 -436q-71 0 -125.5 41.5t-54.5 101.5q0 48 30 78.5t72 30.5q32 0 55.5 -20t35 -43.5t31.5 -43.5t44 -20q96 2 182 241l39 101l-323 778
q-39 98 -71.5 146t-74.5 71v16h422v-16q-129 -69 -65 -217l211 -522l202 522q28 76 9.5 132.5t-72.5 84.5v16h295v-16q-36 -20 -75.5 -81.5t-70.5 -133.5l-364 -913q-68 -170 -147 -252t-185 -82z" />
    <glyph glyph-name="Zdotbelow" unicode="&#x1e92;" horiz-adv-x="1167" 
d="M1141 375l-99 -436h-20q-46 61 -150 61h-827v25l793 1439h-283q-141 0 -247.5 -67t-215.5 -209l-16 4l65 395h17q40 -51 145 -51h795v-20l-793 -1444h309q156 0 276.5 79t229.5 228zM582 -428q-51 0 -86 38t-35 91q0 55 35 93t86 38q54 0 89.5 -37.5t35.5 -93.5
q0 -53 -36 -91t-89 -38z" />
    <glyph glyph-name="zdotbelow" unicode="&#x1e93;" horiz-adv-x="913" 
d="M879 307l-60 -364h-22q-27 30 -60.5 43.5t-87.5 13.5h-600v23l537 952h-142q-116 0 -189 -55t-159 -187l-18 4l59 365h19q51 -60 151 -60h531v-20l-539 -954h225q108 0 185.5 60t148.5 181zM453 -428q-52 0 -87.5 38t-35.5 91q0 56 35.5 93.5t87.5 37.5t87 -37.5
t35 -93.5q0 -53 -35 -91t-87 -38z" />
    <glyph glyph-name="Adotbelow" unicode="&#x1ea0;" horiz-adv-x="1296" 
d="M160 268l463 1278h47l473 -1274q43 -115 83.5 -170.5t92.5 -78.5v-23h-467v23q38 15 62 47t30 83.5t-20 120.5l-93 256h-493l-88 -260q-30 -89 10 -153.5t107 -93.5v-23h-396v23q49 19 102.5 87t86.5 158zM365 606h438l-223 623zM649 -428q-52 0 -86.5 38t-34.5 91
q0 56 34.5 93.5t86.5 37.5q54 0 89.5 -37.5t35.5 -93.5q0 -53 -36 -91t-89 -38z" />
    <glyph glyph-name="adotbelow" unicode="&#x1ea1;" horiz-adv-x="1001" 
d="M63 211q0 71 37 136.5t108 120.5t182.5 94.5t252.5 55.5v256q0 62 -32.5 99t-94.5 37q-54 0 -91.5 -28.5t-57 -69t-38 -80.5t-48 -68.5t-72.5 -28.5q-38 0 -63 26t-25 66q0 60 56.5 116.5t154.5 92t209 35.5q136 0 214.5 -57t78.5 -162q0 -83 -2.5 -333t-2.5 -353
q0 -44 19 -68t53 -24q45 0 88 37l12 -17q-29 -54 -84.5 -87.5t-113.5 -33.5q-69 0 -116 43t-46 127v11h-2q-156 -183 -330 -183q-105 0 -175.5 67.5t-70.5 172.5zM262 270q0 -79 39 -124.5t105 -45.5q126 0 235 103q0 241 2 364q-206 -36 -293.5 -112.5t-87.5 -184.5z
M496 -428q-52 0 -87.5 38t-35.5 91q0 56 35.5 93.5t87.5 37.5t87 -37.5t35 -93.5q0 -53 -35 -91t-87 -38z" />
    <glyph glyph-name="Ahookabove" unicode="&#x1ea2;" horiz-adv-x="1296" 
d="M614 1724q0 34 13 61t32 45.5t37.5 36.5t31.5 43.5t13 57.5q0 42 -19.5 65t-53.5 23q-30 0 -49.5 -21t-27.5 -45.5t-27 -45.5t-48 -21q-25 0 -40 17t-15 40q0 44 60.5 82.5t144.5 38.5q85 0 148 -48t63 -122q0 -50 -25 -85.5t-60 -54t-69 -35.5t-54 -42t-14 -61h-20
q-21 38 -21 71zM160 268l463 1278h47l473 -1274q43 -115 83.5 -170.5t92.5 -78.5v-23h-467v23q38 15 62 47t30 83.5t-20 120.5l-93 256h-493l-88 -260q-30 -89 10 -153.5t107 -93.5v-23h-396v23q49 19 102.5 87t86.5 158zM365 606h438l-223 623z" />
    <glyph glyph-name="ahookabove" unicode="&#x1ea3;" horiz-adv-x="1001" 
d="M459 1262q0 41 20 73.5t43.5 51t43.5 49.5t20 69q0 42 -20.5 64t-55.5 22q-30 0 -49.5 -21t-27.5 -45.5t-27 -45.5t-48 -21q-25 0 -40 17.5t-15 40.5q0 45 61 82.5t144 37.5q86 0 148.5 -47.5t62.5 -120.5q0 -51 -25 -86.5t-59 -54.5t-67.5 -35.5t-53.5 -41.5t-14 -60
h-23q-18 30 -18 72zM63 211q0 71 37 136.5t108 120.5t182.5 94.5t252.5 55.5v256q0 62 -32.5 99t-94.5 37q-54 0 -91.5 -28.5t-57 -69t-38 -80.5t-48 -68.5t-72.5 -28.5q-38 0 -63 26t-25 66q0 60 56.5 116.5t154.5 92t209 35.5q136 0 214.5 -57t78.5 -162q0 -83 -2.5 -333
t-2.5 -353q0 -44 19 -68t53 -24q45 0 88 37l12 -17q-29 -54 -84.5 -87.5t-113.5 -33.5q-69 0 -116 43t-46 127v11h-2q-156 -183 -330 -183q-105 0 -175.5 67.5t-70.5 172.5zM262 270q0 -79 39 -124.5t105 -45.5q126 0 235 103q0 241 2 364q-206 -36 -293.5 -112.5
t-87.5 -184.5z" />
    <glyph glyph-name="Acircumflexacute" unicode="&#x1ea4;" horiz-adv-x="1296" 
d="M872 1888q14 101 17 221t14 160q10 39 38 62t67 14q37 -7 52.5 -41.5t4.5 -75.5q-13 -44 -74 -150.5t-102 -195.5zM350 1651l207 344q32 50 92.5 48t89.5 -48l211 -344l-14 -9l-283 218h-10l-283 -218zM160 268l463 1278h47l473 -1274q43 -115 83.5 -170.5t92.5 -78.5
v-23h-467v23q38 15 62 47t30 83.5t-20 120.5l-93 256h-493l-88 -260q-30 -89 10 -153.5t107 -93.5v-23h-396v23q49 19 102.5 87t86.5 158zM365 606h438l-223 623z" />
    <glyph glyph-name="acircumflexacute" unicode="&#x1ea5;" horiz-adv-x="1001" 
d="M717 1423q13 102 15.5 222t12.5 161q10 38 38 61t67 15q38 -9 53 -43t4 -74q-12 -46 -73.5 -154.5t-100.5 -191.5zM193 1188l208 342q31 50 92 48.5t89 -48.5l213 -342l-15 -10l-284 217h-9l-284 -217zM63 211q0 71 37 136.5t108 120.5t182.5 94.5t252.5 55.5v256
q0 62 -32.5 99t-94.5 37q-54 0 -91.5 -28.5t-57 -69t-38 -80.5t-48 -68.5t-72.5 -28.5q-38 0 -63 26t-25 66q0 60 56.5 116.5t154.5 92t209 35.5q136 0 214.5 -57t78.5 -162q0 -83 -2.5 -333t-2.5 -353q0 -44 19 -68t53 -24q45 0 88 37l12 -17q-29 -54 -84.5 -87.5
t-113.5 -33.5q-69 0 -116 43t-46 127v11h-2q-156 -183 -330 -183q-105 0 -175.5 67.5t-70.5 172.5zM262 270q0 -79 39 -124.5t105 -45.5q126 0 235 103q0 241 2 364q-206 -36 -293.5 -112.5t-87.5 -184.5z" />
    <glyph glyph-name="Acircumflexgrave" unicode="&#x1ea6;" horiz-adv-x="1296" 
d="M758 2228q-11 42 4 76t53 41q39 9 67 -14t38 -62q10 -40 12.5 -159.5t15.5 -221.5l-16 -6q-39 87 -100.5 194t-73.5 152zM350 1651l207 344q31 48 92.5 46.5t89.5 -46.5l211 -344l-14 -9l-283 218h-10l-283 -218zM160 268l463 1278h47l473 -1274q43 -115 83.5 -170.5
t92.5 -78.5v-23h-467v23q38 15 62 47t30 83.5t-20 120.5l-93 256h-493l-88 -260q-30 -89 10 -153.5t107 -93.5v-23h-396v23q49 19 102.5 87t86.5 158zM365 606h438l-223 623z" />
    <glyph glyph-name="acircumflexgrave" unicode="&#x1ea7;" horiz-adv-x="1001" 
d="M600 1765q-11 40 4.5 74t52.5 43q39 8 67 -15t38 -61q11 -41 14 -161.5t17 -221.5l-17 -4q-40 87 -101.5 194t-74.5 152zM193 1188l208 342q30 50 91.5 48.5t89.5 -48.5l213 -342l-15 -10l-284 217h-9l-284 -217zM63 211q0 71 37 136.5t108 120.5t182.5 94.5t252.5 55.5
v256q0 62 -32.5 99t-94.5 37q-54 0 -91.5 -28.5t-57 -69t-38 -80.5t-48 -68.5t-72.5 -28.5q-38 0 -63 26t-25 66q0 60 56.5 116.5t154.5 92t209 35.5q136 0 214.5 -57t78.5 -162q0 -83 -2.5 -333t-2.5 -353q0 -44 19 -68t53 -24q45 0 88 37l12 -17q-29 -54 -84.5 -87.5
t-113.5 -33.5q-69 0 -116 43t-46 127v11h-2q-156 -183 -330 -183q-105 0 -175.5 67.5t-70.5 172.5zM262 270q0 -79 39 -124.5t105 -45.5q126 0 235 103q0 241 2 364q-206 -36 -293.5 -112.5t-87.5 -184.5z" />
    <glyph glyph-name="Acircumflexhookabove" unicode="&#x1ea8;" horiz-adv-x="1296" 
d="M895 1966q0 34 13 61t31.5 45t37.5 36t32 43t13 57q0 43 -20.5 65.5t-53.5 22.5q-31 0 -50.5 -21t-27.5 -45.5t-26 -45.5t-47 -21q-26 0 -41 17t-15 40q0 45 60.5 83t144.5 38t146.5 -47.5t62.5 -120.5q0 -51 -25 -86.5t-59 -54.5t-67.5 -36t-53.5 -42t-14 -60l-23 -2
q-18 33 -18 74zM350 1651l207 344q31 48 92.5 46.5t89.5 -46.5l211 -344l-14 -9l-283 218h-10l-283 -218zM160 268l463 1278h47l473 -1274q43 -115 83.5 -170.5t92.5 -78.5v-23h-467v23q38 15 62 47t30 83.5t-20 120.5l-93 256h-493l-88 -260q-30 -89 10 -153.5t107 -93.5
v-23h-396v23q49 19 102.5 87t86.5 158zM365 606h438l-223 623z" />
    <glyph glyph-name="acircumflexhookabove" unicode="&#x1ea9;" horiz-adv-x="1001" 
d="M737 1501q0 34 13 61t31.5 45.5t37.5 36.5t32 43.5t13 57.5q0 42 -19.5 65t-53.5 23q-30 0 -49.5 -21t-27.5 -46t-27 -46t-48 -22q-25 0 -40 17.5t-15 41.5q0 44 60 81.5t144 37.5q85 0 148 -47t63 -121q0 -50 -25 -85.5t-59.5 -54t-68.5 -35.5t-54 -42t-14 -61h-20
q-21 35 -21 71zM193 1188l208 342q30 50 91.5 48.5t89.5 -48.5l213 -342l-15 -10l-284 217h-9l-284 -217zM63 211q0 71 37 136.5t108 120.5t182.5 94.5t252.5 55.5v256q0 62 -32.5 99t-94.5 37q-54 0 -91.5 -28.5t-57 -69t-38 -80.5t-48 -68.5t-72.5 -28.5q-38 0 -63 26
t-25 66q0 60 56.5 116.5t154.5 92t209 35.5q136 0 214.5 -57t78.5 -162q0 -83 -2.5 -333t-2.5 -353q0 -44 19 -68t53 -24q45 0 88 37l12 -17q-29 -54 -84.5 -87.5t-113.5 -33.5q-69 0 -116 43t-46 127v11h-2q-156 -183 -330 -183q-105 0 -175.5 67.5t-70.5 172.5zM262 270
q0 -79 39 -124.5t105 -45.5q126 0 235 103q0 241 2 364q-206 -36 -293.5 -112.5t-87.5 -184.5z" />
    <glyph glyph-name="Acircumflextilde" unicode="&#x1eaa;" horiz-adv-x="1296" 
d="M506 2232q-37 0 -65 -33.5t-44 -91.5l-16 4q9 128 56 195.5t124 67.5q37 0 74 -22.5t62 -49.5t55.5 -49.5t56.5 -22.5q39 0 67.5 33t38.5 96l19 -4q-10 -129 -56.5 -196.5t-123.5 -67.5q-37 0 -75 22t-63 48.5t-55.5 48.5t-54.5 22zM350 1651l207 344q32 48 92 46.5
t90 -46.5l211 -344l-14 -9l-283 218h-10l-281 -218zM160 268l463 1278h47l473 -1274q43 -115 83.5 -170.5t92.5 -78.5v-23h-467v23q38 15 62 47t30 83.5t-20 120.5l-93 256h-493l-88 -260q-30 -89 10 -153.5t107 -93.5v-23h-396v23q49 19 102.5 87t86.5 158zM365 606h438
l-223 623z" />
    <glyph glyph-name="acircumflextilde" unicode="&#x1eab;" horiz-adv-x="1001" 
d="M350 1769q-74 0 -108 -124l-19 4q10 128 57 195t123 67q37 0 74.5 -22.5t62 -49.5t55 -49.5t56.5 -22.5q40 0 68.5 32.5t38.5 96.5l18 -4q-21 -264 -180 -264q-37 0 -74 22t-62 48.5t-55.5 48.5t-54.5 22zM193 1188l208 342q30 50 91.5 48.5t89.5 -48.5l213 -342l-15 -10
l-284 217h-9l-280 -217zM63 211q0 71 37 136.5t108 120.5t182.5 94.5t252.5 55.5v256q0 62 -32.5 99t-94.5 37q-54 0 -91.5 -28.5t-57 -69t-38 -80.5t-48 -68.5t-72.5 -28.5q-38 0 -63 26t-25 66q0 60 56.5 116.5t154.5 92t209 35.5q136 0 214.5 -57t78.5 -162
q0 -83 -2.5 -333t-2.5 -353q0 -44 19 -68t53 -24q45 0 88 37l12 -17q-29 -54 -84.5 -87.5t-113.5 -33.5q-69 0 -116 43t-46 127v11h-2q-156 -183 -330 -183q-105 0 -175.5 67.5t-70.5 172.5zM262 270q0 -79 39 -124.5t105 -45.5q126 0 235 103q0 241 2 364
q-206 -36 -293.5 -112.5t-87.5 -184.5z" />
    <glyph glyph-name="Acircumflexdotbelow" unicode="&#x1eac;" horiz-adv-x="1296" 
d="M350 1651l207 356q30 50 92.5 48.5t89.5 -48.5l211 -356l-14 -11l-283 232h-10l-281 -232zM160 268l463 1278h47l473 -1274q43 -115 83.5 -170.5t92.5 -78.5v-23h-467v23q38 15 62 47t30 83.5t-20 120.5l-93 256h-493l-88 -260q-30 -89 10 -153.5t107 -93.5v-23h-396v23
q49 19 102.5 87t86.5 158zM365 606h438l-223 623zM649 -428q-52 0 -86.5 38t-34.5 91q0 56 34.5 93.5t86.5 37.5q54 0 89.5 -37.5t35.5 -93.5q0 -53 -36 -91t-89 -38z" />
    <glyph glyph-name="acircumflexdotbelow" unicode="&#x1ead;" horiz-adv-x="1001" 
d="M193 1186l208 356q30 50 92 48.5t89 -48.5l213 -356l-15 -10l-284 231h-9l-280 -231zM63 211q0 71 37 136.5t108 120.5t182.5 94.5t252.5 55.5v256q0 62 -32.5 99t-94.5 37q-54 0 -91.5 -28.5t-57 -69t-38 -80.5t-48 -68.5t-72.5 -28.5q-38 0 -63 26t-25 66
q0 60 56.5 116.5t154.5 92t209 35.5q136 0 214.5 -57t78.5 -162q0 -83 -2.5 -333t-2.5 -353q0 -44 19 -68t53 -24q45 0 88 37l12 -17q-29 -54 -84.5 -87.5t-113.5 -33.5q-69 0 -116 43t-46 127v11h-2q-156 -183 -330 -183q-105 0 -175.5 67.5t-70.5 172.5zM262 270
q0 -79 39 -124.5t105 -45.5q126 0 235 103q0 241 2 364q-206 -36 -293.5 -112.5t-87.5 -184.5zM496 -428q-52 0 -87.5 38t-35.5 91q0 56 35.5 93.5t87.5 37.5t87 -37.5t35 -93.5q0 -53 -35 -91t-87 -38z" />
    <glyph glyph-name="Abreveacute" unicode="&#x1eae;" horiz-adv-x="1296" 
d="M700 2337q22 33 54 45.5t69 -6.5q34 -20 39 -58t-18 -71q-24 -35 -111.5 -120.5t-152.5 -158.5l-17 12q41 92 77 206.5t60 150.5zM649 1665q-128 0 -206 96.5t-78 266.5l18 2q18 -97 93 -151t173 -54q97 0 170 53t92 152l21 -2q0 -170 -78 -266.5t-205 -96.5zM160 268
l463 1278h47l473 -1274q43 -115 83.5 -170.5t92.5 -78.5v-23h-467v23q38 15 62 47t30 83.5t-20 120.5l-93 256h-493l-88 -260q-30 -89 10 -153.5t107 -93.5v-23h-396v23q49 19 102.5 87t86.5 158zM365 606h438l-223 623z" />
    <glyph glyph-name="abreveacute" unicode="&#x1eaf;" horiz-adv-x="1001" 
d="M545 1872q20 33 52 45.5t69 -6.5q34 -20 38.5 -57.5t-18.5 -69.5q-23 -35 -111.5 -121t-152.5 -158l-16 13q39 88 76.5 203t62.5 151zM492 1202q-128 0 -205.5 96t-77.5 265l18 4q18 -99 92 -152t173 -53q98 0 171 53t91 152l20 -4q0 -169 -77 -265t-205 -96zM63 211
q0 71 37 136.5t108 120.5t182.5 94.5t252.5 55.5v256q0 62 -32.5 99t-94.5 37q-54 0 -91.5 -28.5t-57 -69t-38 -80.5t-48 -68.5t-72.5 -28.5q-38 0 -63 26t-25 66q0 60 56.5 116.5t154.5 92t209 35.5q136 0 214.5 -57t78.5 -162q0 -83 -2.5 -333t-2.5 -353q0 -44 19 -68
t53 -24q45 0 88 37l12 -17q-29 -54 -84.5 -87.5t-113.5 -33.5q-69 0 -116 43t-46 127v11h-2q-156 -183 -330 -183q-105 0 -175.5 67.5t-70.5 172.5zM262 270q0 -79 39 -124.5t105 -45.5q126 0 235 103q0 241 2 364q-206 -36 -293.5 -112.5t-87.5 -184.5z" />
    <glyph glyph-name="Abrevegrave" unicode="&#x1eb0;" horiz-adv-x="1296" 
d="M594 2357q25 -37 61 -151.5t76 -204.5l-16 -12q-66 76 -153.5 160t-110.5 118q-23 33 -18 71t38 58q39 19 70 7t53 -46zM649 1665q-128 0 -206 96.5t-78 266.5l18 2q18 -97 93 -151t173 -54q97 0 170 53t92 152l21 -2q0 -170 -78 -266.5t-205 -96.5zM160 268l463 1278h47
l473 -1274q43 -115 83.5 -170.5t92.5 -78.5v-23h-467v23q38 15 62 47t30 83.5t-20 120.5l-93 256h-493l-88 -260q-30 -89 10 -153.5t107 -93.5v-23h-396v23q49 19 102.5 87t86.5 158zM365 606h438l-223 623z" />
    <glyph glyph-name="abrevegrave" unicode="&#x1eb1;" horiz-adv-x="1001" 
d="M436 1892q25 -36 62.5 -151t76.5 -203l-16 -12q-64 72 -152.5 157.5t-111.5 120.5q-23 32 -18.5 69.5t38.5 57.5q37 19 69 6.5t52 -45.5zM492 1202q-128 0 -205.5 96t-77.5 265l18 4q18 -99 92 -152t173 -53q98 0 171 53t91 152l20 -4q0 -169 -77 -265t-205 -96zM63 211
q0 71 37 136.5t108 120.5t182.5 94.5t252.5 55.5v256q0 62 -32.5 99t-94.5 37q-54 0 -91.5 -28.5t-57 -69t-38 -80.5t-48 -68.5t-72.5 -28.5q-38 0 -63 26t-25 66q0 60 56.5 116.5t154.5 92t209 35.5q136 0 214.5 -57t78.5 -162q0 -83 -2.5 -333t-2.5 -353q0 -44 19 -68
t53 -24q45 0 88 37l12 -17q-29 -54 -84.5 -87.5t-113.5 -33.5q-69 0 -116 43t-46 127v11h-2q-156 -183 -330 -183q-105 0 -175.5 67.5t-70.5 172.5zM262 270q0 -79 39 -124.5t105 -45.5q126 0 235 103q0 241 2 364q-206 -36 -293.5 -112.5t-87.5 -184.5z" />
    <glyph glyph-name="Abrevehookabove" unicode="&#x1eb2;" horiz-adv-x="1296" 
d="M618 2040q0 34 13 61t32 45.5t37.5 36.5t31.5 43.5t13 57.5q0 42 -20 64t-53 22q-31 0 -50.5 -21t-28 -46t-27.5 -46t-48 -21q-25 0 -40 17.5t-15 40.5q0 45 61 83t144 38q86 0 148.5 -47.5t62.5 -120.5q0 -51 -25 -86.5t-59.5 -54.5t-68 -36t-53.5 -42t-14 -60h-22
q-19 32 -19 72zM649 1665q-128 0 -206 96.5t-78 266.5l18 2q18 -97 93 -151t173 -54q97 0 170 53t92 152l21 -2q0 -170 -78 -266.5t-205 -96.5zM160 268l463 1278h47l473 -1274q43 -115 83.5 -170.5t92.5 -78.5v-23h-467v23q38 15 62 47t30 83.5t-20 120.5l-93 256h-493
l-88 -260q-30 -89 10 -153.5t107 -93.5v-23h-396v23q49 19 102.5 87t86.5 158zM365 606h438l-223 623z" />
    <glyph glyph-name="abrevehookabove" unicode="&#x1eb3;" horiz-adv-x="1001" 
d="M461 1575q0 34 13 61t31.5 45.5t37.5 36.5t32 43.5t13 57.5q0 42 -20 65t-54 23q-31 0 -50.5 -21t-27 -45.5t-26.5 -45.5t-48 -21q-26 0 -40.5 16.5t-14.5 40.5q0 44 60.5 82.5t144.5 38.5q85 0 147 -48t62 -122q0 -50 -25 -85.5t-59 -54.5t-67.5 -36t-53.5 -42t-14 -61
h-21q-20 36 -20 72zM492 1202q-128 0 -205.5 96t-77.5 265l18 4q18 -99 92 -152t173 -53q98 0 171 53t91 152l20 -4q0 -169 -77 -265t-205 -96zM63 211q0 71 37 136.5t108 120.5t182.5 94.5t252.5 55.5v256q0 62 -32.5 99t-94.5 37q-54 0 -91.5 -28.5t-57 -69t-38 -80.5
t-48 -68.5t-72.5 -28.5q-38 0 -63 26t-25 66q0 60 56.5 116.5t154.5 92t209 35.5q136 0 214.5 -57t78.5 -162q0 -83 -2.5 -333t-2.5 -353q0 -44 19 -68t53 -24q45 0 88 37l12 -17q-29 -54 -84.5 -87.5t-113.5 -33.5q-69 0 -116 43t-46 127v11h-2q-156 -183 -330 -183
q-105 0 -175.5 67.5t-70.5 172.5zM262 270q0 -79 39 -124.5t105 -45.5q126 0 235 103q0 241 2 364q-206 -36 -293.5 -112.5t-87.5 -184.5z" />
    <glyph glyph-name="Abrevetilde" unicode="&#x1eb4;" horiz-adv-x="1296" 
d="M498 2185q-74 0 -109 -125l-18 4q10 128 57 195.5t123 67.5q37 0 74.5 -22t62.5 -48t55.5 -48t55.5 -22q40 0 68 32.5t38 96.5l19 -4q-9 -130 -55.5 -197t-125.5 -67q-37 0 -74 21.5t-62 47t-55 47t-54 21.5zM367 2019l18 2q18 -94 91.5 -145t172.5 -51q97 0 169.5 51
t90.5 145l21 -2q0 -166 -77 -260t-204 -94t-204.5 94t-77.5 260zM160 268l463 1278h47l473 -1274q43 -115 83.5 -170.5t92.5 -78.5v-23h-467v23q38 15 62 47t30 83.5t-20 120.5l-93 256h-493l-88 -260q-30 -89 10 -153.5t107 -93.5v-23h-396v23q49 19 102.5 87t86.5 158z
M365 606h438l-223 623z" />
    <glyph glyph-name="abrevetilde" unicode="&#x1eb5;" horiz-adv-x="1001" 
d="M340 1720q-37 0 -65 -33.5t-44 -91.5l-16 4q9 128 56 195.5t124 67.5q37 0 74 -22t62 -48t55.5 -48t56.5 -22q39 0 68 33t39 96l18 -4q-10 -129 -57 -196.5t-125 -67.5q-37 0 -74 21.5t-62 47t-55.5 47t-54.5 21.5zM211 1554l18 5q17 -94 91 -145.5t172 -51.5
q97 0 169.5 50.5t90.5 146.5l20 -5q0 -166 -76.5 -259t-203.5 -93t-204 93t-77 259zM63 211q0 71 37 136.5t108 120.5t182.5 94.5t252.5 55.5v256q0 62 -32.5 99t-94.5 37q-54 0 -91.5 -28.5t-57 -69t-38 -80.5t-48 -68.5t-72.5 -28.5q-38 0 -63 26t-25 66q0 60 56.5 116.5
t154.5 92t209 35.5q136 0 214.5 -57t78.5 -162q0 -83 -2.5 -333t-2.5 -353q0 -44 19 -68t53 -24q45 0 88 37l12 -17q-29 -54 -84.5 -87.5t-113.5 -33.5q-69 0 -116 43t-46 127v11h-2q-156 -183 -330 -183q-105 0 -175.5 67.5t-70.5 172.5zM262 270q0 -79 39 -124.5
t105 -45.5q126 0 235 103q0 241 2 364q-206 -36 -293.5 -112.5t-87.5 -184.5z" />
    <glyph glyph-name="Abrevedotbelow" unicode="&#x1eb6;" horiz-adv-x="1296" 
d="M649 1671q-128 0 -206 96.5t-78 266.5l18 2q18 -97 93 -151t173 -54q97 0 170 53t92 152l21 -2q0 -170 -78 -266.5t-205 -96.5zM160 268l463 1278h47l473 -1274q43 -115 83.5 -170.5t92.5 -78.5v-23h-467v23q38 15 62 47t30 83.5t-20 120.5l-93 256h-493l-88 -260
q-30 -89 10 -153.5t107 -93.5v-23h-396v23q49 19 102.5 87t86.5 158zM365 606h438l-223 623zM649 -428q-52 0 -86.5 38t-34.5 91q0 56 34.5 93.5t86.5 37.5q54 0 89.5 -37.5t35.5 -93.5q0 -53 -36 -91t-89 -38z" />
    <glyph glyph-name="abrevedotbelow" unicode="&#x1eb7;" horiz-adv-x="1001" 
d="M492 1208q-128 0 -205.5 96t-77.5 265l18 4q18 -99 92 -152t173 -53q98 0 171 53t91 152l20 -4q0 -169 -77 -265t-205 -96zM63 211q0 71 37 136.5t108 120.5t182.5 94.5t252.5 55.5v256q0 62 -32.5 99t-94.5 37q-54 0 -91.5 -28.5t-57 -69t-38 -80.5t-48 -68.5
t-72.5 -28.5q-38 0 -63 26t-25 66q0 60 56.5 116.5t154.5 92t209 35.5q136 0 214.5 -57t78.5 -162q0 -83 -2.5 -333t-2.5 -353q0 -44 19 -68t53 -24q45 0 88 37l12 -17q-29 -54 -84.5 -87.5t-113.5 -33.5q-69 0 -116 43t-46 127v11h-2q-156 -183 -330 -183
q-105 0 -175.5 67.5t-70.5 172.5zM262 270q0 -79 39 -124.5t105 -45.5q126 0 235 103q0 241 2 364q-206 -36 -293.5 -112.5t-87.5 -184.5zM496 -428q-52 0 -87.5 38t-35.5 91q0 56 35.5 93.5t87.5 37.5t87 -37.5t35 -93.5q0 -53 -35 -91t-87 -38z" />
    <glyph glyph-name="Edotbelow" unicode="&#x1eb8;" horiz-adv-x="1243" 
d="M70 1536h839q97 0 138 51h18l63 -416l-20 -4q-91 158 -209 230.5t-295 72.5q-205 0 -205 -174v-417h326q95 0 159 36t99 123h18v-401h-18q-92 168 -256 168h-328v-559q0 -87 56 -133.5t155 -46.5q192 0 326.5 82t237.5 249l18 -2l-98 -446h-23q-43 51 -129 51h-872v23
q61 18 95 70.5t34 137.5v1076q0 81 -33.5 136.5t-95.5 72.5v20zM625 -428q-52 0 -86.5 38t-34.5 91q0 56 34.5 93.5t86.5 37.5q54 0 89.5 -37.5t35.5 -93.5q0 -53 -36 -91t-89 -38z" />
    <glyph glyph-name="edotbelow" unicode="&#x1eb9;" horiz-adv-x="958" 
d="M252 586q0 -213 91.5 -339t236.5 -126q88 0 161 44t117 124l23 -13q-42 -141 -148.5 -224t-234.5 -83q-82 0 -158 34t-136 97t-96 162t-36 219q0 161 60 297t166 215.5t234 79.5q157 0 259 -118.5t102 -301.5v-43h-641v-24zM489 999q-87 0 -152 -82t-81 -239h442
q-2 143 -59 232t-150 89zM489 -428q-52 0 -86 38t-34 91q0 56 34 93.5t86 37.5q53 0 89 -38t36 -93q0 -53 -36.5 -91t-88.5 -38z" />
    <glyph glyph-name="Ehookabove" unicode="&#x1eba;" horiz-adv-x="1243" 
d="M592 1729q0 41 20 73.5t43.5 51t43.5 49.5t20 69q0 42 -20.5 65t-53.5 23q-31 0 -50.5 -21t-27.5 -45.5t-26 -45.5t-47 -21q-26 0 -41 17.5t-15 40.5q0 44 60.5 82t144.5 38q85 0 147 -48t62 -122q0 -50 -25 -85.5t-59 -54t-67.5 -35.5t-53.5 -42t-14 -61h-21
q-20 36 -20 72zM70 1536h839q97 0 138 51h18l63 -416l-20 -4q-91 158 -209 230.5t-295 72.5q-205 0 -205 -174v-417h326q95 0 159 36t99 123h18v-401h-18q-92 168 -256 168h-328v-559q0 -87 56 -133.5t155 -46.5q192 0 326.5 82t237.5 249l18 -2l-98 -446h-23
q-43 51 -129 51h-872v23q61 18 95 70.5t34 137.5v1076q0 81 -33.5 136.5t-95.5 72.5v20z" />
    <glyph glyph-name="ehookabove" unicode="&#x1ebb;" horiz-adv-x="958" 
d="M463 1262q0 41 20 73.5t43.5 51t43.5 49.5t20 69q0 42 -20.5 64t-53.5 22q-31 0 -50.5 -21t-27.5 -45.5t-26 -45.5t-47 -21q-26 0 -41 17.5t-15 40.5q0 45 60 82.5t145 37.5q84 0 146.5 -47.5t62.5 -120.5q0 -51 -25 -86.5t-59 -54.5t-67.5 -35.5t-53.5 -41.5t-14 -60
h-21q-20 34 -20 72zM252 586q0 -213 91.5 -339t236.5 -126q88 0 161 44t117 124l23 -13q-42 -141 -148.5 -224t-234.5 -83q-82 0 -158 34t-136 97t-96 162t-36 219q0 161 60 297t166 215.5t234 79.5q157 0 259 -118.5t102 -301.5v-43h-641v-24zM489 999q-87 0 -152 -82
t-81 -239h442q-2 143 -59 232t-150 89z" />
    <glyph glyph-name="Etilde" unicode="&#x1ebc;" horiz-adv-x="1243" 
d="M721 1698q-37 0 -75 22t-63.5 48.5t-56 48.5t-55.5 22q-38 0 -66.5 -35t-44.5 -94l-18 4q10 132 58.5 201.5t125.5 69.5q38 0 76 -22.5t63.5 -49.5t56 -49.5t56.5 -22.5q41 0 70 33.5t39 97.5l18 -4q-9 -133 -56.5 -201.5t-127.5 -68.5zM70 1536h839q97 0 138 51h18
l63 -416l-20 -4q-91 158 -209 230.5t-295 72.5q-205 0 -205 -174v-417h326q95 0 159 36t99 123h18v-401h-18q-92 168 -256 168h-328v-559q0 -87 56 -133.5t155 -46.5q192 0 326.5 82t237.5 249l18 -2l-98 -446h-23q-43 51 -129 51h-872v23q61 18 95 70.5t34 137.5v1076
q0 81 -33.5 136.5t-95.5 72.5v20z" />
    <glyph glyph-name="etilde" unicode="&#x1ebd;" horiz-adv-x="958" 
d="M592 1229q-37 0 -75 22t-63.5 48.5t-56 48.5t-55.5 22q-38 0 -66.5 -34.5t-44.5 -92.5l-18 4q10 132 58 200.5t126 68.5q38 0 76 -22.5t63.5 -49.5t56 -49.5t56.5 -22.5q41 0 70 34t39 99l18 -4q-9 -133 -56.5 -202.5t-127.5 -69.5zM252 586q0 -213 91.5 -339t236.5 -126
q88 0 161 44t117 124l23 -13q-42 -141 -148.5 -224t-234.5 -83q-82 0 -158 34t-136 97t-96 162t-36 219q0 161 60 297t166 215.5t234 79.5q157 0 259 -118.5t102 -301.5v-43h-641v-24zM489 999q-87 0 -152 -82t-81 -239h442q-2 143 -59 232t-150 89z" />
    <glyph glyph-name="Ecircumflexacute" unicode="&#x1ebe;" horiz-adv-x="1243" 
d="M850 1892q14 104 17 223t12 158q11 40 39 62.5t67 13.5q37 -7 52.5 -41.5t4.5 -75.5q-13 -44 -74 -150.5t-102 -195.5zM326 1655l209 344q32 50 92 48t90 -48l211 -344l-15 -8l-284 217h-8l-285 -217zM70 1536h839q97 0 138 51h18l63 -416l-20 -4q-91 158 -209 230.5
t-295 72.5q-205 0 -205 -174v-417h326q95 0 159 36t99 123h18v-401h-18q-92 168 -256 168h-328v-559q0 -87 56 -133.5t155 -46.5q192 0 326.5 82t237.5 249l18 -2l-98 -446h-23q-43 51 -129 51h-872v23q61 18 95 70.5t34 137.5v1076q0 81 -33.5 136.5t-95.5 72.5v20z" />
    <glyph glyph-name="ecircumflexacute" unicode="&#x1ebf;" horiz-adv-x="958" 
d="M721 1423q14 104 17 224t12 159q12 39 39.5 61.5t66.5 14.5q37 -9 52.5 -43t4.5 -74q-13 -45 -74.5 -152t-101.5 -194zM197 1188l209 342q31 50 91.5 48.5t90.5 -48.5l211 -342l-15 -10l-284 217h-8l-285 -217zM252 586q0 -213 91.5 -339t236.5 -126q88 0 161 44t117 124
l23 -13q-42 -141 -148.5 -224t-234.5 -83q-82 0 -158 34t-136 97t-96 162t-36 219q0 161 60 297t166 215.5t234 79.5q157 0 259 -118.5t102 -301.5v-43h-641v-24zM489 999q-87 0 -152 -82t-81 -239h442q-2 143 -59 232t-150 89z" />
    <glyph glyph-name="Ecircumflexgrave" unicode="&#x1ec0;" horiz-adv-x="1243" 
d="M733 2232q-11 41 5 75.5t53 41.5q39 9 67 -13.5t39 -62.5q9 -39 12 -158t17 -223l-17 -6q-41 89 -102 195.5t-74 150.5zM326 1655l209 344q31 48 92.5 46.5t89.5 -46.5l211 -344l-15 -8l-284 217h-8l-285 -217zM70 1536h839q97 0 138 51h18l63 -416l-20 -4
q-91 158 -209 230.5t-295 72.5q-205 0 -205 -174v-417h326q95 0 159 36t99 123h18v-401h-18q-92 168 -256 168h-328v-559q0 -87 56 -133.5t155 -46.5q192 0 326.5 82t237.5 249l18 -2l-98 -446h-23q-43 51 -129 51h-872v23q61 18 95 70.5t34 137.5v1076q0 81 -33.5 136.5
t-95.5 72.5v20z" />
    <glyph glyph-name="ecircumflexgrave" unicode="&#x1ec1;" horiz-adv-x="958" 
d="M604 1765q-11 40 5 74t53 43q39 8 66.5 -14.5t39.5 -61.5q9 -39 12 -159t17 -224l-17 -4q-40 87 -101.5 194t-74.5 152zM197 1188l209 342q31 50 92.5 48.5t89.5 -48.5l211 -342l-15 -10l-284 217h-8l-285 -217zM252 586q0 -213 91.5 -339t236.5 -126q88 0 161 44
t117 124l23 -13q-42 -141 -148.5 -224t-234.5 -83q-82 0 -158 34t-136 97t-96 162t-36 219q0 161 60 297t166 215.5t234 79.5q157 0 259 -118.5t102 -301.5v-43h-641v-24zM489 999q-87 0 -152 -82t-81 -239h442q-2 143 -59 232t-150 89z" />
    <glyph glyph-name="Ecircumflexhookabove" unicode="&#x1ec2;" horiz-adv-x="1243" 
d="M870 1970q0 34 13.5 61t32 45t37.5 36t32.5 43t13.5 57q0 43 -20 65.5t-55 22.5q-30 0 -49.5 -21t-27.5 -45.5t-27 -45.5t-48 -21q-25 0 -40 17t-15 40q0 45 61 83t144 38q86 0 148.5 -47.5t62.5 -120.5q0 -51 -25 -86.5t-59.5 -54.5t-68 -36t-54 -42t-15.5 -60l-20 -2
q-21 38 -21 74zM326 1655l209 344q31 48 92.5 46.5t89.5 -46.5l211 -344l-15 -8l-284 217h-8l-285 -217zM70 1536h839q97 0 138 51h18l63 -416l-20 -4q-91 158 -209 230.5t-295 72.5q-205 0 -205 -174v-417h326q95 0 159 36t99 123h18v-401h-18q-92 168 -256 168h-328v-559
q0 -87 56 -133.5t155 -46.5q192 0 326.5 82t237.5 249l18 -2l-98 -446h-23q-43 51 -129 51h-872v23q61 18 95 70.5t34 137.5v1076q0 81 -33.5 136.5t-95.5 72.5v20z" />
    <glyph glyph-name="ecircumflexhookabove" unicode="&#x1ec3;" horiz-adv-x="958" 
d="M741 1501q0 34 13.5 61t32 45.5t37.5 36.5t32.5 43.5t13.5 57.5q0 42 -20.5 65t-54.5 23q-30 0 -49.5 -21t-27.5 -46t-27 -46t-48 -22q-25 0 -40 17.5t-15 41.5q0 43 61 81t144 38q86 0 148.5 -47t62.5 -121q0 -50 -25 -85.5t-59.5 -54t-68 -35.5t-54 -42t-15.5 -61h-20
q-21 35 -21 71zM197 1188l209 342q31 50 92.5 48.5t89.5 -48.5l211 -342l-15 -10l-284 217h-8l-285 -217zM252 586q0 -213 91.5 -339t236.5 -126q88 0 161 44t117 124l23 -13q-42 -141 -148.5 -224t-234.5 -83q-82 0 -158 34t-136 97t-96 162t-36 219q0 161 60 297
t166 215.5t234 79.5q157 0 259 -118.5t102 -301.5v-43h-641v-24zM489 999q-87 0 -152 -82t-81 -239h442q-2 143 -59 232t-150 89z" />
    <glyph glyph-name="Ecircumflextilde" unicode="&#x1ec4;" horiz-adv-x="1243" 
d="M483 2236q-74 0 -108 -125l-19 5q10 128 57.5 195t123.5 67q37 0 74.5 -22.5t62.5 -49.5t55 -49.5t55 -22.5q39 0 68 33t41 96l16 -4q-9 -129 -55.5 -196.5t-124.5 -67.5q-37 0 -74 22t-62 48.5t-55.5 48.5t-54.5 22zM326 1655l209 344q31 48 91.5 46.5t88.5 -46.5
l213 -344l-15 -8l-284 217h-8l-281 -217zM70 1536h839q97 0 138 51h18l63 -416l-20 -4q-91 158 -209 230.5t-295 72.5q-205 0 -205 -174v-417h326q95 0 159 36t99 123h18v-401h-18q-92 168 -256 168h-328v-559q0 -87 56 -133.5t155 -46.5q192 0 326.5 82t237.5 249l18 -2
l-98 -446h-23q-43 51 -129 51h-872v23q61 18 95 70.5t34 137.5v1076q0 81 -33.5 136.5t-95.5 72.5v20z" />
    <glyph glyph-name="ecircumflextilde" unicode="&#x1ec5;" horiz-adv-x="958" 
d="M354 1769q-74 0 -108 -124l-19 4q10 128 57.5 195t123.5 67q37 0 74.5 -22.5t62.5 -49.5t55 -49.5t55 -22.5q40 0 68.5 32.5t40.5 96.5l16 -4q-9 -130 -55.5 -197t-124.5 -67q-37 0 -74 22t-62 48.5t-55.5 48.5t-54.5 22zM197 1188l209 342q31 50 91.5 48.5t88.5 -48.5
l213 -342l-15 -10l-284 217h-8l-281 -217zM252 586q0 -213 91.5 -339t236.5 -126q88 0 161 44t117 124l23 -13q-42 -141 -148.5 -224t-234.5 -83q-82 0 -158 34t-136 97t-96 162t-36 219q0 161 60 297t166 215.5t234 79.5q157 0 259 -118.5t102 -301.5v-43h-641v-24z
M489 999q-87 0 -152 -82t-81 -239h442q-2 143 -59 232t-150 89z" />
    <glyph glyph-name="Ecircumflexdotbelow" unicode="&#x1ec6;" horiz-adv-x="1243" 
d="M326 1655l209 356q30 50 92 48.5t90 -48.5l211 -356l-15 -10l-284 231h-8l-281 -231zM70 1536h839q97 0 138 51h18l63 -416l-20 -4q-91 158 -209 230.5t-295 72.5q-205 0 -205 -174v-417h326q95 0 159 36t99 123h18v-401h-18q-92 168 -256 168h-328v-559q0 -87 56 -133.5
t155 -46.5q192 0 326.5 82t237.5 249l18 -2l-98 -446h-23q-43 51 -129 51h-872v23q61 18 95 70.5t34 137.5v1076q0 81 -33.5 136.5t-95.5 72.5v20zM625 -428q-52 0 -86.5 38t-34.5 91q0 56 34.5 93.5t86.5 37.5q54 0 89.5 -37.5t35.5 -93.5q0 -53 -36 -91t-89 -38z" />
    <glyph glyph-name="ecircumflexdotbelow" unicode="&#x1ec7;" horiz-adv-x="958" 
d="M197 1186l209 356q30 50 92 48.5t90 -48.5l211 -356l-15 -10l-284 231h-8l-281 -231zM252 586q0 -213 91.5 -339t236.5 -126q88 0 161 44t117 124l23 -13q-42 -141 -148.5 -224t-234.5 -83q-82 0 -158 34t-136 97t-96 162t-36 219q0 161 60 297t166 215.5t234 79.5
q157 0 259 -118.5t102 -301.5v-43h-641v-24zM489 999q-87 0 -152 -82t-81 -239h442q-2 143 -59 232t-150 89zM489 -428q-52 0 -86 38t-34 91q0 56 34 93.5t86 37.5q53 0 89 -38t36 -93q0 -53 -36.5 -91t-88.5 -38z" />
    <glyph glyph-name="Ihookabove" unicode="&#x1ec8;" horiz-adv-x="604" 
d="M268 1729q0 41 20 73.5t43.5 51t43.5 49.5t20 69q0 42 -19.5 65t-53.5 23q-30 0 -49.5 -21t-27.5 -45.5t-27 -45.5t-48 -21q-25 0 -40 17.5t-15 40.5q0 44 60 82t144 38q85 0 148 -48t63 -122q0 -50 -25 -85.5t-59.5 -54t-68.5 -35.5t-54 -42t-14 -61h-20q-21 38 -21 72z
M532 0h-460v23q59 15 94 70t35 138v1076q0 76 -34.5 133.5t-94.5 75.5v20h460v-20q-62 -18 -95.5 -75t-33.5 -134v-1076q0 -83 35.5 -138t93.5 -70v-23z" />
    <glyph glyph-name="ihookabove" unicode="&#x1ec9;" horiz-adv-x="528" 
d="M225 1262q0 41 20 73.5t43.5 51t43.5 49.5t20 69q0 42 -20 64t-53 22q-31 0 -50.5 -21t-27.5 -45.5t-26.5 -45.5t-47.5 -21q-26 0 -40.5 17t-14.5 41q0 45 60 82.5t144 37.5t146.5 -47.5t62.5 -120.5q0 -51 -25 -86.5t-59 -54.5t-67.5 -35.5t-53.5 -41.5t-14 -60h-20
q-21 35 -21 72zM72 0v20q50 19 77 67.5t27 121.5v524q0 75 -22.5 124.5t-83.5 68.5v20q169 25 280 133h19v-870q0 -72 24.5 -121t67.5 -68v-20h-389z" />
    <glyph glyph-name="Idotbelow" unicode="&#x1eca;" horiz-adv-x="604" 
d="M532 0h-460v23q59 15 94 70t35 138v1076q0 76 -34.5 133.5t-94.5 75.5v20h460v-20q-62 -18 -95.5 -75t-33.5 -134v-1076q0 -83 35.5 -138t93.5 -70v-23zM301 -428q-52 0 -86.5 38t-34.5 91q0 56 34.5 93.5t86.5 37.5q53 0 89 -38t36 -93q0 -53 -36.5 -91t-88.5 -38z" />
    <glyph glyph-name="idotbelow" unicode="&#x1ecb;" horiz-adv-x="528" 
d="M256 1247q-51 0 -86 38.5t-35 94.5q0 57 35 96.5t86 39.5q54 0 89.5 -39.5t35.5 -96.5q0 -56 -35.5 -94.5t-89.5 -38.5zM72 0v20q50 19 77 67.5t27 121.5v524q0 75 -22.5 124.5t-83.5 68.5v20q169 25 280 133h19v-870q0 -72 24.5 -121t67.5 -68v-20h-389zM264 -428
q-52 0 -86.5 38t-34.5 91q0 56 34.5 93.5t86.5 37.5q53 0 89 -38t36 -93q0 -53 -36.5 -91t-88.5 -38z" />
    <glyph glyph-name="Odotbelow" unicode="&#x1ecc;" horiz-adv-x="1396" 
d="M80 768q0 218 80 401t223 290.5t317 107.5q130 0 245 -63t196.5 -170.5t128.5 -254.5t47 -311q0 -218 -81 -401.5t-223 -290.5t-313 -107q-170 0 -313 107.5t-225 291t-82 400.5zM313 768q0 -332 100.5 -528.5t286.5 -196.5q123 0 210.5 92t130 253.5t42.5 379.5
q0 336 -96.5 530.5t-286.5 194.5q-128 0 -216 -92.5t-129.5 -253t-41.5 -379.5zM698 -428q-52 0 -86 38t-34 91q0 56 34 93.5t86 37.5q53 0 89 -38t36 -93q0 -53 -36.5 -91t-88.5 -38z" />
    <glyph glyph-name="odotbelow" unicode="&#x1ecd;" horiz-adv-x="1058" 
d="M72 524q0 113 35.5 215t96 175t145.5 116t179 43q127 0 232.5 -72.5t166 -198.5t60.5 -278t-62 -280t-167.5 -201.5t-229.5 -73.5t-229 74t-166 202t-61 279zM281 524q0 -220 65 -354.5t182 -134.5q79 0 136 63t85.5 172.5t28.5 253.5q0 220 -64 352t-186 132
q-120 0 -183.5 -132.5t-63.5 -351.5zM528 -428q-51 0 -85.5 38t-34.5 91q0 56 34.5 93.5t85.5 37.5q54 0 89.5 -37.5t35.5 -93.5q0 -53 -36 -91t-89 -38z" />
    <glyph glyph-name="Ohookabove" unicode="&#x1ece;" horiz-adv-x="1396" 
d="M666 1729q0 41 20 73.5t43.5 51t43.5 49.5t20 69q0 42 -20.5 65t-53.5 23q-31 0 -50.5 -21t-28 -45.5t-27.5 -45.5t-48 -21q-25 0 -40 17.5t-15 40.5q0 43 61 81.5t144 38.5q86 0 148.5 -48t62.5 -122q0 -50 -25 -85.5t-59 -54t-67.5 -35.5t-53.5 -42t-14 -61h-23
q-18 33 -18 72zM80 768q0 218 80 401t223 290.5t317 107.5q130 0 245 -63t196.5 -170.5t128.5 -254.5t47 -311q0 -218 -81 -401.5t-223 -290.5t-313 -107q-170 0 -313 107.5t-225 291t-82 400.5zM313 768q0 -332 100.5 -528.5t286.5 -196.5q123 0 210.5 92t130 253.5
t42.5 379.5q0 336 -96.5 530.5t-286.5 194.5q-128 0 -216 -92.5t-129.5 -253t-41.5 -379.5z" />
    <glyph glyph-name="ohookabove" unicode="&#x1ecf;" horiz-adv-x="1058" 
d="M496 1262q0 41 20 73.5t43.5 51t43.5 49.5t20 69q0 42 -19.5 64t-54.5 22q-31 0 -50.5 -21t-27.5 -45.5t-26.5 -45.5t-47.5 -21q-26 0 -40.5 17t-14.5 41q0 45 60 82.5t145 37.5q84 0 146.5 -47.5t62.5 -120.5q0 -51 -25 -86.5t-59 -54.5t-67.5 -35.5t-53.5 -41.5
t-14 -60h-21q-20 34 -20 72zM72 524q0 113 35.5 215t96 175t145.5 116t179 43q127 0 232.5 -72.5t166 -198.5t60.5 -278t-62 -280t-167.5 -201.5t-229.5 -73.5t-229 74t-166 202t-61 279zM281 524q0 -220 65 -354.5t182 -134.5q79 0 136 63t85.5 172.5t28.5 253.5
q0 220 -64 352t-186 132q-120 0 -183.5 -132.5t-63.5 -351.5z" />
    <glyph glyph-name="Ocircumflexacute" unicode="&#x1ed0;" horiz-adv-x="1396" 
d="M924 1892q14 105 16.5 224t11.5 157q11 40 39 62t68 14q37 -7 52 -41.5t3 -75.5q-12 -45 -73.5 -152t-100.5 -194zM399 1655l209 344q32 50 91.5 48t88.5 -48l213 -344l-14 -8l-285 217h-8l-284 -217zM80 768q0 218 80 401t223 290.5t317 107.5q130 0 245 -63
t196.5 -170.5t128.5 -254.5t47 -311q0 -218 -81 -401.5t-223 -290.5t-313 -107q-170 0 -313 107.5t-225 291t-82 400.5zM313 768q0 -332 100.5 -528.5t286.5 -196.5q123 0 210.5 92t130 253.5t42.5 379.5q0 336 -96.5 530.5t-286.5 194.5q-128 0 -216 -92.5t-129.5 -253
t-41.5 -379.5z" />
    <glyph glyph-name="ocircumflexacute" unicode="&#x1ed1;" horiz-adv-x="1058" 
d="M754 1423q14 105 16.5 224.5t11.5 158.5q12 39 40 61.5t67 14.5q37 -9 52.5 -43t4.5 -74q-13 -45 -74.5 -152t-101.5 -194zM231 1188l207 342q31 50 93 48.5t90 -48.5l210 -342l-14 -10l-282 217h-11l-284 -217zM72 524q0 113 35.5 215t96 175t145.5 116t179 43
q127 0 232.5 -72.5t166 -198.5t60.5 -278t-62 -280t-167.5 -201.5t-229.5 -73.5t-229 74t-166 202t-61 279zM281 524q0 -220 65 -354.5t182 -134.5q79 0 136 63t85.5 172.5t28.5 253.5q0 220 -64 352t-186 132q-120 0 -183.5 -132.5t-63.5 -351.5z" />
    <glyph glyph-name="Ocircumflexgrave" unicode="&#x1ed2;" horiz-adv-x="1396" 
d="M807 2232q-11 41 4.5 75.5t52.5 41.5q39 9 67 -14t38 -62q11 -40 13.5 -160t16.5 -221l-16 -6q-41 89 -102 195.5t-74 150.5zM399 1655l209 344q30 48 91.5 46.5t88.5 -46.5l213 -344l-14 -8l-285 217h-8l-284 -217zM80 768q0 218 80 401t223 290.5t317 107.5
q130 0 245 -63t196.5 -170.5t128.5 -254.5t47 -311q0 -218 -81 -401.5t-223 -290.5t-313 -107q-170 0 -313 107.5t-225 291t-82 400.5zM313 768q0 -332 100.5 -528.5t286.5 -196.5q123 0 210.5 92t130 253.5t42.5 379.5q0 336 -96.5 530.5t-286.5 194.5q-128 0 -216 -92.5
t-129.5 -253t-41.5 -379.5z" />
    <glyph glyph-name="ocircumflexgrave" unicode="&#x1ed3;" horiz-adv-x="1058" 
d="M637 1765q-11 40 4.5 74t52.5 43q39 8 67 -14.5t40 -61.5q10 -41 12.5 -161t15.5 -222l-16 -4q-40 87 -101.5 194t-74.5 152zM231 1188l207 342q31 50 93 48.5t90 -48.5l210 -342l-14 -10l-282 217h-11l-284 -217zM72 524q0 113 35.5 215t96 175t145.5 116t179 43
q127 0 232.5 -72.5t166 -198.5t60.5 -278t-62 -280t-167.5 -201.5t-229.5 -73.5t-229 74t-166 202t-61 279zM281 524q0 -220 65 -354.5t182 -134.5q79 0 136 63t85.5 172.5t28.5 253.5q0 220 -64 352t-186 132q-120 0 -183.5 -132.5t-63.5 -351.5z" />
    </font>
</defs>
</svg>
